<svg id="Layer_1" data-name="Layer 1" xmlns="http://www.w3.org/2000/svg" xmlns:xlink="http://www.w3.org/1999/xlink" viewBox="0 0 1440 1080"><defs><style>.cls-1,.cls-2{fill:#278ab0;}.cls-1,.cls-12,.cls-5,.cls-7{opacity:0.1;}.cls-1,.cls-10,.cls-5,.cls-7{isolation:isolate;}.cls-3,.cls-7{fill:#444053;}.cls-4{fill:#3f3d56;}.cls-6{fill:#fff;}.cls-8{fill:url(#linear-gradient);}.cls-9{fill:#a1616a;}.cls-10{opacity:0.15;}.cls-11{fill:#fbbebe;}.cls-13{fill:#3acc6c;}</style><linearGradient id="linear-gradient" x1="1028.27" y1="89.62" x2="1028.27" y2="534.1" gradientTransform="matrix(1, 0, 0, -1, -35.84, 1025.37)" gradientUnits="userSpaceOnUse"><stop offset="0" stop-color="gray" stop-opacity="0.25"/><stop offset="0.54" stop-color="gray" stop-opacity="0.12"/><stop offset="1" stop-color="gray" stop-opacity="0.1"/></linearGradient></defs><title>evently</title><path class="cls-1" d="M809.7,273.47c-72.31-2.51-141.18-25.86-207-51.4s-130.91-53.84-201.5-67.37c-45.39-8.71-97.31-9.94-133.89,14.4-35.2,23.42-46.57,63.85-52.69,101.37-4.6,28.23-7.3,57.93,5.3,84.36,8.75,18.34,24.29,33.76,35,51.33,37.39,61.15,11,136.54-29.56,196.25-19,28-41.06,54.72-55.72,84.53s-21.42,64-8.53,94.43c12.72,30.14,43,52.78,75.87,68.71,66.64,32.29,145.23,41.55,221.86,46.79,169.64,11.6,340.19,6.58,510.28,1.55,62.94-1.87,126.17-3.75,188.09-13.49,34.39-5.4,69.89-14,94.86-34.69,31.69-26.29,39.55-70.81,18.31-103.78-35.62-55.3-134.11-69-159-128.38-13.71-32.66.37-69.05,20.29-99.34,42.72-65,114.33-122,118.1-196.29,2.6-51-31.83-102.12-85.06-126.26C1109,170.89,1031.6,174.07,990.43,216,948,259.09,873.55,275.68,809.7,273.47Z"/><path class="cls-2" d="M1056.64,830.91a30.87,30.87,0,0,0-12.59-1.34c-5.17.56-4.44,8.43.75,8.06a36.92,36.92,0,0,0,7.66-1.41Z"/><path class="cls-2" d="M1058.21,831a30.68,30.68,0,0,1,3.08,12.29c.17,5.2-7.73,5.57-8.09.38a37.48,37.48,0,0,1,.34-7.78Z"/><path class="cls-2" d="M1070,814.14s-2.53-7.94-18-4.86c-7,1.39-6.81,11.43.2,12.49h.3C1062.68,823.19,1066.23,819.14,1070,814.14Z"/><path class="cls-2" d="M1071.58,813.67s8.31.65,8.83,16.4c.24,7.09-9.57,9.24-12.2,2.66a.86.86,0,0,0-.11-.29C1064.43,822.83,1067.56,818.45,1071.58,813.67Z"/><path class="cls-2" d="M1082.68,793.37a16.54,16.54,0,0,0-11.16-12.46c-10.47-3.3-16,12.36-5.77,16.34a32.6,32.6,0,0,0,13.24,1.92Z"/><path class="cls-2" d="M1095.45,767.22s-4.23-10-15.2-12c-11.63-2.13-15.15,15.34-3.66,18.13a38.43,38.43,0,0,0,15.66.13Z"/><path class="cls-2" d="M1103.16,741.47a24.8,24.8,0,0,0-16-11c-10-1.88-13.37,13.09-3.55,15.65a37.3,37.3,0,0,0,18.74-.26Z"/><path class="cls-2" d="M1110.43,716.37a25.81,25.81,0,0,0-14-11.13c-10-3.07-14.94,12.09-5,15.39a28.44,28.44,0,0,0,18.14-.07Z"/><path class="cls-2" d="M1113.49,693.5s-4-9.38-12.15-14.34c-9.08-5.53-17.73,8-9,14.09,5.38,3.77,12.27,6.37,20.32,4.63Z"/><path class="cls-2" d="M1115,666.37s-4.41-9.47-12.87-14c-9.46-5-17.69,8.82-8.78,14.78,5.83,3.89,13.11,6.41,20.84,3.37Z"/><path class="cls-2" d="M1114.06,641.63a61.27,61.27,0,0,0-12-13.65c-6.62-5.41-15,4.33-8.73,10.11,5.79,5.31,13,9.77,20.45,9.41Z"/><path class="cls-2" d="M1111.55,617.89A89.64,89.64,0,0,0,1098,600.37c-5.18-5-12.84,2.62-8,7.89,5.59,6,13.13,12.22,22.19,14.94Z"/><path class="cls-2" d="M1106.7,590a80.3,80.3,0,0,0-10.83-13.41c-5.22-5.11-13.09,2.58-8.08,7.89,5.32,5.65,12.2,10.94,20.27,12.74Z"/><path class="cls-2" d="M1102.46,563.92a128,128,0,0,0-10.41-12.37c-4.18-4.31-10.86,1.75-6.92,6.29,4.63,5.34,10.57,10.07,17.4,10.83Z"/><path class="cls-2" d="M1098.06,539.76a130.67,130.67,0,0,0-10-16.45c-3.13-4.28-9.65.3-6.7,4.7,3.86,5.77,9.22,11.48,16.26,14.23Z"/><path class="cls-2" d="M1094.43,507.65s-2.47-4.19-6-9.06c-3.26-4.49-10.14.15-7.12,4.8,3.4,5.21,7.66,9.65,12.62,10.53Z"/><path class="cls-2" d="M1092.7,486.37l-3.13-15.65c-.83-4.14-7-3.15-6.5,1,1.12,8.36,4,16.77,10.27,22.29Z"/><path class="cls-2" d="M1094.56,441.89h0a3.07,3.07,0,0,0-5.86,1.68,79.24,79.24,0,0,0,3.16,12.8Z"/><path class="cls-2" d="M1083.38,793.06a16.52,16.52,0,0,1,16.36,3.52c8,7.47-2.82,20-11.35,13.11a32.81,32.81,0,0,1-8.23-10.55Z"/><path class="cls-2" d="M1096.16,766.27s10.52-2.54,18.66,5.08c8.63,8.08-3.3,21.31-12.39,13.74a38.35,38.35,0,0,1-9.43-12.51Z"/><path class="cls-2" d="M1103.85,743.23a24.84,24.84,0,0,1,19-4.22c10,2,7.51,17.13-2.56,15.84A37.43,37.43,0,0,1,1103,747.6Z"/><path class="cls-2" d="M1110.93,716.51a25.8,25.8,0,0,1,17.12-5.11c10.46.91,9.34,16.8-1.13,16.14a28.42,28.42,0,0,1-16.8-6.85Z"/><path class="cls-2" d="M1113.36,694.15s5.55-8.56,14.41-12.06c9.83-3.89,16.14,10.84,6.59,15.37-6,2.83-13.23,4.26-20.91,1.15Z"/><path class="cls-2" d="M1113.71,666s5.61-8.8,14.58-12.16c10-3.75,16.39,11.05,6.78,15.8-6.29,3.1-13.84,4.64-21.1.62Z"/><path class="cls-2" d="M1111.83,641.37a61.21,61.21,0,0,1,8.8-15.9c5.3-6.71,15.61,1,10.69,8-4.52,6.43-10.56,12.32-18,13.57Z"/><path class="cls-2" d="M1111.06,617.85a89.6,89.6,0,0,1,8.12-20.66c3.59-6.22,13.06-1.07,9.84,5.35-3.68,7.35-9.2,15.4-17.14,20.55Z"/><path class="cls-2" d="M1105.26,588.67a80,80,0,0,1,8.26-15.77c4.12-6,13.25-.12,9.48,6.08-4.1,6.76-9.88,13.56-17.63,17Z"/><path class="cls-2" d="M1100.64,563.78a128.69,128.69,0,0,1,4.33-15.57c2-5.67,10.61-2.93,8.91,2.84-2,6.78-5.43,13.55-11.32,17.08Z"/><path class="cls-2" d="M1097.43,539.29a129.75,129.75,0,0,1,6-18.31c2.08-4.88,9.48-1.91,7.6,3-2.44,6.5-6.36,13.28-12.58,17.56Z"/><path class="cls-2" d="M1092.62,509.85s.94-4.77,2.65-10.54c1.58-5.32,9.62-3.23,8.31,2.16-1.46,6-4,11.65-8.4,14.13Z"/><path class="cls-2" d="M1093.74,485.31l5.44-15c1.44-4,7.44-2.06,6.27,2-2.35,8.1-6.43,16-13.48,20.5Z"/><path class="cls-2" d="M1100.52,443.46s.85-.68,2.15-1.75c2.65-2.2,6.11,1.64,3.61,4a50.93,50.93,0,0,1-14.79,9.38Z"/><path class="cls-2" d="M1100.16,434.77A195.63,195.63,0,0,1,1111,415.45a2,2,0,0,0-3.24-2.29c-3.2,4.38-6.34,10.79-8.72,20.21Z"/><path class="cls-3" d="M1094,514.17l1.16-.12c-5-46.61-2.89-75.35,5.85-80.92l-.63-1C1091.08,438.06,1088.88,466.42,1094,514.17Z"/><path class="cls-3" d="M1111.16,624.37l1.73-.26c-.65-4.31-1.4-8.69-2.24-13-7.28-37.83-12.94-72.8-15.77-99.36l-1.27-1c2.84,26.61,8,62.79,15.33,100.67C1109.76,615.7,1110.51,620.07,1111.16,624.37Z"/><path class="cls-3" d="M1030.16,860c.26-.21,26.9-20.59,50.29-59.68a252,252,0,0,0,29.6-73.79c7.39-32.51,7.6-70.37,2.27-105.83l-1.56,1.25c12,79.58-10.89,141.37-32.25,177.09-23.16,38.73-49.49,58.9-49.76,59.1Z"/><ellipse class="cls-2" cx="348.02" cy="846.97" rx="66.55" ry="12.8"/><ellipse class="cls-4" cx="346.9" cy="841.53" rx="7.75" ry="10.14"/><ellipse class="cls-4" cx="346.9" cy="829.13" rx="7.75" ry="10.14"/><ellipse class="cls-4" cx="346.9" cy="816.74" rx="7.75" ry="10.14"/><ellipse class="cls-4" cx="346.9" cy="804.34" rx="7.75" ry="10.14"/><ellipse class="cls-4" cx="346.9" cy="791.94" rx="7.75" ry="10.14"/><ellipse class="cls-4" cx="346.9" cy="779.55" rx="7.75" ry="10.14"/><ellipse class="cls-4" cx="346.9" cy="767.15" rx="7.75" ry="10.14"/><path class="cls-2" d="M375.9,682.31a37,37,0,0,0,2.89-4.25l-20.36-3.34,22,.16a37.14,37.14,0,0,0,.71-29.4L351.6,660.8l27.24-20a37.12,37.12,0,0,0-64.33,37.06,36.56,36.56,0,0,0,3,4.47,37.63,37.63,0,0,0-4.23,6.77l26.43,13.73-28.16-9.46a37.12,37.12,0,0,0,6,34.85,37.12,37.12,0,1,0,58.34,0,37.09,37.09,0,0,0,0-45.89Z"/><path class="cls-5" d="M309.62,705.26a37,37,0,0,0,7.94,22.94,37.12,37.12,0,1,0,58.34,0C380.88,721.89,309.62,701.09,309.62,705.26Z"/><path class="cls-6" d="M386,410.24V852a15.42,15.42,0,0,0,15.42,15.42h633.87A15.42,15.42,0,0,0,1050.68,852V410.24Z"/><rect class="cls-5" x="438.57" y="449.78" width="158.9" height="93.27" rx="8.65"/><rect class="cls-5" x="638.88" y="449.78" width="158.9" height="93.27" rx="8.65"/><rect class="cls-2" x="440.8" y="451.09" width="154.43" height="90.64" rx="8.65"/><rect class="cls-7" x="841.42" y="451.09" width="154.43" height="90.64" rx="8.65"/><rect class="cls-2" x="641.11" y="451.09" width="154.43" height="90.64" rx="8.65"/><rect class="cls-7" x="440.8" y="582.02" width="154.43" height="90.64" rx="8.65"/><rect class="cls-7" x="841.42" y="582.02" width="154.43" height="90.64" rx="8.65"/><rect class="cls-7" x="641.11" y="582.02" width="154.43" height="90.64" rx="8.65"/><rect class="cls-7" x="440.8" y="712.95" width="154.43" height="90.64" rx="8.65"/><rect class="cls-7" x="841.42" y="712.96" width="154.43" height="90.64" rx="8.65"/><rect class="cls-7" x="641.11" y="712.96" width="154.43" height="90.64" rx="8.65"/><path class="cls-2" d="M386,332.23v80.25h664.71V332.23a15.42,15.42,0,0,0-15.41-15.43H401.39A15.42,15.42,0,0,0,386,332.22ZM550.47,356a12.31,12.31,0,1,1,12.31-12.31h0A12.31,12.31,0,0,1,550.47,356Zm335.71,0a12.31,12.31,0,1,1,12.31-12.31h0A12.31,12.31,0,0,1,886.18,356h0Z"/><path class="cls-5" d="M550.47,329.11A14.55,14.55,0,1,0,565,343.67h0a14.54,14.54,0,0,0-14.53-14.55Zm0,26.86a12.31,12.31,0,1,1,12.31-12.31h0A12.31,12.31,0,0,1,550.47,356Z"/><path class="cls-5" d="M886.16,329.11a14.55,14.55,0,1,0,14.55,14.55h0A14.54,14.54,0,0,0,886.16,329.11Zm0,26.86a12.31,12.31,0,1,1,12.31-12.31h0A12.31,12.31,0,0,1,886.16,356Z"/><circle class="cls-1" cx="1187.1" cy="568.94" r="15.27"/><circle class="cls-1" cx="1241.73" cy="500.84" r="25.6"/><circle class="cls-1" cx="1207.84" cy="625.06" r="25.6"/><circle class="cls-1" cx="190.25" cy="494.56" r="36.25"/><path class="cls-8" d="M1079.65,889.37a32.06,32.06,0,0,0-7.42-4.17,1.61,1.61,0,0,0-.65-.17,113.64,113.64,0,0,1-15.3-13.18c1-.8,1.92-1.58,2.9-2.35-6-2.86-9.33-9.41-12.57-15.32a151.26,151.26,0,0,0-33.34-41.54c-.33-1.27-2.26-1-3.29-1.82a2.66,2.66,0,0,1-.73-2.55c.16-.92.58-1.77.81-2.67.55-2.11.07-4.33-.17-6.5s-.14-4.59,1.3-6.21c.46-.53,1-.94,1.5-1.48a5.63,5.63,0,0,0,1-4.49,16.12,16.12,0,0,0-1-4.55q7.35-20,14.69-40.07c3.43-9.34,6.89-18.88,7.24-28.84.28-8-1.78-16.31-6.62-22.42.88-.21,1.76-.43,2.63-.68-5.72-7.58-6.34-17.62-6.49-27.17q-.12-7.14-.49-14.29c1.66.73,3.34,1.38,5.06,1.94l1.6.49a55.15,55.15,0,0,0,7.93,1.7c1.18.17,2.38.3,3.57.38h0q-2.58-6.46-5.15-12.94a17.78,17.78,0,0,1-1.6-6.07h0V634a3.49,3.49,0,0,1,0-.72,8,8,0,0,1,.39-1.68,7.61,7.61,0,0,1,.31-.79,13.88,13.88,0,0,1,1.28-2.25c.36-.55.76-1.08,1.16-1.62a22.19,22.19,0,0,0,3.59-5.81,10.94,10.94,0,0,0,.55-3.31,16.17,16.17,0,0,0-.3-3.4c-.14-.74-.32-1.49-.52-2.21h0c-.13-.45-.27-.9-.41-1.34l-.12-.36c-.11-.34-.22-.67-.34-1l-.12-.34c-.13-.36-.26-.71-.4-1.07l-.08-.21c-1.91-4.91-4.45-9.59-6-14.64a38.1,38.1,0,0,1-1-4.09c-.07-.35-.12-.71-.18-1.06s-.09-.6-.13-.9-.09-.7-.13-1.05l-.09-1c0-.32,0-.64-.07-1,0-.61-.06-1.22-.07-1.83v-2.78c0-.46.07-.92.11-1.37a2,2,0,0,1,.07-.65c.07-.67.16-1.33.27-2h0c.1-.59.21-1.19.33-1.79a24,24,0,0,0,.56-5,5,5,0,0,0-.07-1c-.07-.35-.08-.54-.13-.8v-.24a2.65,2.65,0,0,0-.13-.54,1,1,0,0,0-.08-.25c0-.08-.11-.35-.17-.52l-.08-.23c0-.08-.14-.36-.22-.53l-.07-.18c-.1-.22-.21-.43-.32-.64h0a15.05,15.05,0,0,0-1.34-2.08h0c-3.29-4.32-8.76-7.61-11.77-12.37a27.49,27.49,0,0,1-3.37-10c-.15-.8-.28-1.6-.42-2.39s-.26-1.57-.4-2.35c-.09-.48-.18-1-.28-1.44l-.06-.31c-.08-.38-.16-.77-.25-1.15l-.06-.27c-.09-.4-.18-.8-.28-1.2l-.06-.21c-.1-.42-.21-.84-.32-1.26v-.15c-.12-.44-.25-.88-.38-1.32v-.09c-.14-.46-.28-.91-.43-1.36h0c-.15-.46-.31-.93-.48-1.39h0c-.18-.47-.35-.94-.54-1.4h0a37.1,37.1,0,0,0-5.06-9c-4.58-5.88-11.66-10.1-19-9.82-3.94.15-7.72,1.53-11.43,2.9l-9.63,3.55,2.69-1.24c-2.8.25-5.66.51-8.19,1.75s-4.67,3.67-4.75,6.51c-.05,1.65.6,3.29.39,4.93-.35,2.71-2.84,4.55-4.13,7a8.92,8.92,0,0,0-1,4.7v1.12c-4-1.74-8-3.55-12-5.49-6.61-3.25-13.3-7.07-17.42-13.23-1.32-2-2.34-4.16-3.65-6.14a48.64,48.64,0,0,0-5-6l-12.27-13.28c-.94,1.77.27,3.86,1.22,5.62a24.29,24.29,0,0,1,2.27,5.86,2.79,2.79,0,0,1-.06,2.05,4,4,0,0,1-1.68,1.19,6,6,0,0,0-2.53,6.87,7.61,7.61,0,0,0,5.67,4.94,10.4,10.4,0,0,1,2.53.62c1.48.73,2.18,2.43,3.24,3.7,1.93,2.32,5,3.19,7.93,4,4.54,5.24,9.26,10.26,13.8,15.5,6.87,7.93,13.9,16,22.86,21.36.93.56,1.88,1.08,2.84,1.56a1.57,1.57,0,0,1-.05.48,5.43,5.43,0,0,0,.43,3.5c.8,1.27,2.45,1.65,3.92,1.91l6.78,1.21a23.16,23.16,0,0,1-.33,2.62c-.09.53-.2,1-.3,1.58h0l-.12.68v.1a2,2,0,0,1-.07.55c-.07.19,0,.13,0,.19v1.33c.23,2.66,2,4.86,3.77,6.89l.95,1.15a16,16,0,0,0-3.09,6.48,22,22,0,0,0-.44,4.51,7.75,7.75,0,0,0-2,3.12,14.36,14.36,0,0,0-.52,5.05v2a16.73,16.73,0,0,0,1.16,7c.09.18.19.34.28.51-1.5,2.94-4,5.23-5.79,8a17.36,17.36,0,0,0,1.59,19.88c1.37,1.58,3.13,3.1,3.29,5.2a19.37,19.37,0,0,1-.28,2.84c-.16,2.26.88,4.4,1.44,6.59.47,1.82.49,4-.55,5.46a8,8,0,0,0-1.37,5.24c.51,2.83-.66,5.66-.86,8.53-.09,1.23,0,2.48-.11,3.71a20.7,20.7,0,0,1-.73,3.48,1.43,1.43,0,0,1-.1.38c-2.47,1.09-4.92,2.22-7.28,3.53a6.43,6.43,0,0,0-3,2.76,7.11,7.11,0,0,0-.16,3.8l2.13,14.82-.37-.16c.17,2.43.34,4.86.52,7.31.13,1.85.3,3.81,1.4,5.29a14.11,14.11,0,0,1,1.51,1.93c.84,1.7-.16,3.68-.9,5.42s-1,4.21.63,5.15a13.52,13.52,0,0,0,2.73,1.46c-2,8.34-.16,17.08,1.7,25.45q2.13,9.6,4.27,19.18a46.54,46.54,0,0,1,.94,8.24V790a46,46,0,0,0,2,11.22c2.22,7.48.09,16.46.79,24.61a73.68,73.68,0,0,0,2.34,11.59c4.83,19.16,9.14,37.94,10.8,57.64a14.5,14.5,0,0,0,6.92,4.83c-.2,2.42.07,5.19,0,6.6A11.14,11.14,0,0,1,993,910c-.85,2.22-3,3.67-5.23,4.45-.7.24-1.41.43-2.13.6l.8-.68a17.89,17.89,0,0,0-13.31,2.34,5.28,5.28,0,0,0-2.63,3.1,5,5,0,0,0,.92,3.59,16.38,16.38,0,0,0,9.25,6.57,48.74,48.74,0,0,0,11.4,1.59l7.06.41a1.93,1.93,0,0,0,.46,2.51,5,5,0,0,0,2.59.94,33,33,0,0,0,8.71.13,3.37,3.37,0,0,0,2-.72A1.28,1.28,0,0,0,1013,933l-.09-.09a2.1,2.1,0,0,0,1.92-1.4,5.57,5.57,0,0,0,.26-2.53c-.19-3.29-.48-8.07-2.19-11a2.79,2.79,0,0,0-3.09-1.36,120.27,120.27,0,0,1-2-17.74,43.91,43.91,0,0,0,5.14-2.32c-4.91-7.93-5-18-3.5-27.22a81.71,81.71,0,0,0,1.31-8.81c.33-5.9-.56-12.58-3.83-17.46a62.49,62.49,0,0,1,15.6,14.12c6.91,9,11.12,19.9,19.59,27.4q1.66-1.64,3.38-3.24,2.68,4.54,5.07,9.27a35,35,0,0,1,2.94,7.31,33.84,33.84,0,0,1,.27,11.79c-.23,2.08-.52,4.15-.85,6.21a16.63,16.63,0,0,1-.61,2.6,1.76,1.76,0,0,0-.19-.78c-.53-.93-2-.51-2.8.13a12.41,12.41,0,0,0-3.45,4,4.31,4.31,0,0,0-.62,2.55,3.77,3.77,0,0,0,2,2.5c3.71,2.17,8.37.6,12.35-1a14.49,14.49,0,0,0,3.12-1.57c2-1.44,3.09-3.81,5.08-5.21a28.83,28.83,0,0,0,3.07-1.94c1.85-1.69,2-4.54,3.35-6.68,2.24-3.69,7.25-4.64,9.21-8.55C1085.72,897.64,1083.07,892.19,1079.65,889.37Z"/><path class="cls-9" d="M993.44,907a11.25,11.25,0,0,1-.55,3.4c-.84,2.19-3,3.62-5.22,4.39s-4.58,1-6.84,1.67a6.05,6.05,0,0,0-2.67,1.38c-2,2-.8,5.6,1.54,7.09s5.32,1.44,8.1,1.25a106.69,106.69,0,0,0,17.52-2.49c2.08-.49,4.51-1.45,4.84-3.56a5.86,5.86,0,0,0-.16-2,118.33,118.33,0,0,1-2.25-21.73c0-.48-11.6-.79-12.68-.09C992.65,897.87,993.57,904.51,993.44,907Z"/><path class="cls-9" d="M1045.16,881.5q2.88,4.77,5.41,9.73a34,34,0,0,1,2.94,7.21,33.18,33.18,0,0,1,.27,11.63q-.35,3.07-.86,6.13c-.33,2-.86,4.27-2.57,5.42a5.91,5.91,0,0,0,5.1.45,14.72,14.72,0,0,0,4.49-2.75c8.57-7.07,15-17.34,15.32-28.45a4.49,4.49,0,0,0-.47-2.52,4.94,4.94,0,0,0-1.5-1.34,115.73,115.73,0,0,1-17.73-14.89,2.17,2.17,0,0,0-1.3-.83,2.26,2.26,0,0,0-1.16.33c-3.29,1.65-8.79,4-10.16,7.75A5.19,5.19,0,0,1,1045.16,881.5Z"/><path class="cls-4" d="M1005.16,918.58c-7.2,3-15,4.08-22.79,5.11a3.11,3.11,0,0,1-2.73-.5,2.07,2.07,0,0,1-.18-2.34,6,6,0,0,1,1.67-1.84l5.17-4.33a18,18,0,0,0-13.14,2.26,5.24,5.24,0,0,0-2.62,3,4.85,4.85,0,0,0,.92,3.55A16.31,16.31,0,0,0,980.7,930a49.78,49.78,0,0,0,11.39,1.57l7,.4a1.89,1.89,0,0,0,.47,2.48,5,5,0,0,0,2.6,1,33.34,33.34,0,0,0,8.7.12,3.29,3.29,0,0,0,2-.71,1.26,1.26,0,0,0,.1-1.78l-.1-.1a2.12,2.12,0,0,0,1.92-1.39A5.68,5.68,0,0,0,1015,929c-.19-3.24-.48-8-2.19-10.83S1007.58,917.58,1005.16,918.58Z"/><path class="cls-4" d="M1079.47,890a32.42,32.42,0,0,0-7.42-4.11.89.89,0,0,0-1.34.34,76.26,76.26,0,0,0-10.93,21.07c-1.43,4.3-2.56,8.88-5.46,12.36-.38.46-1,.93-1.52.66-.75-.38-.29-1.59-.71-2.32-.52-.92-1.94-.5-2.79.13a12,12,0,0,0-3.44,4,4,4,0,0,0-.62,2.51,3.7,3.7,0,0,0,2,2.46c3.71,2.15,8.37.6,12.34-1a14.34,14.34,0,0,0,3.11-1.55c2-1.41,3.09-3.76,5.08-5.13a30.34,30.34,0,0,0,3.07-1.92c1.84-1.67,2-4.48,3.34-6.6,2.24-3.63,7.25-4.57,9.21-8.43C1085.53,898.15,1082.89,892.77,1079.47,890Z"/><path class="cls-4" d="M1023.66,690.24c7.86,5.9,11.16,16.39,10.81,26.21s-3.8,19.24-7.22,28.45q-7.35,19.77-14.68,39.53a16.57,16.57,0,0,1,1,4.5,5.54,5.54,0,0,1-1,4.42c-.46.53-1,.94-1.5,1.46-1.44,1.6-1.53,4-1.3,6.13s.72,4.33.17,6.41c-.23.89-.65,1.73-.81,2.63a2.6,2.6,0,0,0,.73,2.52c1,.8,3,.54,3.29,1.8a149.34,149.34,0,0,1,33.3,41c3.24,5.83,6.51,12.29,12.56,15.11a219.54,219.54,0,0,0-16.93,14.89c-8.45-7.4-12.66-18.17-19.56-27a62.17,62.17,0,0,0-15.58-13.93c3.27,4.81,4.16,11.41,3.83,17.22a79.55,79.55,0,0,1-1.31,8.69c-1.55,9.1-1.41,19,3.5,26.86-5.24,2.72-11.26,4.74-17.11,3.93a14.54,14.54,0,0,1-9.32-5.32c-1.66-19.44-6-38-10.79-56.87a69.27,69.27,0,0,1-2.33-11.51c-.7-8,1.43-16.9-.8-24.28a45.18,45.18,0,0,1-2-11.06v-1.19a45.21,45.21,0,0,0-.94-8.12l-4.26-18.92c-1.86-8.27-3.72-16.89-1.71-25.12a13.32,13.32,0,0,1-2.72-1.43c-1.63-.93-1.37-3.36-.63-5.08s1.73-3.67.9-5.35a13.21,13.21,0,0,0-1.51-1.91c-1.1-1.46-1.27-3.39-1.4-5.21l-.52-7.22a14.17,14.17,0,0,1,7.12,6.23c-3.94-6.1-2-14.8.91-21.46A9.78,9.78,0,0,1,975,690C991.06,687.24,1010.64,680.45,1023.66,690.24Z"/><path class="cls-5" d="M1016.35,731.3s-7.88,5.26-7.88,9.2-2,39.4-2,39.4v25s1.31,13.14,0,16.42,0,18.39,0,20.36,2-20.36,2-20.36V797.64l2-53.86Z"/><path class="cls-9" d="M972.4,549.16l-4.59-1.79c-9.38-3.76-18.77-7.53-27.85-11.94-6.6-3.21-13.29-7-17.4-13-1.32-2-2.34-4.1-3.65-6.07a48.87,48.87,0,0,0-5-5.93l-12.26-13.1c-.94,1.75.26,3.81,1.22,5.54a24,24,0,0,1,2.27,5.79,2.66,2.66,0,0,1-.07,2,3.87,3.87,0,0,1-1.67,1.18,5.87,5.87,0,0,0-2.53,6.77,7.54,7.54,0,0,0,5.66,4.88,10.61,10.61,0,0,1,2.53.61c1.48.73,2.18,2.4,3.24,3.65,1.93,2.29,5,3.16,7.92,3.9,4.54,5.17,9.25,10.12,13.79,15.29,6.86,7.82,13.88,15.78,22.84,21.08a33.45,33.45,0,0,0,10.31,4.14A167.17,167.17,0,0,1,972.4,549.16Z"/><path class="cls-10" d="M972.4,549.16l-4.59-1.79c-9.38-3.76-18.77-7.53-27.85-11.94-6.6-3.21-13.29-7-17.4-13-1.32-2-2.34-4.1-3.65-6.07a48.87,48.87,0,0,0-5-5.93l-12.26-13.1c-.94,1.75.26,3.81,1.22,5.54a24,24,0,0,1,2.27,5.79,2.66,2.66,0,0,1-.07,2,3.87,3.87,0,0,1-1.67,1.18,5.87,5.87,0,0,0-2.53,6.77,7.54,7.54,0,0,0,5.66,4.88,10.61,10.61,0,0,1,2.53.61c1.48.73,2.18,2.4,3.24,3.65,1.93,2.29,5,3.16,7.92,3.9,4.54,5.17,9.25,10.12,13.79,15.29,6.86,7.82,13.88,15.78,22.84,21.08a33.45,33.45,0,0,0,10.31,4.14A167.17,167.17,0,0,1,972.4,549.16Z"/><path class="cls-2" d="M964,575.27c-1.47-.26-3.12-.62-3.92-1.88a5.27,5.27,0,0,1-.43-3.45,96.83,96.83,0,0,1,5-22.1c2.23,4.13,6.62,6.54,10.78,8.71A80.57,80.57,0,0,0,987,561.83c-1-.32-3.45,15.06-4.83,16-1.74,1.22-5.94-.43-7.87-.76Z"/><circle class="cls-9" cx="974.65" cy="549.71" r="21.02"/><path class="cls-11" d="M970.38,567.11s13.79,11.82,7.88,19.7-9.2,13.14-1.32,13.8,34.15-13.14,34.15-13.14-24.3-19.7-20.36-31.52S970.38,567.11,970.38,567.11Z"/><path class="cls-2" d="M983.61,585.61a16.33,16.33,0,0,0-12.07,12.14c-1.55,7.08,1.74,15-1.36,21.52-1.46,3.1-4.17,5.42-6,8.33a17,17,0,0,0,1.58,19.61c1.37,1.56,3.13,3.07,3.29,5.13a18.84,18.84,0,0,1-.28,2.8c-.16,2.23.88,4.35,1.44,6.51.47,1.79.49,3.94-.55,5.38a7.79,7.79,0,0,0-1.36,5.17c.5,2.8-.67,5.59-.87,8.42-.09,1.22,0,2.44-.11,3.66a22.24,22.24,0,0,1-.72,3.43l-1.76,6.49c9.54,4.08,19.68,5.55,30,5.36,9.24-.18,18.35-2.09,27.39-4,2.75-.58,5.5-1.16,8.21-1.91-5.72-7.48-6.33-17.39-6.49-26.8a399.9,399.9,0,0,0-3.51-46.9c2.77-5.23,4-11.06,5.14-16.87a28.49,28.49,0,0,0,.64-7.13c-.28-5-2.58-9.75-4.83-14.28-2.06-4.14-4.29-8.5-8.88-10.29a7,7,0,0,0-6.83.75c-3.47,2.62-2.44,7.14-3.33,11-1.17,5-5.78,8.59-10.69,10a34.88,34.88,0,0,1-11.24,1,2,2,0,0,1-1.88-2.11,1.94,1.94,0,0,1,.46-1.17C980.61,589.12,982.23,587.31,983.61,585.61Z"/><path class="cls-9" d="M999.89,666.86c-7.78,6.36-15.65,12.78-24.63,17.28-5.27,2.64-10.87,4.59-16,7.43a6.39,6.39,0,0,0-3,2.72,6.74,6.74,0,0,0-.16,3.75l2.28,15.72c.63,4.26,4.72,7,8,9.72-.18-1.43-.47-2.54.21-3.81a12.8,12.8,0,0,1,.77-1.15c1.4-2.12,1.45-4.87,1.11-7.39s-1-5-.87-7.58a2.49,2.49,0,0,1,1.06-2.2c11.17-5.37,23.2-9.49,34.49-14.59a36.44,36.44,0,0,0,8.37-4.75,12.86,12.86,0,0,0,4.86-8.07,1.61,1.61,0,0,0-.2-1.23,1.68,1.68,0,0,0-.85-.5C1010.27,670.37,1004.93,668.68,999.89,666.86Z"/><path class="cls-5" d="M978.28,600.9c-3.86.65-7.92,2.65-9.23,6.35a14.08,14.08,0,0,0-.52,5,16.27,16.27,0,0,0,1.17,6.93,19.74,19.74,0,0,0,2.34,3.4c9.24,11.84,13.88,26.71,22.88,38.74.8,1.06,2.26,2.44,1.81,3.69a8.85,8.85,0,0,0-.43,1,2,2,0,0,0,.66,1.75,4.27,4.27,0,0,1,1.09,1.59c.17.63-.25,1.45-.9,1.4,1.08,3.34,4.39,5.29,7.53,6.87,5.22,2.63,11,4.7,16.81,4.13,1.09-4.37,2.61-9.31,2-13.76a35.81,35.81,0,0,0-3.35-9.76l-3.91-8.54c-3.33-7.29-6.69-14.63-11.33-21.16a32,32,0,0,1-4.19-6.75c-1.19-3.09-4.46-5.26-6.44-7.91-2.94-4-6-8-9.94-10.89C982.75,601.76,980.21,600.58,978.28,600.9Z"/><path class="cls-2" d="M978.28,598.93c-3.86.65-7.92,2.65-9.23,6.34a14.08,14.08,0,0,0-.52,5,16.27,16.27,0,0,0,1.17,6.93,19.74,19.74,0,0,0,2.34,3.4c9.24,11.84,13.88,26.71,22.88,38.74.8,1.06,2.26,2.44,1.81,3.69a8.85,8.85,0,0,0-.43,1,2,2,0,0,0,.66,1.75,4.27,4.27,0,0,1,1.09,1.59c.17.63-.25,1.45-.9,1.4,1.08,3.34,4.39,5.29,7.53,6.87,5.22,2.63,11,4.7,16.81,4.13,1.09-4.37,2.61-9.31,2-13.76a35.81,35.81,0,0,0-3.35-9.76l-3.91-8.54c-3.33-7.29-6.69-14.63-11.33-21.16a32.05,32.05,0,0,1-4.19-6.76c-1.19-3.08-4.46-5.25-6.44-7.9-2.94-4-6-8-9.94-10.89C982.75,599.79,980.21,598.61,978.28,598.93Z"/><path class="cls-4" d="M969.47,515.18c-2.79.24-5.66.5-8.18,1.72s-4.67,3.62-4.75,6.42c0,1.63.6,3.25.39,4.86-.35,2.68-2.84,4.49-4.12,6.86-2.24,4.12-.5,9.36,2.4,13S962,554.48,965,558.1A26,26,0,0,1,970.44,579a16.55,16.55,0,0,0-.53,4.37c.23,2.62,2,4.79,3.76,6.79a314.05,314.05,0,0,1,23.72,31.56,86.11,86.11,0,0,1,5.84,10c1.7,3.58,3,7.4,5.36,10.57a28,28,0,0,0,7.87,6.75,55.58,55.58,0,0,0,25.2,8.13l-5.15-12.77c-.91-2.27-1.85-4.66-1.55-7.09.57-4.6,5.21-7.62,6.72-12,1-2.82.55-5.93-.27-8.8-1.82-6.47-5.46-12.29-7.42-18.72a38,38,0,0,1-1.12-17.41c.43-2.56,1.13-5.13.81-7.7-1-7.82-10.12-11.56-14.36-18.19-2.74-4.26-3.27-9.51-4.19-14.49-1.33-7.27-3.7-14.53-8.28-20.33s-11.64-10-19-9.69c-3.94.15-7.71,1.52-11.42,2.86l-9.64,3.51"/><g class="cls-12"><path d="M1012.5,531.51c.83,4.49,1.35,9.2,3.45,13.21-.29-1.56-.53-3.13-.82-4.67a58.43,58.43,0,0,0-3.22-11.46C1012.16,529.56,1012.33,530.53,1012.5,531.51Z"/><path d="M1030.24,571.89a38.18,38.18,0,0,0,1.12,17.42,45,45,0,0,0,1.64,4.5,38.07,38.07,0,0,1-.13-13.38c.43-2.56,1.13-5.13.81-7.7a11.93,11.93,0,0,0-2.6-6C1030.93,568.47,1030.53,570.18,1030.24,571.89Z"/><path d="M1041.41,616.56a47.23,47.23,0,0,0-2-5.52,12.18,12.18,0,0,1-.38,5.78c-1.51,4.37-6.16,7.4-6.72,12-.3,2.43.63,4.82,1.55,7.09.34.85.68,1.71,1,2.56a10.28,10.28,0,0,1,0-1.11c.57-4.6,5.21-7.62,6.72-12C1042.66,622.54,1042.23,619.43,1041.41,616.56Z"/><path d="M1013.84,640.55a28,28,0,0,1-7.87-6.76c-2.37-3.17-3.67-7-5.37-10.57a86.11,86.11,0,0,0-5.84-10,313.71,313.71,0,0,0-23.71-31.57c-.31-.35-.61-.71-.91-1.07a10.25,10.25,0,0,0-.23,2.82c.23,2.62,2,4.79,3.76,6.79a314.05,314.05,0,0,1,23.72,31.56,86.11,86.11,0,0,1,5.84,10c1.7,3.58,3,7.4,5.36,10.57a28,28,0,0,0,7.87,6.75,55.58,55.58,0,0,0,25.2,8.13l-3.5-8.6A55.69,55.69,0,0,1,1013.84,640.55Z"/><path d="M962.39,549.6c-3-3.62-6.91-6.37-9.81-10.05-.26-.34-.51-.69-.76-1.06a14.55,14.55,0,0,0,3.39,9.59c2.9,3.69,6.83,6.44,9.81,10.06a25.47,25.47,0,0,1,3,4.56A26,26,0,0,0,962.39,549.6Z"/></g><path class="cls-13" d="M572,447l-7.25-7.29a3.85,3.85,0,0,0-5.44,0l0,0-45.53,45.11-19.26-19.4a3.84,3.84,0,0,0-5.43,0l-7.33,7.25a3.89,3.89,0,0,0,0,5.47L511,507.56a3.87,3.87,0,0,0,5.46,0L572,452.42a3.85,3.85,0,0,0,0-5.44Z"/><path class="cls-13" d="M773,447l-7.25-7.29a3.85,3.85,0,0,0-5.44,0l0,0-45.53,45.11-19.26-19.4a3.84,3.84,0,0,0-5.43,0l-7.33,7.25a3.89,3.89,0,0,0,0,5.47L712,507.56a3.87,3.87,0,0,0,5.46,0L773,452.42a3.85,3.85,0,0,0,0-5.44Z"/></svg>