<svg width="1440" height="1080" viewBox="0 0 1440 1080" fill="none" xmlns="http://www.w3.org/2000/svg">
<g clip-path="url(#clip0)">
<path opacity="0.1" d="M503.52 533.7C479.03 545.02 456.45 560.57 430.92 569.28C399.85 579.88 366.3 579.77 333.47 579.53L201 578.6C227.83 626.79 275.23 663.07 328.75 676.38C349.75 681.61 372.18 683.66 390.7 694.89C413.78 708.89 427.46 735.21 450.92 748.54C476.78 763.22 508.92 759.26 537.74 766.54C575.31 775.97 606.74 804.33 645.06 809.91C682.12 815.3 718.25 798.56 754.17 787.99C882.47 750.23 1021.08 790.56 1153.51 771.89C1158.6 771.17 1164.02 770.2 1167.7 766.62C1172.43 762.03 1172.82 754.62 1171.88 748.05C1167.16 715.31 1137.71 691.25 1106.83 679.38C1041.04 654.1 967.13 669.98 897.24 660.88C849.24 654.62 803.58 636.6 758.54 618.73C711.38 600.02 663.48 581.66 618.79 557.45C573.36 532.8 558.63 508.26 503.52 533.7Z" fill="#278AB0"/>
<path d="M918.22 707.5C918.22 707.5 920.22 737.5 916.22 742.5C916.22 742.5 1004.22 758.5 1015.22 753.5C1026.22 748.5 1021.22 740.5 1015.22 737.5C1009.22 734.5 979.22 723.5 975.22 702.5C975.22 702.5 988.22 696.5 946.22 704.5C904.22 712.5 918.22 707.5 918.22 707.5Z" fill="#DC9BA3"/>
<path opacity="0.05" d="M918.22 707.5C918.22 707.5 920.22 737.5 916.22 742.5C916.22 742.5 1004.22 758.5 1015.22 753.5C1026.22 748.5 1021.22 740.5 1015.22 737.5C1009.22 734.5 979.22 723.5 975.22 702.5C975.22 702.5 988.22 696.5 946.22 704.5C904.22 712.5 918.22 707.5 918.22 707.5Z" fill="black"/>
<path d="M575.03 289.74L574.65 289.92C556.497 298.482 540.707 311.344 528.65 327.39C521.83 336.39 513.45 344.97 505.48 346.39C487.78 349.51 357.63 484.87 388.87 610.85C420.11 736.83 602.36 742.03 602.36 742.03C602.36 742.03 641.12 748.6 663.36 761.74C668.553 764.811 674.358 766.702 680.363 767.279C686.368 767.856 692.427 767.105 698.11 765.08C724.59 755.66 768.11 742 787.73 746.2C816.88 752.45 1066.73 648.33 1066.73 648.33C1066.73 648.33 962.61 548.33 809.56 550.46C809.56 550.46 568.01 381.79 576.34 312.03L575.03 289.74Z" fill="#278AB0"/>
<path opacity="0.1" d="M575.03 289.74L574.65 289.92C556.497 298.482 540.707 311.344 528.65 327.39C521.83 336.39 513.45 344.97 505.48 346.39C487.78 349.51 357.63 484.87 388.87 610.85C420.11 736.83 602.36 742.03 602.36 742.03C602.36 742.03 641.12 748.6 663.36 761.74C668.553 764.811 674.358 766.702 680.363 767.279C686.368 767.856 692.427 767.105 698.11 765.08C724.59 755.66 768.11 742 787.73 746.2C816.88 752.45 1066.73 648.33 1066.73 648.33C1066.73 648.33 962.61 548.33 809.56 550.46C809.56 550.46 568.01 381.79 576.34 312.03L575.03 289.74Z" fill="black"/>
<path d="M575.22 289.5L550.22 313.5C550.22 313.5 531.22 350.5 514.22 353.5C497.22 356.5 372.22 486.5 402.22 607.5C432.22 728.5 607.22 733.5 607.22 733.5C607.22 733.5 643.64 739.67 665.07 752.02C670.266 755.062 676.06 756.941 682.053 757.526C688.045 758.111 694.094 757.389 699.78 755.41C725.27 746.41 766.56 733.5 785.21 737.5C813.21 743.5 1053.21 643.5 1053.21 643.5C1053.21 643.5 953.21 547.5 806.21 549.5C806.21 549.5 574.21 387.5 582.21 320.5L575.22 289.5Z" fill="#278AB0"/>
<path opacity="0.1" d="M742.503 673.311C773.3 642.515 752.817 572.1 696.754 516.037C640.69 459.973 570.276 439.49 539.479 470.287C508.682 501.084 529.165 571.498 585.229 627.562C641.292 683.625 711.707 704.108 742.503 673.311Z" fill="black"/>
<path d="M575.22 416.5C575.22 416.5 586.22 434.5 579.22 469.5C572.22 504.5 597.22 504.5 597.22 504.5H647.22L664.22 460.5L640.22 462.5C640.22 462.5 624.22 458.5 631.22 421.5L575.22 416.5Z" fill="#FFD2D9"/>
<path d="M725.22 374.5C717.57 398.85 707.98 428.5 702.86 444.32L699.22 455.5L666.22 421.5C666.22 421.5 667.67 418.13 669.84 413.41C674.67 402.95 683.08 385.88 687.22 384.5C687.22 384.5 641.22 381.5 627.22 392.5C613.22 403.5 617.22 362.5 617.22 362.5C617.22 362.5 644.22 360.5 654.22 354.5C664.22 348.5 718.22 342.5 718.22 342.5C718.22 342.5 736.22 339.5 725.22 374.5Z" fill="#FFD2D9"/>
<path opacity="0.1" d="M544.22 676.5C544.22 676.5 629.22 637.5 659.22 643.5L544.22 676.5Z" fill="black"/>
<path opacity="0.1" d="M457.22 584.5C457.22 584.5 560.22 580.5 616.22 616.5L457.22 584.5Z" fill="black"/>
<path opacity="0.1" d="M508.22 625.5C508.22 625.5 589.22 605.5 632.22 612.5L508.22 625.5Z" fill="black"/>
<path d="M1025.22 668.5L1018.22 719.5L1000.22 717.5C1000.22 717.5 999.13 716.5 997.28 714.82C992.43 710.55 982.34 702.18 972.68 697.62C969.412 695.952 965.867 694.895 962.22 694.5L982.22 664.5C987.087 666.323 992.076 667.8 997.15 668.92C1002.42 670.155 1007.82 670.793 1013.23 670.82C1017.35 670.896 1021.43 670.105 1025.22 668.5Z" fill="#FFD2D9"/>
<path d="M975.22 704.5C966.22 712.5 925.22 695.5 918.22 721.5L911.78 696.84L891.95 620.95L889.22 610.5L872.7 609.79L683.12 601.7L672.36 601.26L666.7 601.02L674.21 597.3L724.21 572.52C724.21 572.52 742.21 571.26 767.06 567.85C804.72 562.69 858.06 552.6 888.18 534.53C938.18 504.53 957.18 605.53 957.18 605.53C957.18 605.53 964.78 631.16 970.58 656.41C973.34 668.41 975.69 680.41 976.58 689.47C977.43 697.16 977.17 702.77 975.22 704.5Z" fill="#E9E9EF"/>
<path opacity="0.05" d="M975.22 704.5C966.22 712.5 925.22 695.5 918.22 721.5L911.78 696.84L891.95 620.95L889.22 610.5L872.22 609.5L689.02 598.19L677.71 597.49L674.23 597.28L669.72 597L724.22 572.5C724.22 572.5 742.22 571.24 767.07 567.83C804.73 562.67 858.07 552.58 888.19 534.51C938.19 504.51 957.19 605.51 957.19 605.51C957.19 605.51 964.79 631.14 970.59 656.39C973.35 668.39 975.7 680.39 976.59 689.45C977.43 697.16 977.17 702.77 975.22 704.5Z" fill="black"/>
<path opacity="0.1" d="M997.15 668.92L979.65 689.44L972.65 697.62C969.382 695.952 965.838 694.895 962.19 694.5L982.19 664.5C987.066 666.324 992.065 667.801 997.15 668.92Z" fill="black"/>
<path d="M996.22 666.5L976.65 689.44L967.22 700.5V703.5C955.68 706.16 919.71 698.58 911.78 696.84C910.78 696.63 910.22 696.5 910.22 696.5C887.22 697.5 802.22 647.5 802.22 647.5C802.22 647.5 709.22 663.5 664.22 659.5C639.09 657.26 632.05 648.17 630.73 640.57C630.149 636.814 630.667 632.969 632.22 629.5L672.36 601.26L677.69 597.51L686.2 591.51C686.2 591.51 700.99 588.16 719.78 584.01C749.13 577.54 788.25 569.13 796.17 568.52C809.17 567.52 842.17 578.52 861.17 600.52C864.441 603.974 868.137 606.998 872.17 609.52L872.69 609.86C878.03 613.4 884.61 617.17 891.94 621.02C916.15 633.77 948.42 647.46 970.61 656.45C985.77 662.54 996.22 666.5 996.22 666.5Z" fill="#E9E9EF"/>
<path opacity="0.1" d="M1025.22 668.5L1018.22 719.5L1000.22 717.5C1000.22 717.5 999.13 716.5 997.28 714.82C1001.28 714.91 1007.84 713.76 1009.22 705.5C1009.22 705.5 1002.29 681.25 1013.22 670.82C1017.34 670.897 1021.43 670.107 1025.22 668.5Z" fill="black"/>
<path d="M1011.22 705.5C1011.22 705.5 1001.22 670.5 1024.22 666.5L1062.22 681.5L1106.22 684.5C1106.22 684.5 1117.71 703.26 1099.29 724.26C1094.24 729.954 1088.1 734.572 1081.23 737.837C1074.35 741.101 1066.89 742.946 1059.29 743.26L1011.21 745.51L996.21 714.51C996.21 714.51 1009.22 717.5 1011.22 705.5Z" fill="#DC9BA3"/>
<path opacity="0.1" d="M767.07 567.83C762.07 569.3 741.19 575.53 719.83 583.99C709.276 588.054 698.994 592.793 689.05 598.18C686.98 599.34 685.05 600.51 683.15 601.69C677.55 605.24 673.04 608.88 670.25 612.49C657.91 628.49 639.78 637.05 630.76 640.56C630.179 636.804 630.697 632.959 632.25 629.49L672.36 601.26L666.7 601.02L674.21 597.3L669.7 597.02L724.2 572.52C724.2 572.52 742.23 571.26 767.07 567.83Z" fill="black"/>
<path opacity="0.1" d="M702.86 444.32L699.22 455.5L666.22 421.5C666.22 421.5 667.67 418.13 669.84 413.41C674.01 422.26 693.93 437.69 702.86 444.32Z" fill="black"/>
<path d="M583.8 460.93C582.62 457.54 581.756 454.049 581.22 450.5L538.22 465.5C538.22 465.5 508.72 488 511.72 537C511.72 537 548.22 523.5 564.22 539.5L564.55 542.32C567.934 570.277 580.304 596.379 599.8 616.7C607.8 625.05 615.25 634.47 619.22 643.5C619.22 643.5 647.22 635.5 664.22 613.5C681.22 591.5 762.22 568.5 762.22 568.5C762.22 568.5 719.22 569.5 713.22 554.5C707.22 539.5 687.22 507.5 694.22 482.5C701.22 457.5 705.22 449.5 705.22 449.5C705.22 449.5 664.22 420.5 667.22 411.5L641.22 441.5L629.22 445.5C630.162 447.821 630.641 450.305 630.63 452.81C631.27 480 592.91 486.54 583.8 460.93Z" fill="#CEDAD5"/>
<path d="M344.81 586.26C344.81 586.26 353.19 597.26 340.94 613.76C328.69 630.26 318.59 644.27 322.68 654.59C322.68 654.59 341.16 623.86 356.2 623.43C371.24 623 361.36 604.77 344.81 586.26Z" fill="#278AB0"/>
<path opacity="0.1" d="M344.81 586.26C345.54 587.32 346.116 588.478 346.52 589.7C361.2 606.94 369.01 623.03 354.91 623.44C341.77 623.82 326.01 647.31 322.23 653.25C322.355 653.708 322.505 654.159 322.68 654.6C322.68 654.6 341.16 623.87 356.2 623.44C371.24 623.01 361.36 604.77 344.81 586.26Z" fill="black"/>
<path d="M360.36 600.26C360.36 604.12 359.93 607.26 359.36 607.26C358.79 607.26 358.36 604.13 358.36 600.26C358.36 596.39 358.9 598.26 359.43 598.26C359.96 598.26 360.36 596.4 360.36 600.26Z" fill="#FFD037"/>
<path d="M365.73 604.87C362.34 606.72 359.39 607.87 359.14 607.36C358.89 606.85 361.42 605.01 364.81 603.17C368.2 601.33 366.86 602.67 367.12 603.17C367.38 603.67 369.12 603.02 365.73 604.87Z" fill="#FFD037"/>
<path d="M300.54 586.26C300.54 586.26 292.16 597.26 304.41 613.76C316.66 630.26 326.76 644.27 322.67 654.59C322.67 654.59 304.19 623.86 289.15 623.43C274.11 623 284 604.77 300.54 586.26Z" fill="#278AB0"/>
<path opacity="0.1" d="M300.54 586.26C299.81 587.32 299.234 588.478 298.83 589.7C284.15 606.94 276.34 623.03 290.44 623.44C303.58 623.82 319.34 647.31 323.12 653.25C322.995 653.708 322.845 654.159 322.67 654.6C322.67 654.6 304.19 623.87 289.15 623.44C274.11 623.01 284 604.77 300.54 586.26Z" fill="black"/>
<path d="M284.96 600.26C284.96 604.12 285.39 607.26 285.96 607.26C286.53 607.26 286.96 604.13 286.96 600.26C286.96 596.39 286.42 598.26 285.89 598.26C285.36 598.26 284.96 596.4 284.96 600.26Z" fill="#FFD037"/>
<path d="M279.62 604.87C283.01 606.72 285.96 607.87 286.21 607.36C286.46 606.85 283.93 605.01 280.54 603.17C277.15 601.33 278.49 602.67 278.23 603.17C277.97 603.67 276.23 603.02 279.62 604.87Z" fill="#FFD037"/>
<path d="M287.63 653.19C287.63 653.19 311.06 652.47 318.12 647.44C325.18 642.41 354.12 636.44 355.91 644.44C357.7 652.44 391.12 684.55 364.67 684.76C338.22 684.97 303.21 680.64 296.16 676.35C289.11 672.06 287.63 653.19 287.63 653.19Z" fill="#A8A8A8"/>
<path opacity="0.2" d="M365.15 681.99C338.7 682.2 303.69 677.87 296.64 673.58C291.27 670.31 289.13 658.58 288.42 653.17H287.64C287.64 653.17 289.12 672.07 296.17 676.36C303.22 680.65 338.23 684.99 364.68 684.77C372.32 684.71 374.95 681.99 374.81 677.97C373.74 680.42 370.83 681.94 365.15 681.99Z" fill="black"/>
<path d="M474.92 785.45C476.753 783.956 478.088 781.94 478.75 779.67C479.25 777.37 478.27 774.62 476.07 773.78C473.61 772.84 470.98 774.54 468.99 776.27C467 778 464.71 779.96 462.1 779.59C463.442 778.374 464.445 776.831 465.013 775.112C465.581 773.393 465.693 771.556 465.34 769.78C465.227 769.044 464.916 768.353 464.44 767.78C463.07 766.32 460.6 766.95 458.96 768.1C453.76 771.76 452.31 778.82 452.28 785.18C451.76 782.89 452.2 780.5 452.18 778.18C452.16 775.86 451.52 773.18 449.54 771.96C448.312 771.3 446.933 770.973 445.54 771.01C443.2 770.92 440.6 771.16 439 772.87C437 774.99 437.53 778.56 439.26 780.87C440.99 783.18 443.61 784.67 446.03 786.29C447.97 787.443 449.624 789.019 450.87 790.9C451.017 791.161 451.137 791.436 451.23 791.72H465.86C469.149 790.049 472.197 787.94 474.92 785.45Z" fill="#278AB0"/>
<path d="M539.92 817.26C541.753 815.766 543.088 813.75 543.75 811.48C544.25 809.18 543.27 806.43 541.07 805.59C538.61 804.65 535.98 806.35 533.99 808.08C532 809.81 529.71 811.77 527.1 811.4C528.442 810.184 529.445 808.641 530.013 806.922C530.581 805.203 530.693 803.366 530.34 801.59C530.227 800.854 529.916 800.163 529.44 799.59C528.07 798.13 525.6 798.76 523.96 799.91C518.76 803.57 517.31 810.63 517.28 816.99C516.76 814.7 517.2 812.31 517.18 809.99C517.16 807.67 516.52 804.99 514.54 803.77C513.312 803.11 511.933 802.783 510.54 802.82C508.2 802.73 505.6 802.97 504 804.68C502 806.8 502.53 810.37 504.26 812.68C505.99 814.99 508.61 816.48 511.03 818.1C512.97 819.253 514.624 820.829 515.87 822.71C516.017 822.971 516.137 823.246 516.23 823.53H530.86C534.149 821.859 537.197 819.75 539.92 817.26Z" fill="#278AB0"/>
<path d="M619.72 666C619.72 666 716.72 626 795.72 664L776.72 704L685.72 706L619.72 666Z" fill="#278AB0"/>
<path opacity="0.1" d="M629.7 434.64C630.005 430.902 630.512 427.183 631.22 423.5L575.22 418.5C575.22 418.5 579.1 421.85 580.79 434.35C587.36 438.25 595.03 443.5 603.22 443.5C612.777 443.515 622.076 440.403 629.7 434.64Z" fill="black"/>
<path d="M603.72 442C628.021 442 647.72 422.301 647.72 398C647.72 373.699 628.021 354 603.72 354C579.419 354 559.72 373.699 559.72 398C559.72 422.301 579.419 442 603.72 442Z" fill="#FFD2D9"/>
<path d="M571.22 409.5H577.22V392.5L583.22 374.5C583.22 374.5 613.22 360.5 627.22 363.5L638.22 373.5C638.22 373.5 641.22 349.5 623.22 340.5C605.22 331.5 573.22 335.5 565.22 342.5C557.22 349.5 544.22 361.5 554.22 394.5L557.22 402.5C557.22 402.5 569.22 398.5 571.22 409.5Z" fill="#844F6E"/>
<g opacity="0.05">
<path opacity="0.05" d="M648.94 432.6L652.22 431.51L667.36 414.08C667.063 413.254 667.028 412.357 667.26 411.51L648.94 432.6Z" fill="black"/>
<path opacity="0.05" d="M627.89 464.85C635.82 461.35 641.89 453.75 641.62 442.85C641.62 442.26 641.62 441.7 641.52 441.17L641.2 441.53L629.2 445.53C630.142 447.851 630.621 450.335 630.61 452.84C630.768 457.012 629.83 461.153 627.89 464.85Z" fill="black"/>
<path opacity="0.05" d="M744.54 567.68C719.48 576.4 685.54 590.13 675.22 603.5C674.97 603.83 674.71 604.14 674.45 604.5C701.91 585.67 762.22 568.5 762.22 568.5C756.316 568.562 750.413 568.288 744.54 567.68Z" fill="black"/>
<path opacity="0.05" d="M630.22 633.5C626.22 624.5 618.75 615.05 610.8 606.7C591.304 586.379 578.934 560.277 575.55 532.32L575.22 529.5C559.22 513.5 522.72 527 522.72 527C520.82 495.92 531.99 475.51 540.41 464.73L538.22 465.5C538.22 465.5 508.72 488 511.72 537C511.72 537 548.22 523.5 564.22 539.5L564.55 542.32C567.934 570.277 580.304 596.379 599.8 616.7C607.8 625.05 615.25 634.47 619.22 643.5C619.22 643.5 643.59 636.5 660.66 617.74C651.46 624.648 641.172 629.975 630.22 633.5Z" fill="black"/>
</g>
<path d="M619.22 516.5C619.22 516.5 571.22 585.5 546.22 605.5C521.22 625.5 514.22 596.5 514.22 596.5V532.5L558.22 527.5L558.69 533.57L559.22 540.5L600.22 496.5C600.22 496.5 641.22 459.5 649.22 481.5C657.22 503.5 619.22 516.5 619.22 516.5Z" fill="#FFD2D9"/>
<path opacity="0.1" d="M558.69 533.57C552.683 537.065 546.312 539.891 539.69 542C530.24 544.91 519.41 541.85 514.19 540V532.53L558.19 527.53L558.69 533.57Z" fill="black"/>
<path d="M513.72 526L511.09 536.71C511.09 536.71 526.72 544 539.72 540C552.72 536 562.72 529 564.72 528C566.72 527 556.72 516 556.72 516L513.72 526Z" fill="#CEDAD5"/>
<path opacity="0.1" d="M801.72 648C808.388 642.886 815.81 638.838 823.72 636C831.236 633.416 838.316 629.707 844.72 625" fill="black"/>
<path opacity="0.2" d="M1106.22 684.5L1104.58 684.39C1106.96 690.39 1110.4 705.18 1096.29 721.29C1091.24 726.984 1085.1 731.602 1078.23 734.867C1071.35 738.131 1063.89 739.976 1056.29 740.29L1009.72 742.47L1011.21 745.54L1059.3 743.26C1066.9 742.946 1074.36 741.101 1081.24 737.837C1088.11 734.572 1094.25 729.954 1099.3 724.26C1117.71 703.26 1106.22 684.5 1106.22 684.5Z" fill="white"/>
<path opacity="0.05" d="M879.46 736H879.31C879.44 738.36 879.67 743.23 879.71 748.58C879.75 743.88 879.6 739.26 879.46 736Z" fill="#00FF00"/>
<path opacity="0.05" d="M936.42 727.36C936.56 727.967 936.717 728.563 936.89 729.15C937.87 728.59 939.28 727.53 936.42 727.36Z" fill="#00FF00"/>
<path opacity="0.2" d="M1015.22 750.5C1004.97 755.16 927.89 741.59 917.41 739.71C917.2 740.709 916.796 741.657 916.22 742.5C916.22 742.5 1004.22 758.5 1015.22 753.5C1020.88 750.93 1022.3 747.56 1021.53 744.5C1020.95 746.63 1019.07 748.75 1015.22 750.5Z" fill="white"/>
<path opacity="0.05" d="M879.31 736.01C879.26 735.01 879.22 734.5 879.22 734.5C879.22 734.5 874.13 736.32 879.31 736.01Z" fill="#00FF00"/>
<path opacity="0.1" d="M642.64 376H581.8C579.547 376 577.72 377.827 577.72 380.08V405.92C577.72 408.173 579.547 410 581.8 410H642.64C644.893 410 646.72 408.173 646.72 405.92V380.08C646.72 377.827 644.893 376 642.64 376Z" fill="black"/>
<path opacity="0.1" d="M578.28 387H554.16C552.812 387 551.72 388.092 551.72 389.44V397.56C551.72 398.908 552.812 400 554.16 400H578.28C579.628 400 580.72 398.908 580.72 397.56V389.44C580.72 388.092 579.628 387 578.28 387Z" fill="black"/>
<path d="M642.64 375H581.8C579.547 375 577.72 376.827 577.72 379.08V404.92C577.72 407.173 579.547 409 581.8 409H642.64C644.893 409 646.72 407.173 646.72 404.92V379.08C646.72 376.827 644.893 375 642.64 375Z" fill="#7679B4"/>
<path d="M642.57 377H589.85C587.597 377 585.77 378.827 585.77 381.08V402.92C585.77 405.173 587.597 407 589.85 407H642.57C644.823 407 646.65 405.173 646.65 402.92V381.08C646.65 378.827 644.823 377 642.57 377Z" fill="#565388"/>
<path d="M578.28 386H554.16C552.812 386 551.72 387.092 551.72 388.44V396.56C551.72 397.908 552.812 399 554.16 399H578.28C579.628 399 580.72 397.908 580.72 396.56V388.44C580.72 387.092 579.628 386 578.28 386Z" fill="#565388"/>
<path opacity="0.1" d="M631.68 376.98C642.502 370.437 651.289 361.012 657.06 349.76C657.73 348.45 658.37 346.98 658 345.56C657.29 342.84 653.74 342.36 651.18 341.19C646.41 339 644.4 333.47 641.27 329.26C638.594 325.748 634.997 323.048 630.878 321.459C626.76 319.87 622.281 319.455 617.94 320.26C613.38 321.18 609.16 323.44 604.56 324.12C594.64 325.57 583.82 319.56 574.91 324.12C570.85 326.21 568.1 330.12 565.68 334.02C559.61 343.73 552 354.02 557.52 365.41C560.69 371.92 565.75 377.32 572.86 379.22C579.97 381.12 588.2 379.54 595.43 378.75C601.38 378.11 607.61 376.75 613.6 377.38C620.61 378.14 624.99 381 631.68 376.98Z" fill="black"/>
<path d="M631.68 374.98C642.502 368.437 651.289 359.012 657.06 347.76C657.73 346.45 658.37 344.98 658 343.56C657.29 340.84 653.74 340.36 651.18 339.19C646.41 337 644.4 331.47 641.27 327.26C638.594 323.748 634.997 321.048 630.878 319.459C626.76 317.87 622.281 317.455 617.94 318.26C613.38 319.18 609.16 321.44 604.56 322.12C594.64 323.57 583.82 317.56 574.91 322.12C570.85 324.21 568.1 328.12 565.68 332.02C559.61 341.73 552 352.02 557.52 363.41C560.69 369.92 565.75 375.32 572.86 377.22C579.97 379.12 588.2 377.54 595.43 376.75C601.38 376.11 607.61 374.75 613.6 375.38C620.61 376.14 624.99 379 631.68 374.98Z" fill="#844F6E"/>
<path opacity="0.2" d="M1239.71 490.25L804.72 568V334.75L1239.71 257V490.25Z" fill="#278AB0"/>
<path opacity="0.2" d="M1149.59 283.91L1230.04 270.04L1231.21 306.09L1148.63 319.9L1149.59 283.91Z" fill="#278AB0"/>
<g opacity="0.2">
<path opacity="0.1" d="M993.11 485.18C995.838 484.563 998.638 484.331 1001.43 484.49C1017.88 484.78 1034.95 486.39 1051.09 481.49C1059.66 478.91 1067.35 474.65 1076.19 472.82C1091.19 469.73 1106.19 474.24 1120.94 470.48C1123.94 469.71 1127.61 468.63 1129.74 469.79C1132.21 471.13 1130.46 474.61 1133.47 475.49C1134.42 475.608 1135.36 475.823 1136.27 476.13C1137.37 476.77 1136.68 478.13 1135.58 479C1128.89 484.43 1115.28 480.82 1106.9 485.21C1105.04 486.21 1103.64 487.47 1101.9 488.51C1099.15 489.93 1096.23 491.005 1093.21 491.71L1046.68 504.71C1035.54 507.82 1024.25 510.97 1012.73 512.34C1001.21 513.71 989.26 513.15 980.82 509.24C979.01 508.4 977.33 507.37 976.64 505.97C973.36 499.37 981.52 488.26 993.11 485.18Z" fill="#252223"/>
<path opacity="0.3" d="M952.06 393.06L990.99 423.84L1029.92 454.61L965.98 466.7L902.04 478.78L927.05 435.92L952.06 393.06Z" fill="#278AB0"/>
<path opacity="0.3" d="M992.54 385.94L1031.47 416.71L1070.4 447.49L1006.46 459.57L942.52 471.66L967.53 428.8L992.54 385.94Z" fill="#278AB0"/>
<path opacity="0.2" d="M1052.75 321.91L977.62 465.03L1120.1 437.3L1172.75 427.35L1052.75 321.91Z" fill="#278AB0"/>
<path opacity="0.1" d="M1172.75 427.35L1120.1 437.3L1052.75 321.91L1172.75 427.35Z" fill="black"/>
<path opacity="0.2" d="M1092.36 388.26C1092.11 387.328 1091.53 386.516 1090.74 385.967C1089.94 385.418 1088.98 385.167 1088.02 385.26C1088.02 385.26 1089.02 377.4 1072.82 380.57C1072.54 380.003 1072.14 379.508 1071.64 379.122C1071.14 378.736 1070.55 378.47 1069.93 378.344C1069.32 378.219 1068.68 378.237 1068.06 378.397C1067.45 378.558 1066.89 378.856 1066.41 379.27L1065.72 375.62C1065.72 375.62 1056.84 380.71 1066.25 387.97L1067.38 393.97C1067.41 394.122 1067.46 394.27 1067.52 394.41C1067.57 394.519 1067.61 394.633 1067.64 394.75C1068.07 396.5 1071.23 410.37 1064.05 415.11C1056.36 420.26 1051.96 404.39 1051.96 404.39C1046.96 383.66 1037.44 383.74 1035.18 384.07C1034.91 384.07 1034.63 384.13 1034.35 384.15C1033.29 384.21 1030 385.39 1028.74 397.34C1027.23 411.68 1021.74 408.1 1021.74 408.1C1009.43 401.39 1000.74 407.26 1000.74 407.26C979.38 419.82 997.54 443.38 1001.29 447.85C999.88 454.96 997.03 467.49 994.29 468.01C990.41 468.74 983.15 482.36 1002.81 503.54L1008.04 502.54C1008.04 502.54 991.87 481.42 1004.6 470.91C1004.32 471.684 1003.99 472.436 1003.6 473.16C996.47 485.35 1020.73 500.04 1020.73 500.04L1026.55 498.94L1013.11 482.01C1007.77 475.01 1017.73 469.29 1017.73 469.29C1029.52 459.43 1023.45 447.53 1023.45 447.53L1050.97 442.33C1047.57 449.85 1042.57 468.33 1059.19 492.67L1063.07 491.94L1059.9 462.42C1059.9 462.42 1060.9 456.07 1067.64 446.49C1070.32 458.49 1076 479.2 1084.58 487.87L1090.2 486.81C1090.2 486.81 1083.35 467.16 1083.2 459.81C1083.13 456.81 1083 453.86 1082.73 450.9L1081.33 435.42C1083.6 433.981 1085.38 431.886 1086.43 429.413C1087.49 426.939 1087.77 424.204 1087.23 421.57L1082.06 394.71C1081.99 394.332 1081.99 393.943 1082.07 393.567C1082.16 393.191 1082.32 392.836 1082.54 392.523C1082.77 392.21 1083.05 391.947 1083.38 391.749C1083.71 391.55 1084.08 391.422 1084.46 391.37L1091.09 390.47C1091.33 390.428 1091.56 390.334 1091.76 390.194C1091.95 390.055 1092.12 389.873 1092.24 389.662C1092.36 389.451 1092.44 389.216 1092.46 388.974C1092.48 388.732 1092.44 388.488 1092.36 388.26Z" fill="url(#paint0_linear)"/>
<path opacity="0.2" d="M1065.36 437.62C1065.36 437.62 1071.58 474.68 1083.75 486.96L1089.27 485.96C1089.27 485.96 1082.55 466.67 1082.37 459.48C1082.3 456.56 1082.18 453.64 1081.91 450.73L1079.65 425.73L1065.36 437.62Z" fill="#535461"/>
<path opacity="0.05" d="M1065.36 437.62C1065.36 437.62 1071.58 474.68 1083.75 486.96L1089.27 485.96C1089.27 485.96 1082.55 466.67 1082.37 459.48C1082.3 456.56 1082.18 453.64 1081.91 450.73L1079.65 425.73L1065.36 437.62Z" fill="black"/>
<path opacity="0.2" d="M1002.87 442.93C1002.87 442.93 998.87 466.74 995.09 467.46C991.31 468.18 984.15 481.55 1003.46 502.34L1008.6 501.34C1008.6 501.34 990.8 478.1 1007.73 468.59C1007.72 468.62 1010.67 448.74 1002.87 442.93Z" fill="#535461"/>
<path opacity="0.05" d="M1002.87 442.93C1002.87 442.93 998.87 466.74 995.09 467.46C991.31 468.18 984.15 481.55 1003.46 502.34L1008.6 501.34C1008.6 501.34 990.8 478.1 1007.73 468.59C1007.72 468.62 1010.67 448.74 1002.87 442.93Z" fill="black"/>
<path opacity="0.2" d="M1066.89 394.82L1065.78 388.96C1056.55 381.84 1065.26 376.84 1065.26 376.84L1066.45 383.12C1088.32 376.82 1087.15 386.3 1087.15 386.3C1088.09 386.204 1089.03 386.444 1089.81 386.976C1090.59 387.509 1091.16 388.3 1091.41 389.21C1091.49 389.439 1091.52 389.682 1091.49 389.924C1091.47 390.165 1091.39 390.397 1091.26 390.604C1091.14 390.811 1090.97 390.987 1090.76 391.12C1090.56 391.252 1090.33 391.338 1090.09 391.37L1083.58 392.26C1083.21 392.31 1082.84 392.437 1082.52 392.631C1082.2 392.826 1081.91 393.085 1081.69 393.392C1081.47 393.699 1081.32 394.048 1081.24 394.417C1081.15 394.786 1081.15 395.169 1081.22 395.54L1086.29 421.91C1086.66 423.797 1086.61 425.741 1086.15 427.608C1085.69 429.475 1084.83 431.22 1083.63 432.72C1081.75 435.03 1078.74 437.11 1073.94 437.87L1023.7 447.37C1023.7 447.37 1029.7 459.06 1018.08 468.73C1018.08 468.73 1008.3 474.32 1013.54 481.22L1026.73 497.84L1021.02 498.92C1021.02 498.92 997.21 484.5 1004.21 472.53C1006.11 468.726 1006.96 464.484 1006.68 460.242C1006.4 455.999 1004.99 451.908 1002.6 448.39C1002.6 448.39 978.2 421.47 1001.43 407.81C1001.43 407.81 1010 402.05 1022.08 408.64C1022.08 408.64 1027.47 412.15 1028.95 398.08C1030.18 386.35 1033.41 385.19 1034.45 385.13C1034.72 385.13 1034.99 385.13 1035.26 385.05C1037.48 384.73 1046.85 384.65 1051.74 405C1051.74 405 1056.06 420.54 1063.59 415.57C1070.64 410.92 1067.59 397.3 1067.12 395.57C1067.09 395.456 1067.05 395.346 1067 395.24C1066.95 395.105 1066.91 394.964 1066.89 394.82Z" fill="#535461"/>
<path opacity="0.2" d="M1052.71 438.63C1052.71 438.63 1037.25 460.08 1058.8 491.63L1062.61 490.91L1059.5 461.91C1059.5 461.91 1061.34 449.74 1078.03 433.77L1052.71 438.63Z" fill="#535461"/>
<path opacity="0.2" d="M1069.34 387.554C1071.55 387.137 1073 385.008 1072.59 382.799C1072.17 380.59 1070.04 379.138 1067.83 379.556C1065.62 379.973 1064.17 382.102 1064.59 384.31C1065.01 386.519 1067.13 387.971 1069.34 387.554Z" fill="#535461"/>
<path opacity="0.2" d="M1051.45 410.2C1056.15 403.05 1053.35 402.58 1051.53 400.7C1050.29 399.42 1039.87 398.93 1033.38 398.75C1033.24 398.25 1033.02 397.41 1032.76 396.39C1032.76 396.39 1032.24 394.51 1032 393.19H1032.41L1032.35 392.8L1040.35 392.37C1047.18 392.09 1047.51 389.37 1047.51 389.37C1047.67 384.7 1039.96 389.18 1039.96 389.18C1038.43 389.93 1034.37 389.37 1031.2 388.75C1031.11 388.087 1031.06 387.419 1031.05 386.75C1031.09 385.716 1031.02 384.68 1030.85 383.66C1030.74 382.779 1030.39 381.944 1029.85 381.24C1027.5 378.437 1024.79 375.961 1021.79 373.88C1021.61 372.115 1021.78 370.333 1022.27 368.63C1023.48 368.007 1024.46 367.011 1025.07 365.789C1025.67 364.567 1025.87 363.182 1025.63 361.84C1025.51 361.225 1025.31 360.632 1025.01 360.08C1026.44 358.18 1025.77 354.93 1023.79 353.15C1023.58 352.96 1023.35 352.789 1023.11 352.64C1021.83 351.781 1020.27 351.425 1018.74 351.64C1017.03 351.919 1015.41 352.582 1014 353.58C1012.31 354.7 1010.67 356.12 1008.65 356.34C1007.19 356.5 1005.65 356 1004.28 356.45C1002.47 357.03 1001.54 358.96 1000.96 360.73C1000.38 362.5 999.82 364.45 998.25 365.51C996.88 366.43 995.11 366.42 993.5 366.81C992.376 367.047 991.327 367.556 990.446 368.294C989.566 369.032 988.88 369.975 988.45 371.04C988.133 371.999 988.14 373.036 988.468 373.992C988.797 374.947 989.43 375.769 990.27 376.33C990.534 376.524 990.824 376.682 991.13 376.8C991.472 376.906 991.807 377.036 992.13 377.19C992.219 377.255 992.294 377.337 992.35 377.432C992.407 377.526 992.444 377.631 992.46 377.74C992.465 378.013 992.407 378.283 992.29 378.53C992.104 379.081 992.034 379.665 992.084 380.245C992.133 380.825 992.302 381.388 992.58 381.9C992.765 382.273 993.053 382.586 993.41 382.8C993.51 382.884 993.621 382.955 993.74 383.01C994.91 383.52 996.36 382.37 997.52 382.89H997.61C998.061 383.378 998.45 383.918 998.77 384.5C999.044 384.843 999.384 385.129 999.77 385.34C1000.79 386.007 1002.02 386.27 1003.22 386.08C1004.75 385.786 1006.2 385.202 1007.51 384.36C1009.28 383.36 1011.21 381.97 1011.35 379.99C1011.43 378.78 1010.8 377.61 1010.95 376.41C1011.03 375.837 1011.26 375.295 1011.62 374.84C1011.42 375.854 1011.35 376.889 1011.41 377.92C1011.45 378.756 1011.55 379.589 1011.71 380.41C1012.09 382.557 1012.86 384.614 1013.99 386.48C1015.51 388.908 1016.62 391.566 1017.28 394.35C1017.52 395.577 1017.54 396.836 1017.34 398.07C1016.7 401.65 1016.77 403.19 1016.95 403.84C1017.06 404.72 1017.35 404.73 1017.35 404.73H1017.42C1017.45 405.337 1017.61 405.93 1017.87 406.475C1018.14 407.02 1018.52 407.505 1018.98 407.9C1028.03 411.64 1046.44 406.34 1046.44 406.34C1042.72 407.65 1040.06 417.84 1040.06 417.84C1039.65 420.058 1038.73 422.149 1037.36 423.94C1035.36 423.64 1033 425.88 1031.22 427.19L1031.07 427.29C1030.9 427.408 1030.75 427.563 1030.64 427.742C1030.53 427.922 1030.46 428.122 1030.44 428.331C1030.42 428.539 1030.44 428.751 1030.5 428.951C1030.56 429.15 1030.67 429.334 1030.81 429.49L1037.89 437.25C1041.97 440.14 1044.32 440.33 1044.98 439.51C1045.41 438.97 1045.12 438.01 1044.12 437.08C1041.7 434.83 1042.05 427.53 1042.12 426.91C1043.23 424.41 1047.5 416.21 1051.45 410.2Z" fill="url(#paint1_linear)"/>
<path opacity="0.2" d="M1022.84 367.71C1022.84 367.71 1020.78 372.44 1022.14 376.51L1014.47 372.44C1014.47 372.44 1016.91 371.78 1016.4 365.97L1022.84 367.71Z" fill="#F9D5C6"/>
<path opacity="0.2" d="M1027.98 399.06C1027.98 399.06 1048.33 399.35 1050.06 401.19C1051.79 403.03 1054.44 403.52 1050.06 410.46C1045.68 417.4 1040.84 427.38 1040.84 427.38L1035.66 425.01C1037.54 423.025 1038.78 420.525 1039.23 417.83C1039.23 417.83 1041.69 407.9 1045.23 406.65C1045.23 406.65 1027.86 411.71 1019.23 408.01C1019.23 408.01 1016.93 406.28 1018 402.53C1019.07 398.78 1027.98 399.06 1027.98 399.06Z" fill="#353535"/>
<path opacity="0.1" d="M1016.68 372.62C1016.68 372.62 1011.6 371.37 1011.97 379.16C1012.12 381.983 1012.95 384.729 1014.39 387.16C1016.04 389.98 1018.39 394.83 1017.7 398.86C1016.7 404.96 1017.7 404.97 1017.7 404.97L1020.3 403.39C1023.8 401.251 1027.83 400.11 1031.93 400.09H1033.14C1033.14 400.09 1030.7 391.33 1030.65 387.45C1030.65 385.61 1030.65 383.9 1029.54 382.45C1026.07 377.97 1019.11 372.61 1016.68 372.62Z" fill="black"/>
<path opacity="0.2" d="M1016.61 372.26C1016.61 372.26 1011.53 371.01 1011.9 378.8C1012.05 381.623 1012.88 384.369 1014.32 386.8C1015.97 389.62 1018.32 394.47 1017.63 398.5C1016.63 404.6 1017.63 404.61 1017.63 404.61L1020.23 403.03C1023.73 400.891 1027.75 399.75 1031.86 399.73H1033.07C1033.07 399.73 1030.63 390.97 1030.58 387.09C1030.58 385.25 1030.58 383.54 1029.47 382.09C1026 377.59 1019.04 372.26 1016.61 372.26Z" fill="#409CD6"/>
<path opacity="0.1" d="M1014.72 378.5C1014.93 377.925 1015.28 377.412 1015.74 377.007C1016.2 376.603 1016.75 376.32 1017.35 376.185C1017.95 376.049 1018.57 376.066 1019.16 376.233C1019.75 376.4 1020.28 376.712 1020.72 377.14C1021.5 377.964 1022.13 378.927 1022.56 379.98C1024.97 385.44 1026.8 388.84 1026.8 388.84C1028.35 389.07 1029.88 389.424 1031.37 389.9C1031.6 391.77 1031.9 393.71 1031.9 393.71L1025.41 394.03L1016.52 383.49C1016.52 383.49 1013.81 381.26 1014.72 378.5Z" fill="black"/>
<path opacity="0.2" d="M1014.64 378.11C1014.85 377.535 1015.2 377.022 1015.66 376.617C1016.12 376.213 1016.67 375.93 1017.27 375.795C1017.87 375.659 1018.49 375.676 1019.08 375.843C1019.67 376.01 1020.2 376.322 1020.64 376.75C1021.42 377.574 1022.05 378.537 1022.48 379.59C1024.89 385.05 1026.72 388.45 1026.72 388.45C1026.72 388.45 1036.49 391.14 1039.01 389.87C1039.01 389.87 1046.27 385.54 1046.15 390.1C1046.15 390.1 1045.86 392.72 1039.4 392.95L1025.34 393.64L1016.45 383.1C1016.45 383.1 1013.74 380.83 1014.64 378.11Z" fill="#F9D5C6"/>
<path opacity="0.1" d="M1015.81 368.54C1016 367.63 1016.43 367.98 1016.29 366.38L1022.73 368.12C1022.46 368.77 1022.24 369.439 1022.07 370.12C1021.43 370.341 1020.75 370.466 1020.07 370.49C1018.65 370.77 1017.02 369.21 1015.81 368.54Z" fill="black"/>
<path opacity="0.2" d="M1020.38 370.396C1023.75 369.761 1025.96 366.518 1025.32 363.153C1024.69 359.788 1021.45 357.576 1018.08 358.212C1014.72 358.848 1012.5 362.091 1013.14 365.455C1013.78 368.82 1017.02 371.032 1020.38 370.396Z" fill="#F9D5C6"/>
<path opacity="0.1" d="M1021.77 362.82C1020.67 362.88 1019.47 362.53 1018.54 363.11C1017.61 363.69 1017.34 365.28 1017.54 366.52C1017.74 367.76 1018.26 369.01 1017.97 370.24C1017.58 371.85 1015.97 372.84 1014.57 373.69C1013.17 374.54 1011.57 375.69 1011.42 377.31C1011.29 378.48 1011.89 379.63 1011.82 380.81C1011.7 382.74 1009.89 384.07 1008.21 385.05C1007 385.855 1005.64 386.416 1004.21 386.7C1003.48 386.829 1002.73 386.764 1002.04 386.511C1001.35 386.258 1000.73 385.827 1000.26 385.26C999.81 384.64 999.54 383.81 998.84 383.49C997.74 382.97 996.37 384.09 995.27 383.59C994.883 383.385 994.574 383.058 994.39 382.66C994.126 382.16 993.964 381.612 993.914 381.049C993.865 380.486 993.928 379.919 994.1 379.38C994.207 379.138 994.259 378.875 994.25 378.61C994.16 377.98 993.39 377.77 992.79 377.54C991.803 377.068 991.021 376.252 990.59 375.246C990.16 374.239 990.11 373.11 990.45 372.07C990.835 371.044 991.472 370.131 992.302 369.414C993.132 368.698 994.128 368.201 995.2 367.97C996.72 367.59 998.4 367.61 999.68 366.73C1001.16 365.73 1001.68 363.8 1002.21 362.08C1002.74 360.36 1003.61 358.48 1005.32 357.93C1006.64 357.5 1008.07 357.99 1009.45 357.85C1011.36 357.65 1012.9 356.27 1014.45 355.19C1015.77 354.225 1017.3 353.585 1018.92 353.32C1019.73 353.195 1020.56 353.246 1021.34 353.47C1022.13 353.695 1022.86 354.087 1023.48 354.62C1026.24 357.13 1026.41 362.57 1021.77 362.82Z" fill="black"/>
<path opacity="0.2" d="M1021.54 362.67C1020.44 362.73 1019.24 362.38 1018.31 362.96C1017.38 363.54 1017.11 365.13 1017.31 366.37C1017.51 367.61 1018.03 368.86 1017.74 370.09C1017.35 371.7 1015.74 372.69 1014.34 373.54C1012.94 374.39 1011.34 375.54 1011.19 377.16C1011.06 378.33 1011.66 379.48 1011.59 380.66C1011.47 382.59 1009.66 383.92 1007.98 384.9C1006.77 385.705 1005.41 386.266 1003.98 386.55C1003.26 386.68 1002.51 386.617 1001.82 386.368C1001.13 386.118 1000.51 385.692 1000.04 385.13C999.59 384.51 999.32 383.68 998.62 383.36C997.52 382.84 996.15 383.96 995.05 383.46C994.663 383.255 994.353 382.928 994.17 382.53C993.906 382.03 993.744 381.482 993.694 380.919C993.645 380.356 993.708 379.789 993.88 379.25C993.987 379.008 994.039 378.745 994.03 378.48C993.94 377.85 993.17 377.64 992.57 377.41C991.583 376.938 990.801 376.122 990.37 375.116C989.94 374.109 989.89 372.98 990.23 371.94C990.615 370.914 991.252 370.001 992.082 369.284C992.912 368.568 993.908 368.071 994.98 367.84C996.5 367.46 998.18 367.48 999.46 366.6C1000.94 365.6 1001.46 363.67 1001.99 361.95C1002.52 360.23 1003.39 358.35 1005.1 357.8C1006.42 357.37 1007.85 357.86 1009.23 357.72C1011.14 357.52 1012.68 356.14 1014.23 355.06C1015.55 354.095 1017.08 353.455 1018.7 353.19C1019.51 353.065 1020.34 353.116 1021.12 353.34C1021.91 353.565 1022.64 353.957 1023.26 354.49C1026.01 356.98 1026.18 362.41 1021.54 362.67Z" fill="#2F302F"/>
<path opacity="0.1" d="M1023.36 378.35C1023.36 378.35 1015.36 378.87 1016.04 384.46C1016.72 390.05 1013.26 378.09 1013.26 378.09L1016.37 374.74L1020.81 375.28L1023.36 378.35Z" fill="black"/>
<path opacity="0.2" d="M1023.15 378.19C1023.15 378.19 1015.15 378.71 1015.83 384.3C1016.51 389.89 1013.05 377.93 1013.05 377.93L1016.16 374.58L1020.6 375.12L1023.15 378.19Z" fill="#409CD6"/>
<path opacity="0.2" d="M1030.53 429.11L1037.27 436.72C1041.15 439.56 1043.37 439.72 1043.99 438.97C1044.39 438.45 1044.11 437.51 1043.16 436.6C1040.75 434.3 1041.16 426.6 1041.16 426.6C1040.21 426.63 1039.26 426.368 1038.46 425.85C1037.66 425.332 1037.04 424.582 1036.67 423.7C1034.76 423.4 1032.56 425.57 1030.88 426.83L1030.74 426.93C1030.57 427.052 1030.43 427.207 1030.33 427.387C1030.23 427.567 1030.16 427.766 1030.14 427.973C1030.12 428.179 1030.15 428.387 1030.21 428.583C1030.28 428.779 1030.39 428.959 1030.53 429.11Z" fill="#409CD6"/>
<path opacity="0.1" d="M1041.17 426.62C1041.17 426.62 1037.33 427.15 1036.68 423.72C1037.06 424.592 1037.69 425.333 1038.49 425.849C1039.29 426.365 1040.22 426.634 1041.17 426.62Z" fill="black"/>
<path opacity="0.1" d="M1030.53 429.11L1037.27 436.72C1041.15 439.56 1043.37 439.72 1043.99 438.97C1042.05 438.37 1036.56 435.97 1030.9 426.86L1030.76 426.96C1030.6 427.08 1030.46 427.233 1030.36 427.409C1030.25 427.586 1030.19 427.782 1030.17 427.984C1030.15 428.187 1030.17 428.391 1030.23 428.585C1030.29 428.779 1030.39 428.958 1030.53 429.11Z" fill="black"/>
<path opacity="0.2" d="M920.19 488.67C920.19 488.67 902.36 504.61 942.99 516.26C942.99 516.26 948.29 499.54 936.92 488.88C934.71 486.8 931.815 485.602 928.781 485.513C925.748 485.425 922.787 486.452 920.46 488.4L920.19 488.67Z" fill="#278AB0"/>
<path opacity="0.2" d="M920.36 488.37C920.36 488.37 940.09 498.26 942.99 516.26" stroke="#535461" stroke-miterlimit="10"/>
<path opacity="0.2" d="M941.87 516.43C941.87 516.43 931.52 496.21 936.03 479.04C937.977 471.833 937.528 464.189 934.75 457.26C933.41 453.987 931.773 450.844 929.86 447.87" stroke="#535461" stroke-width="2" stroke-miterlimit="10"/>
<path opacity="0.2" d="M932.64 437.08C933.14 439.7 929.82 448.21 929.82 448.21C929.82 448.21 923.63 441.5 923.14 438.88C922.901 437.62 923.173 436.317 923.895 435.258C924.617 434.198 925.73 433.469 926.99 433.23C928.25 432.991 929.553 433.263 930.612 433.985C931.672 434.707 932.401 435.82 932.64 437.08Z" fill="#278AB0"/>
<path opacity="0.2" d="M943.24 450.13C942.24 452.6 934.83 457.94 934.83 457.94C934.83 457.94 933.28 448.94 934.29 446.47C934.53 445.879 934.885 445.341 935.333 444.887C935.781 444.433 936.314 444.072 936.902 443.824C937.49 443.576 938.121 443.446 938.759 443.442C939.397 443.438 940.029 443.56 940.62 443.8C941.211 444.04 941.749 444.395 942.203 444.843C942.657 445.291 943.018 445.824 943.266 446.412C943.514 447 943.644 447.631 943.648 448.269C943.652 448.907 943.53 449.539 943.29 450.13H943.24Z" fill="#278AB0"/>
<path opacity="0.2" d="M947.59 475.03C945.47 476.65 936.38 477.53 936.38 477.53C936.38 477.53 939.59 468.98 941.7 467.36C942.717 466.58 944.002 466.237 945.273 466.404C946.543 466.572 947.695 467.238 948.475 468.255C949.255 469.272 949.599 470.557 949.431 471.828C949.263 473.099 948.597 474.25 947.58 475.03H947.59Z" fill="#278AB0"/>
<path opacity="0.2" d="M946.64 494.61C944.83 496.61 936.02 498.96 936.02 498.96C936.02 498.96 937.73 489.96 939.55 488.04C939.981 487.574 940.5 487.198 941.077 486.933C941.654 486.668 942.277 486.52 942.911 486.495C943.545 486.471 944.178 486.572 944.773 486.793C945.369 487.013 945.914 487.349 946.38 487.78C946.846 488.211 947.222 488.73 947.487 489.307C947.752 489.884 947.9 490.507 947.924 491.141C947.949 491.775 947.848 492.408 947.627 493.003C947.407 493.598 947.071 494.144 946.64 494.61Z" fill="#278AB0"/>
<path opacity="0.2" d="M924.95 460.33C927.18 461.8 936.3 462.04 936.3 462.04C936.3 462.04 932.51 453.74 930.3 452.26C929.77 451.91 929.176 451.668 928.553 451.547C927.93 451.427 927.288 451.43 926.666 451.557C926.044 451.685 925.453 451.933 924.927 452.289C924.401 452.644 923.95 453.1 923.6 453.63C923.25 454.16 923.008 454.753 922.887 455.377C922.767 456 922.77 456.642 922.897 457.264C923.025 457.886 923.273 458.477 923.629 459.003C923.984 459.529 924.44 459.98 924.97 460.33H924.95Z" fill="#278AB0"/>
<path opacity="0.2" d="M924.13 483.26C926.7 484 935.47 481.49 935.47 481.49C935.47 481.49 929.37 474.7 926.8 473.96C925.568 473.606 924.246 473.756 923.124 474.377C922.003 474.997 921.174 476.038 920.82 477.27C920.466 478.502 920.616 479.824 921.237 480.946C921.857 482.067 922.898 482.896 924.13 483.25V483.26Z" fill="#278AB0"/>
<path opacity="0.2" d="M926.36 505.63C928.76 506.79 937.84 505.81 937.84 505.81C937.84 505.81 932.97 498.09 930.57 496.93C929.415 496.372 928.085 496.295 926.874 496.717C925.663 497.139 924.668 498.025 924.11 499.18C923.552 500.335 923.475 501.665 923.897 502.876C924.319 504.088 925.205 505.082 926.36 505.64V505.63Z" fill="#278AB0"/>
<path opacity="0.25" d="M932.64 437.08C933.14 439.7 929.82 448.21 929.82 448.21C929.82 448.21 923.63 441.5 923.14 438.88C922.901 437.62 923.173 436.317 923.895 435.258C924.617 434.198 925.73 433.469 926.99 433.23C928.25 432.991 929.553 433.263 930.612 433.985C931.672 434.707 932.401 435.82 932.64 437.08Z" fill="black"/>
<path opacity="0.25" d="M943.24 450.13C942.24 452.6 934.83 457.94 934.83 457.94C934.83 457.94 933.28 448.94 934.29 446.47C934.53 445.879 934.885 445.341 935.333 444.887C935.781 444.433 936.314 444.072 936.902 443.824C937.49 443.576 938.121 443.446 938.759 443.442C939.397 443.438 940.029 443.56 940.62 443.8C941.211 444.04 941.749 444.395 942.203 444.843C942.657 445.291 943.018 445.824 943.266 446.412C943.514 447 943.644 447.631 943.648 448.269C943.652 448.907 943.53 449.539 943.29 450.13H943.24Z" fill="black"/>
<path opacity="0.25" d="M947.59 475.03C945.47 476.65 936.38 477.53 936.38 477.53C936.38 477.53 939.59 468.98 941.7 467.36C942.717 466.58 944.002 466.237 945.273 466.404C946.543 466.572 947.695 467.238 948.475 468.255C949.255 469.272 949.599 470.557 949.431 471.828C949.263 473.099 948.597 474.25 947.58 475.03H947.59Z" fill="black"/>
<path opacity="0.25" d="M946.64 494.61C944.83 496.61 936.02 498.96 936.02 498.96C936.02 498.96 937.73 489.96 939.55 488.04C939.981 487.574 940.5 487.198 941.077 486.933C941.654 486.668 942.277 486.52 942.911 486.495C943.545 486.471 944.178 486.572 944.773 486.793C945.369 487.013 945.914 487.349 946.38 487.78C946.846 488.211 947.222 488.73 947.487 489.307C947.752 489.884 947.9 490.507 947.924 491.141C947.949 491.775 947.848 492.408 947.627 493.003C947.407 493.598 947.071 494.144 946.64 494.61Z" fill="black"/>
<path opacity="0.25" d="M924.95 460.33C927.18 461.8 936.3 462.04 936.3 462.04C936.3 462.04 932.51 453.74 930.3 452.26C929.77 451.91 929.176 451.668 928.553 451.547C927.93 451.427 927.288 451.43 926.666 451.557C926.044 451.685 925.453 451.933 924.927 452.289C924.401 452.644 923.95 453.1 923.6 453.63C923.25 454.16 923.008 454.753 922.887 455.377C922.767 456 922.77 456.642 922.897 457.264C923.025 457.886 923.273 458.477 923.629 459.003C923.984 459.529 924.44 459.98 924.97 460.33H924.95Z" fill="black"/>
<path opacity="0.25" d="M924.13 483.26C926.7 484 935.47 481.49 935.47 481.49C935.47 481.49 929.37 474.7 926.8 473.96C925.568 473.606 924.246 473.756 923.124 474.377C922.003 474.997 921.174 476.038 920.82 477.27C920.466 478.502 920.616 479.824 921.237 480.946C921.857 482.067 922.898 482.896 924.13 483.25V483.26Z" fill="black"/>
<path opacity="0.25" d="M926.36 505.63C928.76 506.79 937.84 505.81 937.84 505.81C937.84 505.81 932.97 498.09 930.57 496.93C929.415 496.372 928.085 496.295 926.874 496.717C925.663 497.139 924.668 498.025 924.11 499.18C923.552 500.335 923.475 501.665 923.897 502.876C924.319 504.088 925.205 505.082 926.36 505.64V505.63Z" fill="black"/>
<path opacity="0.2" d="M961.36 520.26C961.36 520.26 951.01 500.04 955.52 482.87C957.459 475.68 957.014 468.055 954.25 461.14C952.91 457.867 951.273 454.724 949.36 451.75" stroke="#535461" stroke-width="2" stroke-miterlimit="10"/>
<path opacity="0.2" d="M952.17 440.9C952.67 443.52 949.35 452.03 949.35 452.03C949.35 452.03 943.16 445.32 942.67 442.7C942.431 441.44 942.703 440.137 943.425 439.078C944.147 438.018 945.26 437.289 946.52 437.05C947.78 436.811 949.083 437.083 950.142 437.805C951.202 438.527 951.931 439.64 952.17 440.9Z" fill="#278AB0"/>
<path opacity="0.2" d="M962.77 453.95C961.77 456.42 954.36 461.76 954.36 461.76C954.36 461.76 952.81 452.76 953.82 450.29C954.305 449.096 955.245 448.145 956.432 447.644C957.619 447.143 958.956 447.135 960.15 447.62C961.343 448.105 962.295 449.045 962.796 450.232C963.297 451.419 963.305 452.756 962.82 453.95H962.77Z" fill="#278AB0"/>
<path opacity="0.2" d="M967.12 478.85C965 480.47 955.91 481.35 955.91 481.35C955.91 481.35 959.12 472.8 961.23 471.18C962.247 470.4 963.532 470.057 964.803 470.224C966.073 470.392 967.225 471.058 968.005 472.075C968.785 473.092 969.128 474.377 968.961 475.648C968.793 476.918 968.127 478.07 967.11 478.85H967.12Z" fill="#278AB0"/>
<path opacity="0.2" d="M966.17 498.43C964.36 500.43 955.55 502.78 955.55 502.78C955.55 502.78 957.26 493.78 959.08 491.86C959.951 490.92 961.16 490.364 962.441 490.316C963.722 490.267 964.97 490.729 965.91 491.6C966.85 492.471 967.406 493.68 967.455 494.961C967.503 496.242 967.041 497.49 966.17 498.43Z" fill="#278AB0"/>
<path opacity="0.2" d="M944.48 464.15C946.71 465.62 955.83 465.86 955.83 465.86C955.83 465.86 952.04 457.56 949.83 456.08C949.3 455.73 948.706 455.488 948.083 455.367C947.46 455.247 946.818 455.25 946.196 455.377C945.574 455.505 944.983 455.753 944.457 456.109C943.931 456.464 943.48 456.92 943.13 457.45C942.78 457.98 942.538 458.574 942.417 459.197C942.297 459.821 942.3 460.462 942.427 461.084C942.555 461.706 942.803 462.297 943.159 462.823C943.514 463.349 943.97 463.8 944.5 464.15H944.48Z" fill="#278AB0"/>
<path opacity="0.2" d="M943.66 487.07C946.23 487.81 955 485.3 955 485.3C955 485.3 948.9 478.51 946.33 477.77C945.098 477.416 943.776 477.566 942.654 478.187C941.533 478.807 940.704 479.848 940.35 481.08C939.996 482.312 940.146 483.634 940.766 484.756C941.387 485.877 942.428 486.706 943.66 487.06V487.07Z" fill="#278AB0"/>
<path opacity="0.2" d="M945.92 509.45C948.32 510.61 957.4 509.63 957.4 509.63C957.4 509.63 952.53 501.91 950.13 500.75C949.558 500.474 948.937 500.312 948.303 500.276C947.669 500.239 947.034 500.328 946.434 500.537C945.834 500.746 945.281 501.071 944.807 501.494C944.333 501.916 943.946 502.428 943.67 503C943.394 503.572 943.232 504.193 943.196 504.827C943.159 505.461 943.248 506.096 943.457 506.696C943.666 507.296 943.991 507.849 944.414 508.323C944.836 508.797 945.348 509.184 945.92 509.46V509.45Z" fill="#278AB0"/>
<path opacity="0.1" d="M1002.68 335.46L1000.92 335.79C1001.25 335.728 1001.53 335.538 1001.72 335.264C1001.91 334.989 1001.98 334.651 1001.91 334.325C1001.85 333.999 1001.66 333.711 1001.39 333.524C1001.11 333.337 1000.78 333.268 1000.45 333.33L986.2 336.02C985.874 336.082 985.586 336.272 985.399 336.546C985.212 336.821 985.143 337.159 985.205 337.485C985.267 337.811 985.457 338.099 985.731 338.286C986.006 338.472 986.344 338.542 986.67 338.48L988.43 338.15C988.268 338.181 988.115 338.243 987.977 338.334C987.84 338.424 987.721 338.54 987.629 338.676C987.537 338.812 987.472 338.965 987.439 339.126C987.405 339.287 987.404 339.453 987.435 339.615C987.466 339.777 987.528 339.93 987.619 340.068C987.709 340.205 987.825 340.324 987.961 340.416C988.097 340.508 988.25 340.573 988.411 340.606C988.572 340.64 988.738 340.641 988.9 340.61L986.44 341.08C986.114 341.142 985.826 341.332 985.639 341.606C985.452 341.881 985.383 342.219 985.445 342.545C985.507 342.871 985.697 343.159 985.971 343.346C986.246 343.532 986.584 343.602 986.91 343.54L1001.16 340.85C1001.32 340.819 1001.48 340.757 1001.61 340.666C1001.75 340.576 1001.87 340.46 1001.96 340.324C1002.05 340.188 1002.12 340.035 1002.15 339.874C1002.18 339.713 1002.19 339.547 1002.15 339.385C1002.12 339.223 1002.06 339.07 1001.97 338.932C1001.88 338.795 1001.76 338.676 1001.63 338.584C1001.49 338.492 1001.34 338.427 1001.18 338.394C1001.02 338.36 1000.85 338.359 1000.69 338.39L1003.15 337.92C1003.31 337.889 1003.47 337.827 1003.6 337.736C1003.74 337.646 1003.86 337.53 1003.95 337.394C1004.04 337.258 1004.11 337.105 1004.14 336.944C1004.17 336.783 1004.18 336.617 1004.14 336.455C1004.11 336.293 1004.05 336.14 1003.96 336.002C1003.87 335.865 1003.75 335.746 1003.62 335.654C1003.48 335.562 1003.33 335.497 1003.17 335.464C1003.01 335.43 1002.84 335.429 1002.68 335.46Z" fill="#252223"/>
<path opacity="0.1" d="M976.87 359.93L975.11 360.26C975.271 360.229 975.425 360.167 975.563 360.077C975.7 359.986 975.818 359.87 975.911 359.734C976.003 359.598 976.068 359.445 976.101 359.284C976.135 359.123 976.136 358.957 976.105 358.795C976.074 358.634 976.012 358.48 975.921 358.342C975.831 358.205 975.715 358.087 975.579 357.994C975.442 357.902 975.29 357.837 975.129 357.804C974.968 357.77 974.802 357.769 974.64 357.8L960.36 360.49C960.034 360.552 959.746 360.742 959.559 361.017C959.372 361.291 959.303 361.629 959.365 361.955C959.427 362.281 959.617 362.569 959.891 362.756C960.166 362.943 960.504 363.012 960.83 362.95L962.59 362.62C962.428 362.651 962.275 362.713 962.137 362.804C962 362.894 961.881 363.01 961.789 363.146C961.697 363.283 961.632 363.435 961.599 363.596C961.565 363.758 961.564 363.924 961.595 364.085C961.626 364.247 961.688 364.4 961.779 364.538C961.869 364.675 961.985 364.794 962.121 364.886C962.257 364.978 962.41 365.043 962.571 365.076C962.732 365.11 962.898 365.111 963.06 365.08L960.6 365.55C960.438 365.581 960.285 365.643 960.147 365.734C960.01 365.824 959.891 365.94 959.799 366.077C959.707 366.213 959.642 366.365 959.609 366.526C959.575 366.688 959.574 366.854 959.605 367.015C959.636 367.177 959.698 367.33 959.789 367.468C959.879 367.605 959.995 367.724 960.131 367.816C960.267 367.908 960.42 367.973 960.581 368.006C960.742 368.04 960.908 368.041 961.07 368.01L975.36 365.32C975.521 365.289 975.675 365.227 975.813 365.137C975.95 365.046 976.068 364.93 976.161 364.794C976.253 364.658 976.318 364.505 976.351 364.344C976.385 364.183 976.386 364.017 976.355 363.855C976.324 363.694 976.262 363.54 976.171 363.402C976.081 363.265 975.965 363.147 975.829 363.054C975.692 362.962 975.54 362.897 975.379 362.864C975.218 362.83 975.052 362.829 974.89 362.86L977.35 362.39C977.511 362.359 977.665 362.297 977.803 362.207C977.94 362.116 978.058 362 978.151 361.864C978.243 361.728 978.308 361.575 978.341 361.414C978.375 361.253 978.376 361.087 978.345 360.925C978.314 360.764 978.252 360.61 978.161 360.472C978.071 360.335 977.955 360.217 977.819 360.124C977.682 360.032 977.53 359.967 977.369 359.934C977.208 359.9 977.042 359.899 976.88 359.93H976.87Z" fill="#252223"/>
<path opacity="0.1" d="M1122.64 328.67L1120.88 329C1121.04 328.969 1121.2 328.907 1121.33 328.817C1121.47 328.726 1121.59 328.61 1121.68 328.474C1121.77 328.338 1121.84 328.185 1121.87 328.024C1121.9 327.863 1121.91 327.697 1121.87 327.535C1121.84 327.374 1121.78 327.22 1121.69 327.082C1121.6 326.945 1121.48 326.827 1121.35 326.734C1121.21 326.642 1121.06 326.577 1120.9 326.544C1120.74 326.51 1120.57 326.509 1120.41 326.54L1106.17 329.26C1105.84 329.322 1105.56 329.512 1105.37 329.787C1105.18 330.061 1105.11 330.399 1105.17 330.725C1105.24 331.051 1105.43 331.339 1105.7 331.526C1105.98 331.713 1106.31 331.782 1106.64 331.72L1108.4 331.39C1108.24 331.421 1108.08 331.483 1107.95 331.574C1107.81 331.664 1107.69 331.78 1107.6 331.917C1107.51 332.053 1107.44 332.205 1107.41 332.366C1107.38 332.528 1107.37 332.694 1107.4 332.855C1107.44 333.017 1107.5 333.17 1107.59 333.308C1107.68 333.445 1107.8 333.564 1107.93 333.656C1108.07 333.748 1108.22 333.813 1108.38 333.846C1108.54 333.88 1108.71 333.881 1108.87 333.85L1106.36 334.26C1106.03 334.322 1105.75 334.512 1105.56 334.787C1105.37 335.061 1105.3 335.399 1105.36 335.725C1105.43 336.051 1105.62 336.339 1105.89 336.526C1106.17 336.713 1106.5 336.782 1106.83 336.72L1121.08 334.03C1121.24 333.999 1121.4 333.937 1121.53 333.847C1121.67 333.756 1121.79 333.64 1121.88 333.504C1121.97 333.368 1122.04 333.215 1122.07 333.054C1122.1 332.893 1122.11 332.727 1122.07 332.565C1122.04 332.404 1121.98 332.25 1121.89 332.112C1121.8 331.975 1121.68 331.857 1121.55 331.764C1121.41 331.672 1121.26 331.607 1121.1 331.574C1120.94 331.54 1120.77 331.539 1120.61 331.57L1123.07 331.1C1123.23 331.069 1123.39 331.007 1123.52 330.917C1123.66 330.826 1123.78 330.71 1123.87 330.574C1123.96 330.438 1124.03 330.285 1124.06 330.124C1124.09 329.963 1124.1 329.797 1124.06 329.635C1124.03 329.474 1123.97 329.32 1123.88 329.182C1123.79 329.045 1123.67 328.927 1123.54 328.834C1123.4 328.742 1123.25 328.677 1123.09 328.644C1122.93 328.61 1122.76 328.609 1122.6 328.64L1122.64 328.67Z" fill="#252223"/>
<path opacity="0.3" d="M934.763 372.851C941.965 371.491 946.7 364.55 945.339 357.348C943.978 350.147 937.037 345.412 929.836 346.773C922.634 348.134 917.9 355.075 919.26 362.276C920.621 369.477 927.562 374.212 934.763 372.851Z" fill="#278AB0"/>
<path opacity="0.05" d="M1011.48 428.45C1011.48 428.45 1018.15 434.34 1021.26 439.57C1024.37 444.8 1023.38 446.57 1023.38 446.57" fill="black"/>
</g>
</g>
<defs>
<linearGradient id="paint0_linear" x1="1052.38" y1="494.207" x2="1031.23" y2="382.267" gradientUnits="userSpaceOnUse">
<stop stop-color="#808080" stop-opacity="0.25"/>
<stop offset="0.54" stop-color="#808080" stop-opacity="0.12"/>
<stop offset="1" stop-color="#808080" stop-opacity="0.1"/>
</linearGradient>
<linearGradient id="paint1_linear" x1="60242.7" y1="31311.2" x2="60242.7" y2="23235.8" gradientUnits="userSpaceOnUse">
<stop stop-color="#808080" stop-opacity="0.25"/>
<stop offset="0.54" stop-color="#808080" stop-opacity="0.12"/>
<stop offset="1" stop-color="#808080" stop-opacity="0.1"/>
</linearGradient>
<clipPath id="clip0">
<rect width="1038.72" height="566.52" fill="white" transform="translate(201 257)"/>
</clipPath>
</defs>
</svg>
