<svg id="Layer_1" data-name="Layer 1" xmlns="http://www.w3.org/2000/svg" xmlns:xlink="http://www.w3.org/1999/xlink" viewBox="0 0 1440 1080"><defs><style>.cls-1,.cls-18,.cls-21,.cls-4{fill:#278ab0;}.cls-1,.cls-20,.cls-5{opacity:0.1;}.cls-1,.cls-11,.cls-14,.cls-15,.cls-18,.cls-20,.cls-21,.cls-3,.cls-31,.cls-5{isolation:isolate;}.cls-2{fill:#dc9ba3;}.cls-13,.cls-15,.cls-3{opacity:0.05;}.cls-6{fill:#ffd2d9;}.cls-7{fill:#e9e9ef;}.cls-8{fill:#cedad5;}.cls-9{fill:#ffd037;}.cls-10{fill:#a8a8a8;}.cls-11,.cls-14,.cls-18,.cls-19{opacity:0.2;}.cls-12{fill:#844f6e;}.cls-14{fill:#fff;}.cls-15{fill:lime;}.cls-16{fill:#7679b4;}.cls-17{fill:#565388;}.cls-20{fill:#252223;}.cls-21{opacity:0.3;}.cls-22{fill:url(#linear-gradient);}.cls-23{fill:#535461;}.cls-24{fill:url(#linear-gradient-2);}.cls-25{fill:#f9d5c6;}.cls-26{fill:#353535;}.cls-27{fill:#409cd6;}.cls-28{fill:#2f302f;}.cls-29,.cls-30{fill:none;stroke:#535461;stroke-miterlimit:10;}.cls-30{stroke-width:2px;}.cls-31{opacity:0.25;}</style><linearGradient id="linear-gradient" x1="1061.45" y1="387.06" x2="1061.45" y2="501.08" gradientTransform="matrix(0.98, -0.19, -0.19, -0.98, 81.3, 1071.57)" gradientUnits="userSpaceOnUse"><stop offset="0" stop-color="gray" stop-opacity="0.25"/><stop offset="0.54" stop-color="gray" stop-opacity="0.12"/><stop offset="1" stop-color="gray" stop-opacity="0.1"/></linearGradient><linearGradient id="linear-gradient-2" x1="1050.32" y1="441.9" x2="1050.32" y2="533.37" xlink:href="#linear-gradient"/></defs><title>momentum</title><path class="cls-1" d="M503.52,533.7C479,545,456.45,560.57,430.92,569.28c-31.07,10.6-64.62,10.49-97.45,10.25L201,578.6c26.83,48.19,74.23,84.47,127.75,97.78,21,5.23,43.43,7.28,61.95,18.51,23.08,14,36.76,40.32,60.22,53.65,25.86,14.68,58,10.72,86.82,18,37.57,9.43,69,37.79,107.32,43.37,37.06,5.39,73.19-11.35,109.11-21.92,128.3-37.76,266.91,2.57,399.34-16.1,5.09-.72,10.51-1.69,14.19-5.27,4.73-4.59,5.12-12,4.18-18.57-4.72-32.74-34.17-56.8-65.05-68.67-65.79-25.28-139.7-9.4-209.59-18.5-48-6.26-93.66-24.28-138.7-42.15-47.16-18.71-95.06-37.07-139.75-61.28C573.36,532.8,558.63,508.26,503.52,533.7Z"/><path class="cls-2" d="M918.22,707.5s2,30-2,35c0,0,88,16,99,11s6-13,0-16-36-14-40-35c0,0,13-6-29,2S918.22,707.5,918.22,707.5Z"/><path class="cls-3" d="M918.22,707.5s2,30-2,35c0,0,88,16,99,11s6-13,0-16-36-14-40-35c0,0,13-6-29,2S918.22,707.5,918.22,707.5Z"/><path class="cls-4" d="M575,289.74l-.38.18a123.36,123.36,0,0,0-46,37.47c-6.82,9-15.2,17.58-23.17,19-17.7,3.12-147.85,138.48-116.61,264.46S602.36,742,602.36,742s38.76,6.57,61,19.71a41.13,41.13,0,0,0,34.75,3.34c26.48-9.42,70-23.08,89.62-18.88,29.15,6.25,279-97.87,279-97.87s-104.12-100-257.17-97.87c0,0-241.55-168.67-233.22-238.43Z"/><path class="cls-5" d="M575,289.74l-.38.18a123.36,123.36,0,0,0-46,37.47c-6.82,9-15.2,17.58-23.17,19-17.7,3.12-147.85,138.48-116.61,264.46S602.36,742,602.36,742s38.76,6.57,61,19.71a41.13,41.13,0,0,0,34.75,3.34c26.48-9.42,70-23.08,89.62-18.88,29.15,6.25,279-97.87,279-97.87s-104.12-100-257.17-97.87c0,0-241.55-168.67-233.22-238.43Z"/><path class="cls-4" d="M575.22,289.5l-25,24s-19,37-36,40-142,133-112,254,205,126,205,126,36.42,6.17,57.85,18.52a41.59,41.59,0,0,0,34.71,3.39c25.49-9,66.78-21.91,85.43-17.91,28,6,268-94,268-94s-100-96-247-94c0,0-232-162-224-229Z"/><ellipse class="cls-5" cx="640.99" cy="571.8" rx="78.86" ry="143.56" transform="translate(-216.58 620.73) rotate(-45)"/><path class="cls-6" d="M575.22,416.5s11,18,4,53,18,35,18,35h50l17-44-24,2s-16-4-9-41Z"/><path class="cls-6" d="M725.22,374.5c-7.65,24.35-17.24,54-22.36,69.82l-3.64,11.18-33-34s1.45-3.37,3.62-8.09c4.83-10.46,13.24-27.53,17.38-28.91,0,0-46-3-60,8s-10-30-10-30,27-2,37-8,64-12,64-12S736.22,339.5,725.22,374.5Z"/><path class="cls-5" d="M544.22,676.5s85-39,115-33"/><path class="cls-5" d="M457.22,584.5s103-4,159,32"/><path class="cls-5" d="M508.22,625.5s81-20,124-13"/><path class="cls-6" d="M1025.22,668.5l-7,51-18-2-2.94-2.68c-4.85-4.27-14.94-12.64-24.6-17.2a30,30,0,0,0-10.46-3.12l20-30a111.15,111.15,0,0,0,14.93,4.42,72,72,0,0,0,16.08,1.9A29.19,29.19,0,0,0,1025.22,668.5Z"/><path class="cls-7" d="M975.22,704.5c-9,8-50-9-57,17l-6.44-24.66L892,621l-2.73-10.45-16.52-.71L683.12,601.7l-10.76-.44L666.7,601l7.51-3.72,50-24.78s18-1.26,42.85-4.67h0c37.66-5.16,91-15.25,121.12-33.32,50-30,69,71,69,71s7.6,25.63,13.4,50.88c2.76,12,5.11,24,6,33.06C977.43,697.16,977.17,702.77,975.22,704.5Z"/><path class="cls-3" d="M975.22,704.5c-9,8-50-9-57,17l-6.44-24.66L892,621l-2.73-10.45-17-1L689,598.19l-11.31-.7-3.48-.21-4.51-.28,54.5-24.5s18-1.26,42.85-4.67h0c37.66-5.16,91-15.25,121.12-33.32,50-30,69,71,69,71s7.6,25.63,13.4,50.88c2.76,12,5.11,24,6,33.06C977.43,697.16,977.17,702.77,975.22,704.5Z"/><path class="cls-5" d="M997.15,668.92l-17.5,20.52-7,8.18a30,30,0,0,0-10.46-3.12l20-30A111.56,111.56,0,0,0,997.15,668.92Z"/><path class="cls-7" d="M996.22,666.5l-19.57,22.94-9.43,11.06v3c-11.54,2.66-47.51-4.92-55.44-6.66l-1.56-.34c-23,1-108-49-108-49s-93,16-138,12c-25.13-2.24-32.17-11.33-33.49-18.93a19.75,19.75,0,0,1,1.49-11.07l40.14-28.24,5.33-3.75,8.51-6s14.79-3.35,33.58-7.5h0c29.35-6.47,68.47-14.88,76.39-15.49,13-1,46,10,65,32a56.29,56.29,0,0,0,11,9l.52.34c5.34,3.54,11.92,7.31,19.25,11.16,24.21,12.75,56.48,26.44,78.67,35.43C985.77,662.54,996.22,666.5,996.22,666.5Z"/><path class="cls-5" d="M1025.22,668.5l-7,51-18-2-2.94-2.68c4,.09,10.56-1.06,11.94-9.32,0,0-6.93-24.25,4-34.68A29.24,29.24,0,0,0,1025.22,668.5Z"/><path class="cls-2" d="M1011.22,705.5s-10-35,13-39l38,15,44,3s11.49,18.76-6.93,39.76a56.54,56.54,0,0,1-40,19l-48.08,2.25-15-31S1009.22,717.5,1011.22,705.5Z"/><path class="cls-5" d="M767.07,567.83c-5,1.47-25.88,7.7-47.24,16.16h0a262,262,0,0,0-30.78,14.19c-2.07,1.16-4,2.33-5.9,3.51-5.6,3.55-10.11,7.19-12.9,10.8-12.34,16-30.47,24.56-39.49,28.07a19.75,19.75,0,0,1,1.49-11.07l40.11-28.23L666.7,601l7.51-3.72L669.7,597l54.5-24.5S742.23,571.26,767.07,567.83Z"/><path class="cls-5" d="M702.86,444.32l-3.64,11.18-33-34s1.45-3.37,3.62-8.09C674,422.26,693.93,437.69,702.86,444.32Z"/><path class="cls-8" d="M583.8,460.93a58.45,58.45,0,0,1-2.58-10.43l-43,15s-29.5,22.5-26.5,71.5c0,0,36.5-13.5,52.5,2.5l.33,2.82A129.94,129.94,0,0,0,599.8,616.7c8,8.35,15.45,17.77,19.42,26.8,0,0,28-8,45-30s98-45,98-45-43,1-49-14-26-47-19-72,11-33,11-33-41-29-38-38l-26,30-12,4a19.25,19.25,0,0,1,1.41,7.31C631.27,480,592.91,486.54,583.8,460.93Z"/><path class="cls-4" d="M344.81,586.26s8.38,11-3.87,27.5-22.35,30.51-18.26,40.83c0,0,18.48-30.73,33.52-31.16S361.36,604.77,344.81,586.26Z"/><path class="cls-5" d="M344.81,586.26a13.48,13.48,0,0,1,1.71,3.44C361.2,606.94,369,623,354.91,623.44c-13.14.38-28.9,23.87-32.68,29.81a10.68,10.68,0,0,0,.45,1.35s18.48-30.73,33.52-31.16S361.36,604.77,344.81,586.26Z"/><path class="cls-9" d="M360.36,600.26c0,3.86-.43,7-1,7s-1-3.13-1-7,.54-2,1.07-2S360.36,596.4,360.36,600.26Z"/><path class="cls-9" d="M365.73,604.87c-3.39,1.85-6.34,3-6.59,2.49s2.28-2.35,5.67-4.19,2.05-.5,2.31,0S369.12,603,365.73,604.87Z"/><path class="cls-4" d="M300.54,586.26s-8.38,11,3.87,27.5,22.35,30.51,18.26,40.83c0,0-18.48-30.73-33.52-31.16S284,604.77,300.54,586.26Z"/><path class="cls-5" d="M300.54,586.26a13.48,13.48,0,0,0-1.71,3.44c-14.68,17.24-22.49,33.33-8.39,33.74,13.14.38,28.9,23.87,32.68,29.81a10.68,10.68,0,0,1-.45,1.35s-18.48-30.73-33.52-31.16S284,604.77,300.54,586.26Z"/><path class="cls-9" d="M285,600.26c0,3.86.43,7,1,7s1-3.13,1-7-.54-2-1.07-2S285,596.4,285,600.26Z"/><path class="cls-9" d="M279.62,604.87c3.39,1.85,6.34,3,6.59,2.49s-2.28-2.35-5.67-4.19-2.05-.5-2.31,0S276.23,603,279.62,604.87Z"/><path class="cls-10" d="M287.63,653.19s23.43-.72,30.49-5.75,36-11,37.79-3,35.21,40.11,8.76,40.32-61.46-4.12-68.51-8.41S287.63,653.19,287.63,653.19Z"/><path class="cls-11" d="M365.15,682c-26.45.21-61.46-4.12-68.51-8.41-5.37-3.27-7.51-15-8.22-20.41h-.78s1.48,18.9,8.53,23.19,42.06,8.63,68.51,8.41c7.64-.06,10.27-2.78,10.13-6.8C373.74,680.42,370.83,681.94,365.15,682Z"/><path class="cls-4" d="M474.92,785.45a11.66,11.66,0,0,0,3.83-5.78c.5-2.3-.48-5-2.68-5.89-2.46-.94-5.09.76-7.08,2.49s-4.28,3.69-6.89,3.32a10.47,10.47,0,0,0,3.24-9.81,4,4,0,0,0-.9-2c-1.37-1.46-3.84-.83-5.48.32-5.2,3.66-6.65,10.72-6.68,17.08-.52-2.29-.08-4.68-.1-7s-.66-5-2.64-6.22a8,8,0,0,0-4-1c-2.34-.09-4.94.15-6.54,1.86-2,2.12-1.47,5.69.26,8s4.35,3.8,6.77,5.42a15,15,0,0,1,4.84,4.61,4.26,4.26,0,0,1,.36.82h14.63A40.71,40.71,0,0,0,474.92,785.45Z"/><path class="cls-4" d="M539.92,817.26a11.66,11.66,0,0,0,3.83-5.78c.5-2.3-.48-5.05-2.68-5.89-2.46-.94-5.09.76-7.08,2.49s-4.28,3.69-6.89,3.32a10.47,10.47,0,0,0,3.24-9.81,4,4,0,0,0-.9-2c-1.37-1.46-3.84-.83-5.48.32-5.2,3.66-6.65,10.72-6.68,17.08-.52-2.29-.08-4.68-.1-7s-.66-5-2.64-6.22a8,8,0,0,0-4-.95c-2.34-.09-4.94.15-6.54,1.86-2,2.12-1.47,5.69.26,8s4.35,3.8,6.77,5.42a15,15,0,0,1,4.84,4.61,4.26,4.26,0,0,1,.36.82h14.63A40.71,40.71,0,0,0,539.92,817.26Z"/><path class="cls-4" d="M619.72,666s97-40,176-2l-19,40-91,2Z"/><path class="cls-5" d="M629.7,434.64a101.77,101.77,0,0,1,1.52-11.14l-56-5s3.88,3.35,5.57,15.85c6.57,3.9,14.24,9.15,22.43,9.15A43.84,43.84,0,0,0,629.7,434.64Z"/><circle class="cls-6" cx="603.72" cy="398" r="44"/><path class="cls-12" d="M571.22,409.5h6v-17l6-18s30-14,44-11l11,10s3-24-15-33-50-5-58,2-21,19-11,52l3,8S569.22,398.5,571.22,409.5Z"/><g class="cls-13"><path d="M648.94,432.6l3.28-1.09,15.14-17.43a4.26,4.26,0,0,1-.1-2.57Z"/><path d="M627.89,464.85c7.93-3.5,14-11.1,13.73-22a9.15,9.15,0,0,0-.1-1.68l-.32.36-12,4a19.25,19.25,0,0,1,1.41,7.31A23.89,23.89,0,0,1,627.89,464.85Z"/><path d="M744.54,567.68c-25.06,8.72-59,22.45-69.32,35.82-.25.33-.51.64-.77,1,27.46-18.83,87.77-36,87.77-36A155.82,155.82,0,0,1,744.54,567.68Z"/><path d="M630.22,633.5c-4-9-11.47-18.45-19.42-26.8a129.94,129.94,0,0,1-35.25-74.38l-.33-2.82c-16-16-52.5-2.5-52.5-2.5-1.9-31.08,9.27-51.49,17.69-62.27l-2.19.77s-29.5,22.5-26.5,71.5c0,0,36.5-13.5,52.5,2.5l.33,2.82A129.94,129.94,0,0,0,599.8,616.7c8,8.35,15.45,17.77,19.42,26.8,0,0,24.37-7,41.44-25.76A103.61,103.61,0,0,1,630.22,633.5Z"/></g><path class="cls-6" d="M619.22,516.5s-48,69-73,89-32-9-32-9v-64l44-5,.47,6.07.53,6.93,41-44s41-37,49-15S619.22,516.5,619.22,516.5Z"/><path class="cls-5" d="M558.69,533.57a95.74,95.74,0,0,1-19,8.43c-9.45,2.91-20.28-.15-25.5-2v-7.47l44-5Z"/><path class="cls-8" d="M513.72,526l-2.63,10.71S526.72,544,539.72,540s23-11,25-12-8-12-8-12Z"/><path class="cls-5" d="M801.72,648a81.41,81.41,0,0,1,22-12,78.3,78.3,0,0,0,21-11"/><path class="cls-14" d="M1106.22,684.5l-1.64-.11c2.38,6,5.82,20.79-8.29,36.9a56.54,56.54,0,0,1-40,19l-46.57,2.18,1.49,3.07,48.09-2.28a56.54,56.54,0,0,0,40-19C1117.71,703.26,1106.22,684.5,1106.22,684.5Z"/><path class="cls-15" d="M879.46,736h-.15c.13,2.36.36,7.23.4,12.58C879.75,743.88,879.6,739.26,879.46,736Z"/><path class="cls-15" d="M936.42,727.36c.14.61.3,1.2.47,1.79C937.87,728.59,939.28,727.53,936.42,727.36Z"/><path class="cls-14" d="M1015.22,750.5c-10.25,4.66-87.33-8.91-97.81-10.79a7.68,7.68,0,0,1-1.19,2.79s88,16,99,11c5.66-2.57,7.08-5.94,6.31-9C1021,746.63,1019.07,748.75,1015.22,750.5Z"/><path class="cls-15" d="M879.31,736c0-1-.09-1.51-.09-1.51S874.13,736.32,879.31,736Z"/><rect class="cls-5" x="577.72" y="376" width="69" height="34" rx="4.08"/><rect class="cls-5" x="551.72" y="387" width="29" height="13" rx="2.44"/><rect class="cls-16" x="577.72" y="375" width="69" height="34" rx="4.08"/><rect class="cls-17" x="585.77" y="377" width="60.88" height="30" rx="4.08"/><rect class="cls-17" x="551.72" y="386" width="29" height="13" rx="2.44"/><path class="cls-5" d="M631.68,377a68.15,68.15,0,0,0,25.38-27.22c.67-1.31,1.31-2.78.94-4.2-.71-2.72-4.26-3.2-6.82-4.37-4.77-2.19-6.78-7.72-9.91-11.93a23.87,23.87,0,0,0-23.33-9c-4.56.92-8.78,3.18-13.38,3.86-9.92,1.45-20.74-4.56-29.65,0-4.06,2.09-6.81,6-9.23,9.9-6.07,9.71-13.68,20-8.16,31.39,3.17,6.51,8.23,11.91,15.34,13.81s15.34.32,22.57-.47c6-.64,12.18-2,18.17-1.37C620.61,378.14,625,381,631.68,377Z"/><path class="cls-12" d="M631.68,375a68.15,68.15,0,0,0,25.38-27.22c.67-1.31,1.31-2.78.94-4.2-.71-2.72-4.26-3.2-6.82-4.37-4.77-2.19-6.78-7.72-9.91-11.93a23.87,23.87,0,0,0-23.33-9c-4.56.92-8.78,3.18-13.38,3.86-9.92,1.45-20.74-4.56-29.65,0-4.06,2.09-6.81,6-9.23,9.9-6.07,9.71-13.68,20-8.16,31.39,3.17,6.51,8.23,11.91,15.34,13.81s15.34.32,22.57-.47c6-.64,12.18-2,18.17-1.37C620.61,376.14,625,379,631.68,375Z"/><polygon class="cls-18" points="1239.71 490.25 804.72 568 804.72 334.75 1239.71 257 1239.71 490.25"/><polygon class="cls-18" points="1149.59 283.91 1230.04 270.04 1231.21 306.09 1148.63 319.9 1149.59 283.91"/><g class="cls-19"><path class="cls-20" d="M993.11,485.18a29.85,29.85,0,0,1,8.32-.69c16.45.29,33.52,1.9,49.66-3,8.57-2.58,16.26-6.84,25.1-8.67,15-3.09,30,1.42,44.75-2.34,3-.77,6.67-1.85,8.8-.69,2.47,1.34.72,4.82,3.73,5.7a14.2,14.2,0,0,1,2.8.64c1.1.64.41,2-.69,2.87-6.69,5.43-20.3,1.82-28.68,6.21-1.86,1-3.26,2.26-5,3.3a37.78,37.78,0,0,1-8.69,3.2l-46.53,13c-11.14,3.11-22.43,6.26-34,7.63s-23.47.81-31.91-3.1c-1.81-.84-3.49-1.87-4.18-3.27C973.36,499.37,981.52,488.26,993.11,485.18Z"/><polygon class="cls-21" points="952.06 393.06 990.99 423.84 1029.92 454.61 965.98 466.7 902.04 478.78 927.05 435.92 952.06 393.06"/><polygon class="cls-21" points="992.54 385.94 1031.47 416.71 1070.4 447.49 1006.46 459.57 942.52 471.66 967.53 428.8 992.54 385.94"/><polygon class="cls-4" points="1052.75 321.91 977.62 465.03 1120.1 437.3 1172.75 427.35 1052.75 321.91"/><polygon class="cls-5" points="1172.75 427.35 1120.1 437.3 1052.75 321.91 1172.75 427.35"/><path class="cls-22" d="M1092.36,388.26a4.1,4.1,0,0,0-4.34-3s1-7.86-15.2-4.69a4.12,4.12,0,0,0-5.53-1.88,3.94,3.94,0,0,0-.88.58l-.69-3.65s-8.88,5.09.53,12.35l1.13,6a2.25,2.25,0,0,0,.14.44,2,2,0,0,1,.12.34c.43,1.75,3.59,15.62-3.59,20.36-7.69,5.15-12.09-10.72-12.09-10.72-5-20.73-14.52-20.65-16.78-20.32-.27,0-.55.06-.83.08-1.06.06-4.35,1.24-5.61,13.19-1.51,14.34-7,10.76-7,10.76-12.31-6.71-21-.84-21-.84-21.36,12.56-3.2,36.12.55,40.59-1.41,7.11-4.26,19.64-7,20.16-3.88.73-11.14,14.35,8.52,35.53l5.23-1s-16.17-21.12-3.44-31.63a16.75,16.75,0,0,1-1,2.25c-7.13,12.19,17.13,26.88,17.13,26.88l5.82-1.1L1013.11,482c-5.34-7,4.62-12.72,4.62-12.72,11.79-9.86,5.72-21.76,5.72-21.76l27.52-5.2c-3.4,7.52-8.4,26,8.22,50.34l3.88-.73-3.17-29.52s1-6.35,7.74-15.93c2.68,12,8.36,32.71,16.94,41.38l5.62-1.06s-6.85-19.65-7-27c-.07-3-.2-5.95-.47-8.91l-1.4-15.48a13.27,13.27,0,0,0,5.9-13.85l-5.17-26.86a2.82,2.82,0,0,1,2.24-3.31l.16,0,6.63-.9a1.66,1.66,0,0,0,1.35-1.92A2.45,2.45,0,0,0,1092.36,388.26Z"/><path class="cls-23" d="M1065.36,437.62s6.22,37.06,18.39,49.34l5.52-1s-6.72-19.29-6.9-26.48c-.07-2.92-.19-5.84-.46-8.75l-2.26-25Z"/><path class="cls-3" d="M1065.36,437.62s6.22,37.06,18.39,49.34l5.52-1s-6.72-19.29-6.9-26.48c-.07-2.92-.19-5.84-.46-8.75l-2.26-25Z"/><path class="cls-23" d="M1002.87,442.93s-4,23.81-7.78,24.53-10.94,14.09,8.37,34.88l5.14-1s-17.8-23.24-.87-32.75C1007.72,468.62,1010.67,448.74,1002.87,442.93Z"/><path class="cls-3" d="M1002.87,442.93s-4,23.81-7.78,24.53-10.94,14.09,8.37,34.88l5.14-1s-17.8-23.24-.87-32.75C1007.72,468.62,1010.67,448.74,1002.87,442.93Z"/><path class="cls-23" d="M1066.89,394.82l-1.11-5.86c-9.23-7.12-.52-12.12-.52-12.12l1.19,6.28c21.87-6.3,20.7,3.18,20.7,3.18a4,4,0,0,1,4.26,2.91,1.63,1.63,0,0,1-1,2.08,1.32,1.32,0,0,1-.33.08l-6.51.89a2.79,2.79,0,0,0-2.39,3.13l0,.15,5.07,26.37a13.23,13.23,0,0,1-2.66,10.81c-1.88,2.31-4.89,4.39-9.69,5.15l-50.24,9.5s6,11.69-5.62,21.36c0,0-9.78,5.59-4.54,12.49l13.19,16.62-5.71,1.08s-23.81-14.42-16.81-26.39a23.94,23.94,0,0,0-1.61-24.14s-24.4-26.92-1.17-40.58c0,0,8.57-5.76,20.65.83,0,0,5.39,3.51,6.87-10.56,1.23-11.73,4.46-12.89,5.5-12.95a2.79,2.79,0,0,0,.81-.08c2.22-.32,11.59-.4,16.48,19.95,0,0,4.32,15.54,11.85,10.57,7.05-4.65,4-18.27,3.53-20a2.19,2.19,0,0,0-.12-.33h0A2.17,2.17,0,0,1,1066.89,394.82Z"/><path class="cls-23" d="M1052.71,438.63s-15.46,21.45,6.09,53l3.81-.72-3.11-29s1.84-12.17,18.53-28.14Z"/><circle class="cls-23" cx="1068.59" cy="383.55" r="4.07"/><path class="cls-24" d="M1051.45,410.2c4.7-7.15,1.9-7.62.08-9.5-1.24-1.28-11.66-1.77-18.15-1.95-.14-.5-.36-1.34-.62-2.36,0,0-.52-1.88-.76-3.2h.41l-.06-.39,8-.43c6.83-.28,7.16-3,7.16-3,.16-4.67-7.55-.19-7.55-.19-1.53.75-5.59.19-8.76-.43a16.67,16.67,0,0,1-.15-2,15.24,15.24,0,0,0-.2-3.09,5,5,0,0,0-1-2.42,41.12,41.12,0,0,0-8.06-7.36,13.9,13.9,0,0,1,.48-5.25,6.37,6.37,0,0,0,3.36-6.79,6.47,6.47,0,0,0-.62-1.76c1.43-1.9.76-5.15-1.22-6.93a4.83,4.83,0,0,0-.68-.51,6.3,6.3,0,0,0-4.37-1,11.36,11.36,0,0,0-4.74,1.94c-1.69,1.12-3.33,2.54-5.35,2.76-1.46.16-3-.34-4.37.11-1.81.58-2.74,2.51-3.32,4.28s-1.14,3.72-2.71,4.78c-1.37.92-3.14.91-4.75,1.3a7,7,0,0,0-5,4.23,4.62,4.62,0,0,0,1.82,5.29,3.76,3.76,0,0,0,.86.47,8.63,8.63,0,0,1,1,.39.82.82,0,0,1,.33.55,1.81,1.81,0,0,1-.17.79,4.22,4.22,0,0,0,.29,3.37,2.12,2.12,0,0,0,.83.9,1.85,1.85,0,0,0,.33.21c1.17.51,2.62-.64,3.78-.12h.09a8.33,8.33,0,0,1,1.16,1.61,3.25,3.25,0,0,0,1,.84,4.89,4.89,0,0,0,3.45.74,12.13,12.13,0,0,0,4.29-1.72c1.77-1,3.7-2.39,3.84-4.37.08-1.21-.55-2.38-.4-3.58a3.29,3.29,0,0,1,.67-1.57,12.23,12.23,0,0,0-.21,3.08,17.28,17.28,0,0,0,.3,2.49,17.66,17.66,0,0,0,2.28,6.07,26.3,26.3,0,0,1,3.29,7.87,10.57,10.57,0,0,1,.06,3.72c-.64,3.58-.57,5.12-.39,5.77.11.88.4.89.4.89h.07a4.47,4.47,0,0,0,1.56,3.17c9,3.74,27.46-1.56,27.46-1.56-3.72,1.31-6.38,11.5-6.38,11.5a14.3,14.3,0,0,1-2.7,6.1h0c-2-.3-4.36,1.94-6.14,3.25l-.15.1a1.46,1.46,0,0,0-.38,2,1,1,0,0,0,.12.16l7.08,7.76c4.08,2.89,6.43,3.08,7.09,2.26.43-.54.14-1.5-.86-2.43-2.42-2.25-2.07-9.55-2-10.17A154.19,154.19,0,0,1,1051.45,410.2Z"/><path class="cls-25" d="M1022.84,367.71s-2.06,4.73-.7,8.8l-7.67-4.07s2.44-.66,1.93-6.47Z"/><path class="cls-26" d="M1028,399.06s20.35.29,22.08,2.13,4.38,2.33,0,9.27-9.22,16.92-9.22,16.92l-5.18-2.37a13.69,13.69,0,0,0,3.57-7.18s2.46-9.93,6-11.18c0,0-17.37,5.06-26,1.36,0,0-2.3-1.73-1.23-5.48S1028,399.06,1028,399.06Z"/><path class="cls-5" d="M1016.68,372.62s-5.08-1.25-4.71,6.54a17.53,17.53,0,0,0,2.42,8c1.65,2.82,4,7.67,3.31,11.7-1,6.1,0,6.11,0,6.11l2.6-1.58a22.5,22.5,0,0,1,11.63-3.3h1.21s-2.44-8.76-2.49-12.64c0-1.84,0-3.55-1.11-5C1026.07,378,1019.11,372.61,1016.68,372.62Z"/><path class="cls-27" d="M1016.61,372.26s-5.08-1.25-4.71,6.54a17.53,17.53,0,0,0,2.42,8c1.65,2.82,4,7.67,3.31,11.7-1,6.1,0,6.11,0,6.11l2.6-1.58a22.5,22.5,0,0,1,11.63-3.3h1.21s-2.44-8.76-2.49-12.64c0-1.84,0-3.55-1.11-5C1026,377.59,1019,372.26,1016.61,372.26Z"/><path class="cls-5" d="M1014.72,378.5a3.65,3.65,0,0,1,4.69-2.18,3.59,3.59,0,0,1,1.31.82,9.19,9.19,0,0,1,1.84,2.84c2.41,5.46,4.24,8.86,4.24,8.86a28.58,28.58,0,0,1,4.57,1.06c.23,1.87.53,3.81.53,3.81l-6.49.32-8.89-10.54S1013.81,381.26,1014.72,378.5Z"/><path class="cls-25" d="M1014.64,378.11a3.65,3.65,0,0,1,4.69-2.18,3.59,3.59,0,0,1,1.31.82,9.19,9.19,0,0,1,1.84,2.84c2.41,5.46,4.24,8.86,4.24,8.86s9.77,2.69,12.29,1.42c0,0,7.26-4.33,7.14.23,0,0-.29,2.62-6.75,2.85l-14.06.69-8.89-10.54S1013.74,380.83,1014.64,378.11Z"/><path class="cls-5" d="M1015.81,368.54c.19-.91.62-.56.48-2.16l6.44,1.74a14.19,14.19,0,0,0-.66,2,6.8,6.8,0,0,1-2,.37C1018.65,370.77,1017,369.21,1015.81,368.54Z"/><circle class="cls-25" cx="1019.23" cy="364.3" r="6.2"/><path class="cls-5" d="M1021.77,362.82c-1.1.06-2.3-.29-3.23.29s-1.2,2.17-1,3.41.72,2.49.43,3.72c-.39,1.61-2,2.6-3.4,3.45s-3,2-3.15,3.62c-.13,1.17.47,2.32.4,3.5-.12,1.93-1.93,3.26-3.61,4.24a11,11,0,0,1-4,1.65,4.2,4.2,0,0,1-4-1.44c-.45-.62-.72-1.45-1.42-1.77-1.1-.52-2.47.6-3.57.1a2,2,0,0,1-.88-.93,4.26,4.26,0,0,1-.29-3.28,1.71,1.71,0,0,0,.15-.77c-.09-.63-.86-.84-1.46-1.07a4.52,4.52,0,0,1-2.34-5.47,6.53,6.53,0,0,1,4.75-4.1c1.52-.38,3.2-.36,4.48-1.24,1.48-1,2-2.93,2.53-4.65s1.4-3.6,3.11-4.15c1.32-.43,2.75.06,4.13-.08,1.91-.2,3.45-1.58,5-2.66a10.42,10.42,0,0,1,4.47-1.87,5.68,5.68,0,0,1,4.56,1.3C1026.24,357.13,1026.41,362.57,1021.77,362.82Z"/><path class="cls-28" d="M1021.54,362.67c-1.1.06-2.3-.29-3.23.29s-1.2,2.17-1,3.41.72,2.49.43,3.72c-.39,1.61-2,2.6-3.4,3.45s-3,2-3.15,3.62c-.13,1.17.47,2.32.4,3.5-.12,1.93-1.93,3.26-3.61,4.24a11,11,0,0,1-4,1.65,4.21,4.21,0,0,1-3.94-1.42c-.45-.62-.72-1.45-1.42-1.77-1.1-.52-2.47.6-3.57.1a2,2,0,0,1-.88-.93,4.26,4.26,0,0,1-.29-3.28,1.71,1.71,0,0,0,.15-.77c-.09-.63-.86-.84-1.46-1.07a4.52,4.52,0,0,1-2.34-5.47,6.53,6.53,0,0,1,4.75-4.1c1.52-.38,3.2-.36,4.48-1.24,1.48-1,2-2.93,2.53-4.65s1.4-3.6,3.11-4.15c1.32-.43,2.75.06,4.13-.08,1.91-.2,3.45-1.58,5-2.66a10.42,10.42,0,0,1,4.47-1.87,5.68,5.68,0,0,1,4.56,1.3C1026,357,1026.18,362.41,1021.54,362.67Z"/><path class="cls-5" d="M1023.36,378.35s-8,.52-7.32,6.11-2.78-6.37-2.78-6.37l3.11-3.35,4.44.54Z"/><path class="cls-27" d="M1023.15,378.19s-8,.52-7.32,6.11-2.78-6.37-2.78-6.37l3.11-3.35,4.44.54Z"/><path class="cls-27" d="M1030.53,429.11l6.74,7.61c3.88,2.84,6.1,3,6.72,2.25.4-.52.12-1.46-.83-2.37-2.41-2.3-2-10-2-10a4.7,4.7,0,0,1-4.49-2.9c-1.91-.3-4.11,1.87-5.79,3.13l-.14.1a1.47,1.47,0,0,0-.33,2Z"/><path class="cls-5" d="M1041.17,426.62s-3.84.53-4.49-2.9A4.82,4.82,0,0,0,1041.17,426.62Z"/><path class="cls-5" d="M1030.53,429.11l6.74,7.61c3.88,2.84,6.1,3,6.72,2.25-1.94-.6-7.43-3-13.09-12.11l-.14.1a1.47,1.47,0,0,0-.32,2Z"/><path class="cls-4" d="M920.19,488.67s-17.83,15.94,22.8,27.59c0,0,5.3-16.72-6.07-27.38a12.4,12.4,0,0,0-16.46-.48Z"/><path class="cls-29" d="M920.36,488.37s19.73,9.89,22.63,27.89"/><path class="cls-30" d="M941.87,516.43S931.52,496.21,936,479a34.38,34.38,0,0,0-1.28-21.78,58.12,58.12,0,0,0-4.89-9.39"/><path class="cls-4" d="M932.64,437.08c.5,2.62-2.82,11.13-2.82,11.13s-6.19-6.71-6.68-9.33a4.83,4.83,0,0,1,9.5-1.8Z"/><path class="cls-4" d="M943.24,450.13c-1,2.47-8.41,7.81-8.41,7.81s-1.55-9-.54-11.47a4.86,4.86,0,0,1,9,3.66Z"/><path class="cls-4" d="M947.59,475c-2.12,1.62-11.21,2.5-11.21,2.5s3.21-8.55,5.32-10.17a4.83,4.83,0,0,1,5.88,7.67Z"/><path class="cls-4" d="M946.64,494.61C944.83,496.61,936,499,936,499s1.71-9,3.53-10.92a4.83,4.83,0,0,1,7.09,6.57Z"/><path class="cls-4" d="M925,460.33c2.23,1.47,11.35,1.71,11.35,1.71s-3.79-8.3-6-9.78a4.84,4.84,0,1,0-5.33,8.07h0Z"/><path class="cls-4" d="M924.13,483.26c2.57.74,11.34-1.77,11.34-1.77s-6.1-6.79-8.67-7.53a4.83,4.83,0,1,0-2.67,9.29h0Z"/><path class="cls-4" d="M926.36,505.63c2.4,1.16,11.48.18,11.48.18s-4.87-7.72-7.27-8.88a4.84,4.84,0,1,0-4.21,8.71Z"/><path class="cls-31" d="M932.64,437.08c.5,2.62-2.82,11.13-2.82,11.13s-6.19-6.71-6.68-9.33a4.83,4.83,0,0,1,9.5-1.8Z"/><path class="cls-31" d="M943.24,450.13c-1,2.47-8.41,7.81-8.41,7.81s-1.55-9-.54-11.47a4.86,4.86,0,0,1,9,3.66Z"/><path class="cls-31" d="M947.59,475c-2.12,1.62-11.21,2.5-11.21,2.5s3.21-8.55,5.32-10.17a4.83,4.83,0,0,1,5.88,7.67Z"/><path class="cls-31" d="M946.64,494.61C944.83,496.61,936,499,936,499s1.71-9,3.53-10.92a4.83,4.83,0,0,1,7.09,6.57Z"/><path class="cls-31" d="M925,460.33c2.23,1.47,11.35,1.71,11.35,1.71s-3.79-8.3-6-9.78a4.84,4.84,0,1,0-5.33,8.07h0Z"/><path class="cls-31" d="M924.13,483.26c2.57.74,11.34-1.77,11.34-1.77s-6.1-6.79-8.67-7.53a4.83,4.83,0,1,0-2.67,9.29h0Z"/><path class="cls-31" d="M926.36,505.63c2.4,1.16,11.48.18,11.48.18s-4.87-7.72-7.27-8.88a4.84,4.84,0,1,0-4.21,8.71Z"/><path class="cls-30" d="M961.36,520.26S951,500,955.52,482.87a34.43,34.43,0,0,0-1.27-21.73,58.12,58.12,0,0,0-4.89-9.39"/><path class="cls-4" d="M952.17,440.9c.5,2.62-2.82,11.13-2.82,11.13s-6.19-6.71-6.68-9.33a4.83,4.83,0,0,1,9.5-1.8Z"/><path class="cls-4" d="M962.77,454c-1,2.47-8.41,7.81-8.41,7.81s-1.55-9-.54-11.47a4.86,4.86,0,0,1,9,3.66Z"/><path class="cls-4" d="M967.12,478.85c-2.12,1.62-11.21,2.5-11.21,2.5s3.21-8.55,5.32-10.17a4.83,4.83,0,1,1,5.88,7.67h0Z"/><path class="cls-4" d="M966.17,498.43c-1.81,2-10.62,4.35-10.62,4.35s1.71-9,3.53-10.92a4.83,4.83,0,1,1,7.09,6.57Z"/><path class="cls-4" d="M944.48,464.15c2.23,1.47,11.35,1.71,11.35,1.71s-3.79-8.3-6-9.78a4.84,4.84,0,1,0-5.33,8.07Z"/><path class="cls-4" d="M943.66,487.07c2.57.74,11.34-1.77,11.34-1.77s-6.1-6.79-8.67-7.53a4.83,4.83,0,1,0-2.67,9.29h0Z"/><path class="cls-4" d="M945.92,509.45c2.4,1.16,11.48.18,11.48.18s-4.87-7.72-7.27-8.88a4.84,4.84,0,1,0-4.21,8.71h0Z"/><path class="cls-20" d="M1002.68,335.46l-1.76.33a1.25,1.25,0,0,0-.47-2.46h0L986.2,336a1.25,1.25,0,0,0,.47,2.46h0l1.76-.33a1.25,1.25,0,0,0,.47,2.46l-2.46.47a1.25,1.25,0,1,0,.47,2.46h0l14.25-2.69a1.25,1.25,0,0,0-.47-2.46l2.46-.47a1.25,1.25,0,0,0-.47-2.46Z"/><path class="cls-20" d="M976.87,359.93l-1.76.33a1.25,1.25,0,0,0-.47-2.46l-14.28,2.69a1.25,1.25,0,0,0,.47,2.46l1.76-.33a1.25,1.25,0,1,0,.47,2.46h0l-2.46.47a1.25,1.25,0,1,0,.47,2.46l14.29-2.69a1.25,1.25,0,0,0-.47-2.46h0l2.46-.47a1.25,1.25,0,1,0-.47-2.46h0Z"/><path class="cls-20" d="M1122.64,328.67l-1.76.33a1.25,1.25,0,1,0-.47-2.46h0l-14.24,2.72a1.25,1.25,0,0,0,.47,2.46l1.76-.33a1.25,1.25,0,1,0,.47,2.46h0l-2.51.41a1.25,1.25,0,0,0,.47,2.46l14.25-2.69a1.25,1.25,0,0,0-.47-2.46l2.46-.47a1.25,1.25,0,1,0-.47-2.46Z"/><circle class="cls-21" cx="932.3" cy="359.81" r="13.27" transform="translate(-50.6 179.35) rotate(-10.7)"/><path class="cls-3" d="M1011.48,428.45s6.67,5.89,9.78,11.12,2.12,7,2.12,7"/></g></svg>