<svg width="1440" height="1080" viewBox="0 0 1440 1080" fill="none" xmlns="http://www.w3.org/2000/svg">
<g clip-path="url(#clip0)">
<path d="M1135.58 954.801C1215.34 954.801 1280 946.41 1280 936.059C1280 925.708 1215.34 917.317 1135.58 917.317C1055.82 917.317 991.158 925.708 991.158 936.059C991.158 946.41 1055.82 954.801 1135.58 954.801Z" fill="#3F3D56"/>
<path d="M596 152.5H160V424.5H596V152.5Z" fill="#F2F2F2"/>
<path d="M623.5 126H187.5V398H623.5V126Z" stroke="#3F3D56" stroke-width="2" stroke-miterlimit="10"/>
<path d="M472.468 327.968C485.614 314.822 494.567 298.073 498.194 279.838C501.821 261.604 499.959 242.704 492.845 225.528C485.73 208.352 473.682 193.671 458.224 183.342C442.765 173.013 424.591 167.5 406 167.5V261.5L472.468 327.968Z" fill="#3F3D56"/>
<path d="M406 167.5C385.107 167.502 364.81 174.465 348.314 187.287C331.819 200.11 320.065 218.062 314.908 238.309C309.752 258.556 311.487 279.943 319.839 299.094C328.192 318.245 342.685 334.068 361.032 344.064L406 261.5V167.5Z" fill="#278AB0"/>
<path d="M472.468 327.968L406 261.5L361.032 344.064C378.857 353.762 399.341 357.435 419.425 354.534C439.509 351.633 458.116 342.314 472.468 327.968Z" fill="#575A89"/>
<path d="M222 341.5H204V359.5H222V341.5Z" fill="#278AB0"/>
<path d="M248 341.5H230V359.5H248V341.5Z" fill="#3F3D56"/>
<path d="M274 341.5H256V359.5H274V341.5Z" fill="#575A89"/>
<path d="M589 345.5H515V348.5H589V345.5Z" fill="#3F3D56"/>
<path d="M589 354.5H515V357.5H589V354.5Z" fill="#3F3D56"/>
<path d="M589 363.5H515V366.5H589V363.5Z" fill="#3F3D56"/>
<path d="M545 531.5H297V803.5H545V531.5Z" fill="#F2F2F2"/>
<path d="M570 505.5H322V777.5H570V505.5Z" stroke="#3F3D56" stroke-width="2" stroke-miterlimit="10"/>
<path d="M348.371 746.814H335V760.186H348.371V746.814Z" fill="#278AB0"/>
<path d="M367.686 746.814H354.314V760.186H367.686V746.814Z" fill="#3F3D56"/>
<path d="M387 746.814H373.628V760.186H387V746.814Z" fill="#575A89"/>
<path d="M537 752.622H485V754.73H537V752.622Z" fill="#3F3D56"/>
<path d="M537 758.946H485V761.054H537V758.946Z" fill="#3F3D56"/>
<path d="M537 765.27H485V767.378H537V765.27Z" fill="#3F3D56"/>
<path d="M446 553.5V575.5C459.054 575.5 471.814 579.371 482.668 586.623C493.521 593.875 501.981 604.183 506.976 616.243C511.971 628.303 513.278 641.573 510.732 654.376C508.185 667.179 501.899 678.939 492.669 688.169L508.225 703.725C520.532 691.418 528.914 675.738 532.309 658.668C535.705 641.598 533.962 623.904 527.301 607.824C520.641 591.744 509.362 578 494.89 568.331C480.419 558.661 463.405 553.5 446 553.5V553.5Z" fill="#3F3D56"/>
<path d="M508.226 703.725L492.669 688.169C481.385 699.455 466.393 706.269 450.471 707.349C434.548 708.428 418.773 703.7 406.069 694.041L392.753 711.561C409.695 724.438 430.728 730.739 451.959 729.298C473.19 727.857 493.179 718.772 508.226 703.725Z" fill="#575A89"/>
<path d="M380 641.5C380 623.996 386.954 607.208 399.331 594.831C411.708 582.454 428.496 575.5 446 575.5V553.5C427.578 553.5 409.621 559.281 394.659 570.028C379.697 580.776 368.486 595.948 362.605 613.406C356.724 630.864 356.47 649.727 361.879 667.337C367.287 684.947 378.086 700.415 392.753 711.561L406.069 694.041C397.961 687.891 391.388 679.947 386.865 670.831C382.343 661.716 379.993 651.676 380 641.5V641.5Z" fill="#278AB0"/>
<path d="M1091.62 265.993C1091.62 265.993 1087.54 296.304 1098.04 299.801C1108.53 303.299 1105.61 330.112 1105.61 330.112L1074.14 354.011L1046.16 356.342L1039.16 320.203L1043.24 310.876C1043.24 310.876 1058.98 292.224 1047.91 272.988C1036.83 253.752 1091.62 265.993 1091.62 265.993Z" fill="#FFB9B9"/>
<path opacity="0.1" d="M1091.62 265.993C1091.62 265.993 1087.54 296.304 1098.04 299.801C1108.53 303.299 1105.61 330.112 1105.61 330.112L1074.14 354.011L1046.16 356.342L1039.16 320.203L1043.24 310.876C1043.24 310.876 1058.98 292.224 1047.91 272.988C1036.83 253.752 1091.62 265.993 1091.62 265.993Z" fill="black"/>
<path d="M1062.48 502.066L1025.76 588.335C1025.76 588.335 997.195 572.014 980.291 573.763C963.387 575.511 942.403 555.11 942.403 555.11L963.387 453.686L1002.44 345.85L1056.65 380.241L1062.48 502.066Z" fill="#575A89"/>
<path opacity="0.1" d="M1062.48 502.066L1025.76 588.335C1025.76 588.335 997.195 572.014 980.291 573.763C963.387 575.511 942.403 555.11 942.403 555.11L963.387 453.686L1002.44 345.85L1056.65 380.241L1062.48 502.066Z" fill="black"/>
<path d="M1120.19 868.708V896.687H1093.96L1098.04 864.045L1120.19 868.708Z" fill="#575A89"/>
<path d="M1188.38 820.328L1207.62 831.986L1193.63 864.045L1179.06 862.296L1165.07 842.478L1188.38 820.328Z" fill="#575A89"/>
<path d="M1125.43 493.906L1159.82 574.928C1159.82 574.928 1147.58 664.694 1148.17 672.272C1148.75 679.85 1149.33 682.764 1146.42 689.176C1143.5 695.588 1142.34 699.668 1144.09 707.246C1145.83 714.824 1146.42 717.738 1145.25 720.653C1144.09 723.567 1135.92 843.644 1131.84 851.804C1127.76 859.965 1134.18 873.371 1130.1 874.537C1126.02 875.703 1095.7 872.789 1093.96 865.794C1092.21 858.799 1099.79 841.895 1095.7 836.649C1091.62 831.403 1096.29 642.544 1090.46 629.721C1084.63 616.897 1020.51 605.239 1020.51 605.239C1020.51 605.239 1014.68 567.934 1018.18 562.105C1021.68 556.276 1026.34 519.553 1026.34 519.553L1125.43 493.906Z" fill="#2F2E41"/>
<path d="M1091.62 892.024C1091.62 892.024 1107.95 872.788 1121.94 892.024C1121.94 892.024 1123.1 914.757 1133.01 919.42C1142.92 924.083 1138.26 942.736 1124.27 943.319C1110.28 943.902 1092.21 946.233 1091.62 938.656C1091.04 931.078 1093.96 926.415 1088.71 924.083C1083.46 921.752 1088.71 908.345 1088.71 908.345L1091.62 892.024Z" fill="#2F2E41"/>
<path d="M1093.37 613.4C1093.37 613.4 1092.79 655.368 1088.71 661.197C1084.63 667.026 1082.3 670.523 1084.63 676.935C1086.96 683.347 1090.46 695.005 1088.71 697.337C1086.96 699.668 1090.46 711.909 1090.46 711.909C1090.46 711.909 1135.34 733.476 1156.33 778.359C1156.33 778.359 1177.89 813.916 1184.3 814.499C1190.72 815.082 1198.29 810.419 1194.8 823.825C1191.3 837.232 1177.89 854.719 1167.98 852.97C1158.07 851.221 1150.5 834.317 1150.5 834.317C1150.5 834.317 1072.97 755.626 1064.81 753.295C1056.65 750.963 1033.33 732.31 1029.25 720.653C1025.17 708.995 1016.43 611.651 1020.51 605.239C1024.59 598.827 1039.75 590.084 1039.75 590.084L1093.37 613.4Z" fill="#2F2E41"/>
<path d="M1194.21 817.996C1194.21 817.996 1230.35 819.162 1230.94 827.905C1231.52 836.649 1215.78 888.527 1218.11 900.768C1220.44 913.008 1200.04 940.987 1186.64 935.158C1173.23 929.329 1183.72 899.019 1183.72 899.019C1183.72 899.019 1170.32 857.633 1172.65 857.05C1174.98 856.467 1198.29 849.473 1197.13 842.478C1195.96 835.483 1194.21 817.996 1194.21 817.996Z" fill="#2F2E41"/>
<path d="M1064.52 297.178C1084.48 297.178 1100.66 280.998 1100.66 261.039C1100.66 241.079 1084.48 224.899 1064.52 224.899C1044.56 224.899 1028.38 241.079 1028.38 261.039C1028.38 280.998 1044.56 297.178 1064.52 297.178Z" fill="#FFB9B9"/>
<path d="M1100.95 316.705C1100.95 316.705 1081.13 337.69 1066.56 334.192C1051.99 330.695 1044.41 305.63 1044.41 305.63L1018.18 300.967C1018.18 300.967 999.527 383.738 999.527 391.899C999.527 400.06 1018.18 488.077 1018.18 503.815C1018.18 519.553 1003.02 528.88 1026.34 528.297C1049.66 527.714 1038.58 520.136 1072.39 519.553C1106.2 518.97 1111.44 526.548 1118.44 514.307C1123.21 506.321 1129.1 499.058 1135.92 492.74L1123.68 449.606L1121.94 327.78C1121.94 327.78 1106.99 298.636 1100.18 300.967C1100.18 300.967 1103.87 313.791 1100.95 316.705Z" fill="#278AB0"/>
<path d="M1093.77 295.812C1093.77 295.812 1124.85 299.218 1133.59 305.63C1142.34 312.042 1166.82 316.705 1166.24 321.368C1165.65 326.032 1137.67 392.482 1137.67 392.482C1137.67 392.482 1124.85 444.942 1135.92 457.183C1147 469.424 1188.39 602.907 1181.39 613.982C1174.4 625.057 1152.25 580.174 1152.25 580.174C1152.25 580.174 1122.52 483.997 1106.2 467.675C1089.88 451.354 1088.71 363.337 1088.71 359.257C1088.71 355.176 1093.77 295.812 1093.77 295.812Z" fill="#575A89"/>
<path d="M1048.31 302.572C1048.31 302.572 1010.02 288.143 996.612 293.972C983.206 299.801 975.045 300.967 975.045 300.967L970.382 358.091C970.382 358.091 968.633 440.279 953.478 460.098C938.323 479.916 928.414 562.688 930.745 570.848C933.077 579.009 926.665 592.998 936.574 589.501C946.483 586.003 973.88 505.564 973.88 505.564C973.88 505.564 973.88 459.515 990.201 446.691C1006.52 433.867 1033.33 380.824 1034.5 368C1035.67 355.176 1046.74 319.62 1046.74 319.62L1048.31 302.572Z" fill="#575A89"/>
<path d="M1179.64 486.328C1179.64 486.328 1162.15 518.97 1159.82 524.799C1157.49 530.628 1141.17 570.265 1117.85 561.522C1094.54 552.778 1140.59 510.227 1140.59 510.227L1151.08 474.67C1151.08 474.67 1178.48 468.841 1179.64 486.328Z" fill="#FFB9B9"/>
<path d="M980.874 300.967H975.045C975.045 300.967 969.216 296.304 962.221 299.218C955.227 302.133 938.905 298.053 938.905 299.801C938.905 301.55 920.836 294.555 913.258 298.053C905.68 301.55 878.284 302.716 878.284 302.716C878.284 302.716 867.209 330.695 874.787 335.941C882.365 341.187 893.44 337.107 898.686 341.187C903.932 345.267 913.841 340.604 917.338 345.85C920.836 351.096 933.659 360.423 936.574 354.594C939.488 348.765 933.659 343.519 945.9 349.93C958.141 356.342 977.377 356.342 977.377 356.342L980.874 300.967Z" fill="#575A89"/>
<path d="M1067.78 234.337C1062.89 233.207 1057.81 234.459 1052.86 235.271C1047.9 236.083 1042.45 236.35 1038.26 233.587C1035.16 231.546 1033.26 228.169 1031.47 224.921C1030.73 223.761 1030.23 222.46 1030.01 221.098C1029.8 218.696 1031.33 216.504 1032.95 214.721C1040.49 206.436 1051.5 201.901 1062.61 200.461C1071.74 199.277 1081.26 200.07 1089.69 203.768C1098.12 207.466 1105.37 214.238 1108.69 222.828C1110.21 227.224 1111.17 231.799 1111.52 236.439C1112.03 239.853 1112.09 243.316 1111.72 246.747C1111.27 249.289 1110.6 251.788 1109.72 254.215L1104.23 270.795C1103.83 272.362 1103.09 273.822 1102.07 275.069C1101.54 275.68 1100.83 276.104 1100.04 276.277C1099.25 276.45 1098.43 276.362 1097.69 276.028C1098.13 274.227 1098.2 272.355 1097.89 270.527C1097.72 269.616 1097.28 268.778 1096.62 268.12C1095.97 267.461 1095.14 267.014 1094.23 266.834C1092.2 266.619 1090.47 268.188 1088.55 268.864C1087.63 269.138 1086.66 269.217 1085.71 269.098C1084.75 268.979 1083.83 268.662 1083 268.17C1082.17 267.677 1081.46 267.019 1080.9 266.235C1080.34 265.452 1079.94 264.562 1079.74 263.619C1079.44 261.724 1079.95 259.694 1079.23 257.914C1078.39 255.829 1076.16 254.736 1074.48 253.237C1072.95 251.825 1071.85 250.005 1071.32 247.992C1070.79 245.978 1070.85 243.855 1071.48 241.871C1071.93 240.491 1073.2 239.864 1072.94 238.279C1072.61 236.199 1069.54 234.745 1067.78 234.337Z" fill="#2F2E41"/>
<path d="M915 361.5H667V633.5H915V361.5Z" fill="#F2F2F2"/>
<path d="M940 335.5H692V607.5H940V335.5Z" stroke="#3F3D56" stroke-width="2" stroke-miterlimit="10"/>
<path d="M716 352.5V560.5H917" stroke="#3F3D56" stroke-width="2" stroke-miterlimit="10"/>
<path d="M772 487.5H727V559.5H772V487.5Z" fill="#575A89"/>
<path d="M837 438.5H792V559.5H837V438.5Z" fill="#3F3D56"/>
<path d="M902 381.5H857V559.5H902V381.5Z" fill="#278AB0"/>
<path d="M726.371 576.814H713V590.186H726.371V576.814Z" fill="#278AB0"/>
<path d="M745.686 576.814H732.314V590.186H745.686V576.814Z" fill="#3F3D56"/>
<path d="M765 576.814H751.628V590.186H765V576.814Z" fill="#575A89"/>
<path d="M915 582.622H863V584.73H915V582.622Z" fill="#3F3D56"/>
<path d="M915 588.946H863V591.054H915V588.946Z" fill="#3F3D56"/>
<path d="M915 595.27H863V597.378H915V595.27Z" fill="#3F3D56"/>
<path d="M884.308 302.682C894.936 303.144 902.833 312.783 901.684 323.359C900.642 332.941 896.8 344.864 884.696 349.444C863.129 357.604 864.295 311.555 868.375 309.807C871.095 308.641 875.37 302.294 884.308 302.682Z" fill="#FFB9B9"/>
<path d="M1159.82 318.254L1166.24 321.369C1166.24 321.369 1180.22 349.93 1180.81 354.011C1181.39 358.091 1190.72 373.246 1187.22 377.327C1183.72 381.407 1178.48 391.899 1181.97 395.979C1185.47 400.06 1193.63 416.381 1193.63 422.21C1193.63 428.039 1184.89 443.777 1190.72 445.525C1196.55 447.274 1194.8 470.007 1193.63 471.756C1192.47 473.504 1177.31 502.066 1177.31 502.066C1177.31 502.066 1174.4 469.424 1145.83 482.831C1145.83 482.831 1143.5 466.51 1145.83 465.344C1148.17 464.178 1153.99 457.183 1149.33 456.018C1144.67 454.852 1138.26 440.862 1139.42 439.114C1140.59 437.365 1143.5 435.033 1140.59 433.285C1137.67 431.536 1135.34 421.627 1135.92 419.878C1136.51 418.129 1129.51 409.969 1129.51 409.969L1159.82 318.254Z" fill="#575A89"/>
</g>
<defs>
<clipPath id="clip0">
<rect width="1120" height="829.801" fill="white" transform="translate(160 125)"/>
</clipPath>
</defs>
</svg>
