<svg id="Layer_1" data-name="Layer 1" xmlns="http://www.w3.org/2000/svg" viewBox="0 0 1440 1080"><defs><style>.cls-1{fill:#57b894;}.cls-2{fill:none;stroke:#3f3d56;stroke-miterlimit:10;}.cls-3{fill:#278ab0;}.cls-4{fill:#f2f2f2;}.cls-5{fill:#36334a;}.cls-6{fill:#fbbebe;}.cls-7{opacity:0.1;isolation:isolate;}.cls-8{fill:#3f3d56;}.cls-9{fill:#d7e5f2;}.cls-10{fill:#696880;}</style></defs><title>vois</title><path class="cls-1" d="M1101.43,560.86a20.81,20.81,0,1,1,16.33-36.53l-5.5,9.21,8.79-5.71A20.7,20.7,0,0,1,1125,543.2a20.14,20.14,0,0,1-1.59,5.53A20.81,20.81,0,0,1,1101.43,560.86Z"/><path class="cls-2" d="M1020.85,658.7c5.87-7.2,2.83-18-1.46-26.2s-9.76-17-7.87-26.09c2.71-13.07,18.09-18.15,30.53-23a125,125,0,0,0,26.13-13.9c3.26-2.26,6.47-4.74,8.74-8,3.28-4.69,4.33-10.53,5.25-16.17q4.63-28.18,7.92-56.58"/><path class="cls-2" d="M1102,558a20.81,20.81,0,1,1,16.33-36.52l-5.5,9.21,8.79-5.72a20.75,20.75,0,0,1,3.92,15.37,20.51,20.51,0,0,1-1.6,5.53A20.79,20.79,0,0,1,1102,558Z"/><path class="cls-1" d="M1110.69,495.58a20.77,20.77,0,0,0-7-18.69l-6.3,8.18,2.23-10.93a20.83,20.83,0,1,0,11.08,21.44Z"/><path class="cls-2" d="M1111.41,491.8a20.77,20.77,0,0,0-7-18.69l-6.3,8.18,2.23-10.93a20.83,20.83,0,1,0,11.08,21.44Z"/><path class="cls-1" d="M1045.18,585.33a20.81,20.81,0,0,1,1.16-41.33l-1.71,8.4,6.37-8.28h.06a20.81,20.81,0,0,1-5.88,41.2Z"/><path class="cls-2" d="M1046.06,581.58a20.81,20.81,0,0,1,1.16-41.34l-1.71,8.41,6.37-8.28h.06a20.81,20.81,0,0,1-5.88,41.21Z"/><path class="cls-1" d="M1048,626a20.8,20.8,0,1,1,4.13-16.26l-14.75,8,14.66-.58A20.48,20.48,0,0,1,1048,626Z"/><path class="cls-2" d="M1048.58,623.19a20.79,20.79,0,1,1,4.13-16.27l-14.75,8,14.66-.57A20.58,20.58,0,0,1,1048.58,623.19Z"/><rect class="cls-3" x="474" y="205.5" width="69" height="77"/><rect class="cls-2" x="486" y="198.5" width="69" height="77"/><rect class="cls-4" x="314" y="292.5" width="69" height="77"/><rect class="cls-2" x="326" y="285.5" width="69" height="77"/><rect class="cls-3" x="625" y="327.5" width="69" height="77"/><rect class="cls-2" x="637" y="320.5" width="69" height="77"/><ellipse class="cls-5" cx="803.5" cy="670.5" rx="86.5" ry="98.1"/><path class="cls-6" d="M914.53,344.07a141.1,141.1,0,0,1-66.08,11.45c5.82-4.15,9.55-10.8,11-17.78s.93-14.27-.62-21.24a3.45,3.45,0,0,1,0-2.45,3.41,3.41,0,0,1,2.65-1.26c8.76-1.22,33.86-6.52,40.53,1,3.16,3.56,1.95,10.46,3.1,14.8C905.68,330.37,911.78,345.28,914.53,344.07Z"/><path class="cls-7" d="M914.53,344.07a141.1,141.1,0,0,1-66.08,11.45c5.82-4.15,9.55-10.8,11-17.78s.93-14.27-.62-21.24a3.45,3.45,0,0,1,0-2.45,3.41,3.41,0,0,1,2.65-1.26c8.76-1.22,33.86-6.52,40.53,1,3.16,3.56,1.95,10.46,3.1,14.8C905.68,330.37,911.78,345.28,914.53,344.07Z"/><path class="cls-8" d="M841.5,493l-130,4s-115,112-20,146c0,0,117,19,145-3C836.5,640,871.5,502,841.5,493Zm-6,37-139,9s10-34,50-34,85-9,89,12S835.5,530,835.5,530Z"/><path class="cls-6" d="M739,475.06c-6.48-1-13.53-1.57-19.21,1.72a29.81,29.81,0,0,0-5.23,4.13q-3.44,3.13-6.8,6.34c-1.65,1.56-3.37,3.29-3.79,5.51-.87,4.59,4.43,8.28,9.09,8.1s8.84-2.74,13.24-4.28c8.87-3.11,41.48,2.2,43.26-7.35C771.84,477.09,746.23,476.21,739,475.06Z"/><path class="cls-9" d="M799.79,467.39a73.51,73.51,0,0,1-27.19,7.72,11.56,11.56,0,0,0-4.3.92,4.29,4.29,0,0,0-1.8,2.18,64.7,64.7,0,0,0-6.07,22.18,2,2,0,0,0,.7,2,6.24,6.24,0,0,0,2.94.66q23.32,1.49,46.82,1.59a4.86,4.86,0,0,0,2-.28,1.88,1.88,0,0,0,.94-1.16A71,71,0,0,0,819,474.45C818.55,462.86,815.15,459.23,799.79,467.39Z"/><path class="cls-7" d="M799.79,467.39a73.51,73.51,0,0,1-27.19,7.72,11.56,11.56,0,0,0-4.3.92,4.29,4.29,0,0,0-1.8,2.18,64.7,64.7,0,0,0-6.07,22.18,2,2,0,0,0,.7,2,6.24,6.24,0,0,0,2.94.66q23.32,1.49,46.82,1.59a4.86,4.86,0,0,0,2-.28,1.88,1.88,0,0,0,.94-1.16A71,71,0,0,0,819,474.45C818.55,462.86,815.15,459.23,799.79,467.39Z"/><path class="cls-5" d="M974.5,572l-171-6,40-169s160-12,156,29S974.5,572,974.5,572Z"/><path class="cls-5" d="M809.42,652.79S706.5,671,669.5,617s140-25,140-25l15,41Z"/><circle class="cls-5" cx="778.5" cy="835" r="47"/><ellipse class="cls-8" cx="783" cy="835" rx="29.5" ry="34"/><path class="cls-8" d="M1035.5,392s-39-22-41,30l-33,242h14l38-259s19,3,22,3S1035.5,392,1035.5,392Z"/><path class="cls-5" d="M1074.36,418.7h0a9.35,9.35,0,0,1-11.51,6.51,9.68,9.68,0,0,1-1.18-.41l-45.24-19.34,8.21-18.08,44.59,20.31A9.35,9.35,0,0,1,1074.36,418.7Z"/><path class="cls-8" d="M799.5,647s-72-8-92,61-18,122-35,118-53-18-53-18l3,21s63,32,73-2,16-159,73-156,67-3,67-3Z"/><path class="cls-8" d="M662.5,614s-56,7-78,48-33,115-33,115h21s12-147,75-139Z"/><path class="cls-5" d="M624.5,843l-89-55s-5-20,52-28c0,0,107.77,37.69,97.38,51.84S639.5,848,624.5,843Z"/><polygon class="cls-8" points="762.5 664 762.5 781 775.5 781 775.5 662 762.5 664"/><path class="cls-5" d="M781.5,736s25,98,9,112c0,0-21-62-37-54l5-58Z"/><circle class="cls-6" cx="878.5" cy="289" r="39"/><path class="cls-9" d="M871.12,348.11c15.91,2.7,29.65-15.79,45.58-13.19a30.44,30.44,0,0,1,9.79,3.86,97.17,97.17,0,0,1,46.83,62.71c1.8,8,2.49,16.72-.9,24.21-1.8,4-4.65,7.38-7.5,10.7C954.33,448.72,942.71,461,927.59,467c-1.47,5.12-.06,10.66,1.71,15.67,7.39,21-4.36,43.55-5,65.77-.1,3.79,0,8-2.36,10.93-2.64,3.29-7.35,3.87-11.56,4.11-38.62,2.18-77.18-3.75-115.4-9.65a5.89,5.89,0,0,1-2.81-.95c-1.25-1-1.44-2.8-1.71-4.38-1.42-8.4,6-15.21,2.5-23-6.08-13.31,7.18-27.87,11-42s5.33-16.61,8-31c1-5.38-1.88-21.6-1-27,2.87-17.64.7-37.74,10-53,5.59-9.17,4.14-16.3,14.11-20.29C845.63,348,859.87,349.42,871.12,348.11Z"/><path class="cls-10" d="M695,580.69c-11.64,2.25-24,4.39-33,12.16-5.47,4.74-9.15,11.17-12.72,17.47l-36.45,64.26c-11.12,19.6-22.24,39.21-32.32,59.37a10.7,10.7,0,0,0-1.51,4.82c0,2.41,1.66,4.48,3.31,6.22a53.17,53.17,0,0,0,45,15.83c2.51-13,14.85-21.56,20.89-33.32,3.33-6.46,4.66-13.73,6.81-20.67,8-25.89,27-46.68,45.44-66.53,8.71-9.39,17.63-18.93,28.86-25.09C742.53,608,757.81,606,772.54,603s30-7.55,40.38-18.38a43.39,43.39,0,0,0,11.55-35.32c-9.44-.66-19.93-1.89-29,1.15-10.57,3.52-20.79,8.34-31.37,11.93A521.31,521.31,0,0,1,695,580.69Z"/><path class="cls-7" d="M695,580.69c-11.64,2.25-24,4.39-33,12.16-5.47,4.74-9.15,11.17-12.72,17.47l-36.45,64.26c-11.12,19.6-22.24,39.21-32.32,59.37a10.7,10.7,0,0,0-1.51,4.82c0,2.41,1.66,4.48,3.31,6.22a53.17,53.17,0,0,0,45,15.83c2.51-13,14.85-21.56,20.89-33.32,3.33-6.46,4.66-13.73,6.81-20.67,8-25.89,27-46.68,45.44-66.53,8.71-9.39,17.63-18.93,28.86-25.09C742.53,608,757.81,606,772.54,603s30-7.55,40.38-18.38a43.39,43.39,0,0,0,11.55-35.32c-9.44-.66-19.93-1.89-29,1.15-10.57,3.52-20.79,8.34-31.37,11.93A521.31,521.31,0,0,1,695,580.69Z"/><path class="cls-8" d="M537.85,784.48a8.14,8.14,0,0,0-2.87,3.71c-1.33,4.51,4.32,7.68,8.83,9,10.15,2.92,21,5.85,31.1,2.84,6.21-1.84,11.61-5.8,17.78-7.77,9.15-2.94,19.06-1.27,28.52.42a61.69,61.69,0,0,0-4.09-35.24c-3-7-15.18-10.41-22.42-10.72-7.91-.34-10.65,5.5-15.22,10.87C568.37,770.65,550.66,773.68,537.85,784.48Z"/><path class="cls-10" d="M702.42,599.85c-5.59,2.22-11.33,4.54-15.72,8.66-4.63,4.35-7.34,10.32-9.82,16.18a453.91,453.91,0,0,0-18.63,53.14c-2.57,9.14-4.87,18.39-8.34,27.22-6.93,17.64-18.68,34.53-17.58,53.44a12.61,12.61,0,0,0,1.79,6.53c1.57,2.28,4.24,3.49,6.78,4.59l13.29,5.77c7.14,3.1,15.84,6.08,22.22,1.62,4.27-3,6-8.39,7.26-13.43,4.64-18.22,7.52-37.14,15.84-54,9.42-19.05,25.33-34.44,33.75-54,1.19-2.76,2.32-5.73,4.66-7.61,1.94-1.56,4.45-2.16,6.87-2.72,49.94-11.37,101-17.59,150.55-30.59,7-1.85,14.41-4,19.44-9.31,7-7.31,7.59-18.42,7.81-28.51.14-6.33.11-13.2-3.74-18.22-4.35-5.66-12.14-7.15-19.24-7.9-27.21-2.86-52.31,1.65-79.11,5-24.53,3-49.23,16.87-72.1,25.91Q725.41,590.71,702.42,599.85Z"/><path class="cls-8" d="M640.89,780.63c-3.74,8.88-7.78,18.16-15.36,24.1-3.17,2.48-7.27,5-7.4,9-.13,4.26,4.34,7.07,8.35,8.51,10.2,3.69,21.81,4.47,31.77.16,6.81-2.94,12.42-8,17.9-13,1.65-1.51,3.36-3.1,4.14-5.2a13.57,13.57,0,0,0,.46-5.45,140.12,140.12,0,0,0-5.9-32.74c-.25-.84-21.77-3.52-23.68-3C645.16,764.52,643.21,775.13,640.89,780.63Z"/><path class="cls-8" d="M975.5,523l-130,4s-115,112-20,146c0,0,117,19,145-3C970.5,670,1005.5,532,975.5,523Zm-6,37-139,9s10-34,50-34,85-9,89,12S969.5,560,969.5,560Z"/><ellipse class="cls-5" cx="946" cy="734" rx="130.5" ry="148"/><ellipse class="cls-8" cx="952" cy="734" rx="98.5" ry="110"/><path class="cls-5" d="M977.5,732.5a28.8,28.8,0,0,0-.57-5.71L1050.5,690l-5-11-74.32,36.21a15.76,15.76,0,0,0-2.47-2.07l.06,0L990.5,605l-19.22-.44L958.5,711l1.23.26a11.59,11.59,0,0,0-2.87,1l-64.28-66L883.5,659l66,60.75A26.69,26.69,0,0,0,946.61,730L853.5,768l-2,16,97.06-40.82a21.31,21.31,0,0,0,3.79,6.13L922.5,851h11l25.06-97.55A11.46,11.46,0,0,0,962,754a11.88,11.88,0,0,0,6.36-1.91L1020.5,821l16-11-61.1-66.74A27.77,27.77,0,0,0,977.5,732.5Z"/><path class="cls-5" d="M833.18,264.31c1.76-4.42,7.44-6.25,9.3-10.64,2-4.71-1.13-10.71,1.59-15s9.14-3.85,14.23-3c6,1,12.4,1.67,18-.72,2.49-1.06,4.71-2.68,7.12-3.91a25.18,25.18,0,0,1,12.41-2.69,5.55,5.55,0,0,1,2.79.66,5.23,5.23,0,0,1,1.8,2.33c1.76,3.8,2,8.54,5.18,11.26,1.53,1.31,3.5,1.93,5.33,2.77a23.07,23.07,0,0,1,12.94,23,47,47,0,0,0-.79,6.59c.12,4.86,3.3,9.72,1.68,14.31-1.21,3.41-4.74,5.42-8.2,6.47a4.68,4.68,0,0,1-3.09.16c-1.78-.72-2.13-3-2.7-4.83A11.83,11.83,0,0,0,899.3,283c-4,.17-8.12,2.43-11.92,1.08a15.67,15.67,0,0,1-4.83-3.41c-3.44-3-7.51-5.5-12-6.14s-9.53.89-12.19,4.6c-1.08,1.5-1.73,3.26-2.76,4.79C846.36,297.64,829.37,273.86,833.18,264.31Z"/><rect class="cls-3" x="769" y="530.5" width="69" height="77"/><path class="cls-6" d="M854,502a10.61,10.61,0,0,0-9.28,3.45c-8.76,8-18,17-19.62,28.69a4.85,4.85,0,0,0,.37,3.18c.84,1.38,2.69,1.68,4.31,1.71a28.71,28.71,0,0,0,21.69-9.58c1.5-1.7,2.87-3.65,4.93-4.61a12.87,12.87,0,0,1,5.9-.73c5.49.18,18,3,22.81.27,5-2.87,3.65-11.84,1.3-16.17C880.78,497.91,863.46,501.88,854,502Z"/><path class="cls-9" d="M976.1,415.59c3.36,10.82,1.39,23,6.16,33.28,3.16,6.82,9.11,12.32,11,19.61,1.74,6.88-.59,14.31-4.68,20.12s-9.79,10.27-15.5,14.5c-6.25,4.63-12.74,9.15-20.11,11.65s-15.22,2.88-23,3.23l-51.38,2.36L869.1,492l33.48-13.12c3.35-1.31,6.77-2.64,10.36-2.9,6.19-.46,13.75,1.81,17.73-3a12.82,12.82,0,0,0,2.34-5.94c3.25-16.67.42-34.3,5.42-50.53,2.47-8,9.61-24.15,19.35-25.56C968.09,389.46,973.77,408.08,976.1,415.59Z"/></svg>