<svg width="1440" height="1080" viewBox="0 0 1440 1080" fill="none" xmlns="http://www.w3.org/2000/svg">
<g clip-path="url(#clip0)">
<path d="M1101.43 560.861C1098.24 560.408 1095.19 559.22 1092.54 557.39C1089.89 555.561 1087.7 553.14 1086.14 550.318C1084.58 547.497 1083.7 544.352 1083.56 541.131C1083.43 537.911 1084.04 534.703 1085.35 531.761C1086.67 528.818 1088.65 526.221 1091.14 524.175C1093.63 522.129 1096.56 520.689 1099.71 519.969C1102.85 519.249 1106.11 519.268 1109.25 520.026C1112.38 520.783 1115.29 522.258 1117.76 524.334L1112.26 533.542L1121.05 527.825C1124.34 532.227 1125.75 537.756 1124.96 543.195C1124.7 545.105 1124.16 546.967 1123.37 548.727C1121.53 552.86 1118.39 556.281 1114.43 558.471C1110.47 560.66 1105.91 561.5 1101.43 560.861Z" fill="#57B894"/>
<path d="M1020.85 658.703C1026.72 651.505 1023.68 640.731 1019.39 632.496C1015.1 624.261 1009.63 615.501 1011.52 606.41C1014.23 593.345 1029.61 588.259 1042.05 583.431C1051.28 579.847 1060.05 575.182 1068.18 569.533C1071.44 567.268 1074.65 564.792 1076.92 561.539C1080.2 556.853 1081.25 551.012 1082.17 545.37C1085.26 526.577 1087.9 507.718 1090.09 488.794" stroke="#3F3D56" stroke-miterlimit="10"/>
<path d="M1101.97 558.024C1098.78 557.571 1095.74 556.383 1093.08 554.553C1090.43 552.724 1088.24 550.303 1086.68 547.481C1085.12 544.66 1084.24 541.515 1084.1 538.295C1083.97 535.074 1084.58 531.866 1085.9 528.924C1087.21 525.981 1089.19 523.384 1091.68 521.338C1094.17 519.292 1097.1 517.852 1100.25 517.132C1103.39 516.412 1106.65 516.431 1109.79 517.189C1112.92 517.947 1115.83 519.421 1118.3 521.497L1112.8 530.705L1121.59 524.988C1124.88 529.39 1126.29 534.919 1125.51 540.358C1125.24 542.268 1124.7 544.13 1123.91 545.89C1122.07 550.023 1118.93 553.444 1114.97 555.634C1111.01 557.823 1106.45 558.663 1101.97 558.024V558.024Z" stroke="#3F3D56" stroke-miterlimit="10"/>
<path d="M1110.69 495.583C1111.19 492.13 1110.8 488.607 1109.58 485.34C1108.35 482.074 1106.32 479.168 1103.68 476.89L1097.38 485.071L1099.61 474.138C1095.68 472.121 1091.22 471.403 1086.86 472.087C1082.5 472.771 1078.47 474.823 1075.36 477.946C1072.24 481.069 1070.2 485.101 1069.52 489.461C1068.85 493.821 1069.58 498.282 1071.6 502.201C1073.63 506.12 1076.85 509.294 1080.8 511.264C1084.74 513.234 1089.21 513.899 1093.56 513.163C1097.91 512.427 1101.92 510.327 1104.99 507.167C1108.07 504.007 1110.07 499.951 1110.69 495.583V495.583Z" fill="#57B894"/>
<path d="M1111.41 491.801C1111.91 488.347 1111.52 484.825 1110.3 481.558C1109.07 478.291 1107.05 475.385 1104.4 473.108L1098.1 481.289L1100.33 470.356C1096.4 468.338 1091.94 467.62 1087.58 468.304C1083.22 468.989 1079.2 471.041 1076.08 474.164C1072.96 477.286 1070.92 481.319 1070.25 485.678C1069.57 490.038 1070.3 494.499 1072.32 498.418C1074.35 502.337 1077.57 505.511 1081.52 507.482C1085.46 509.452 1089.94 510.117 1094.28 509.381C1098.63 508.644 1102.64 506.544 1105.72 503.385C1108.79 500.225 1110.79 496.168 1111.41 491.801V491.801Z" stroke="#3F3D56" stroke-miterlimit="10"/>
<path d="M1045.18 585.332C1040.12 584.61 1035.5 582.051 1032.21 578.144C1028.91 574.237 1027.17 569.254 1027.32 564.146C1027.46 559.037 1029.48 554.16 1032.99 550.444C1036.5 546.728 1041.25 544.433 1046.34 543.997L1044.63 552.398L1051 544.12C1051.02 544.121 1051.04 544.123 1051.06 544.127C1056.52 544.907 1061.45 547.825 1064.77 552.24C1068.08 556.656 1069.5 562.206 1068.72 567.67C1067.94 573.134 1065.02 578.064 1060.61 581.377C1056.19 584.689 1050.64 586.111 1045.18 585.332Z" fill="#57B894"/>
<path d="M1046.06 581.579C1041 580.857 1036.38 578.298 1033.09 574.391C1029.79 570.484 1028.05 565.501 1028.19 560.393C1028.34 555.284 1030.36 550.408 1033.87 546.692C1037.37 542.976 1042.13 540.681 1047.22 540.244L1045.51 548.645L1051.88 540.367C1051.9 540.368 1051.92 540.37 1051.94 540.374C1054.64 540.76 1057.25 541.676 1059.6 543.068C1061.95 544.46 1064 546.302 1065.64 548.488C1067.28 550.674 1068.48 553.162 1069.16 555.809C1069.83 558.456 1069.99 561.211 1069.6 563.917C1069.21 566.623 1068.3 569.226 1066.91 571.577C1065.51 573.929 1063.67 575.984 1061.49 577.624C1059.3 579.264 1056.81 580.457 1054.16 581.136C1051.52 581.815 1048.76 581.965 1046.06 581.579V581.579Z" stroke="#3F3D56" stroke-miterlimit="10"/>
<path d="M1048.04 626.024C1045.1 629.783 1040.96 632.417 1036.3 633.484C1031.65 634.55 1026.78 633.986 1022.49 631.884C1018.21 629.782 1014.78 626.271 1012.77 621.939C1010.77 617.608 1010.32 612.719 1011.49 608.093C1012.66 603.468 1015.39 599.386 1019.22 596.533C1023.04 593.681 1027.73 592.23 1032.5 592.425C1037.27 592.62 1041.83 594.448 1045.41 597.604C1048.99 600.759 1051.37 605.049 1052.17 609.755L1037.42 617.709L1052.08 617.132C1051.47 620.377 1050.08 623.427 1048.04 626.024Z" fill="#57B894"/>
<path d="M1048.58 623.187C1045.64 626.946 1041.5 629.58 1036.85 630.647C1032.19 631.714 1027.32 631.149 1023.03 629.047C1018.75 626.945 1015.32 623.434 1013.31 619.102C1011.31 614.771 1010.86 609.882 1012.03 605.256C1013.21 600.631 1015.93 596.549 1019.76 593.696C1023.59 590.844 1028.28 589.393 1033.04 589.588C1037.81 589.783 1042.37 591.611 1045.95 594.767C1049.53 597.922 1051.92 602.212 1052.71 606.918L1037.96 614.872L1052.62 614.296C1052.01 617.54 1050.62 620.59 1048.58 623.187V623.187Z" stroke="#3F3D56" stroke-miterlimit="10"/>
<path d="M543 205.5H474V282.5H543V205.5Z" fill="#278AB0"/>
<path d="M555 198.5H486V275.5H555V198.5Z" stroke="#3F3D56" stroke-miterlimit="10"/>
<path d="M383 292.5H314V369.5H383V292.5Z" fill="#F2F2F2"/>
<path d="M395 285.5H326V362.5H395V285.5Z" stroke="#3F3D56" stroke-miterlimit="10"/>
<path d="M694 327.5H625V404.5H694V327.5Z" fill="#278AB0"/>
<path d="M706 320.5H637V397.5H706V320.5Z" stroke="#3F3D56" stroke-miterlimit="10"/>
<path d="M803.5 768.6C851.273 768.6 890 724.679 890 670.5C890 616.321 851.273 572.4 803.5 572.4C755.727 572.4 717 616.321 717 670.5C717 724.679 755.727 768.6 803.5 768.6Z" fill="#36334A"/>
<path d="M914.533 344.074C893.747 353.143 871.081 357.069 848.455 355.52C854.267 351.375 857.997 344.718 859.5 337.739C861.003 330.759 860.431 323.465 858.878 316.497C858.594 315.701 858.611 314.829 858.925 314.045C859.243 313.651 859.645 313.334 860.102 313.116C860.559 312.899 861.059 312.786 861.565 312.788C870.328 311.568 895.425 306.272 902.097 313.773C905.259 317.327 904.048 324.232 905.203 328.573C905.68 330.366 911.778 345.28 914.533 344.074Z" fill="#FBBEBE"/>
<path opacity="0.1" d="M914.533 344.074C893.747 353.143 871.081 357.069 848.455 355.52C854.267 351.375 857.997 344.718 859.5 337.739C861.003 330.759 860.431 323.465 858.878 316.497C858.594 315.701 858.611 314.829 858.925 314.045C859.243 313.651 859.645 313.334 860.102 313.116C860.559 312.899 861.059 312.786 861.565 312.788C870.328 311.568 895.425 306.272 902.097 313.773C905.259 317.327 904.048 324.232 905.203 328.573C905.68 330.366 911.778 345.28 914.533 344.074Z" fill="black"/>
<path d="M841.5 493L711.5 497C711.5 497 596.5 609 691.5 643C691.5 643 808.5 662 836.5 640C836.5 640 871.5 502 841.5 493ZM835.5 530L696.5 539C696.5 539 706.5 505 746.5 505C786.5 505 831.5 496 835.5 517C839.5 538 835.5 530 835.5 530Z" fill="#3F3D56"/>
<path d="M739.014 475.058C732.53 474.066 725.48 473.493 719.801 476.776C717.911 477.958 716.155 479.343 714.566 480.907C712.282 483.004 710.015 485.119 707.766 487.254C706.121 488.814 704.401 490.535 703.979 492.763C703.111 497.347 708.406 501.038 713.068 500.859C717.73 500.68 721.912 498.118 726.315 496.575C735.182 493.467 767.791 498.78 769.572 489.232C771.837 477.091 746.226 476.206 739.014 475.058Z" fill="#FBBEBE"/>
<path d="M799.786 467.392C791.307 471.698 782.074 474.32 772.597 475.112C771.118 475.136 769.657 475.447 768.296 476.027C767.472 476.534 766.841 477.302 766.503 478.208C763.172 485.183 761.114 492.696 760.426 500.394C760.336 500.764 760.354 501.152 760.478 501.511C760.603 501.87 760.828 502.186 761.128 502.421C762.039 502.877 763.048 503.104 764.066 503.081C779.624 504.068 795.234 504.598 810.895 504.672C811.586 504.725 812.281 504.63 812.933 504.394C813.159 504.274 813.359 504.109 813.52 503.91C813.681 503.71 813.8 503.481 813.87 503.235C817.545 494.098 819.277 484.297 818.957 474.455C818.548 462.863 815.154 459.233 799.786 467.392Z" fill="#D7E5F2"/>
<path opacity="0.1" d="M799.786 467.392C791.307 471.698 782.074 474.32 772.597 475.112C771.118 475.136 769.657 475.447 768.296 476.027C767.472 476.534 766.841 477.302 766.503 478.208C763.172 485.183 761.114 492.696 760.426 500.394C760.336 500.764 760.354 501.152 760.478 501.511C760.603 501.87 760.828 502.186 761.128 502.421C762.039 502.877 763.048 503.104 764.066 503.081C779.624 504.068 795.234 504.598 810.895 504.672C811.586 504.725 812.281 504.63 812.933 504.394C813.159 504.274 813.359 504.109 813.52 503.91C813.681 503.71 813.8 503.481 813.87 503.235C817.545 494.098 819.277 484.297 818.957 474.455C818.548 462.863 815.154 459.233 799.786 467.392Z" fill="black"/>
<path d="M974.5 572L803.5 566L843.5 397C843.5 397 1003.5 385 999.5 426C995.5 467 974.5 572 974.5 572Z" fill="#36334A"/>
<path d="M809.419 652.786C809.419 652.786 706.5 671 669.5 617C632.5 563 809.5 592 809.5 592L824.5 633L809.419 652.786Z" fill="#36334A"/>
<path d="M778.5 882C804.457 882 825.5 860.957 825.5 835C825.5 809.043 804.457 788 778.5 788C752.543 788 731.5 809.043 731.5 835C731.5 860.957 752.543 882 778.5 882Z" fill="#36334A"/>
<path d="M783 869C799.292 869 812.5 853.778 812.5 835C812.5 816.222 799.292 801 783 801C766.708 801 753.5 816.222 753.5 835C753.5 853.778 766.708 869 783 869Z" fill="#3F3D56"/>
<path d="M1035.5 392C1035.5 392 996.5 370 994.5 422L961.5 664H975.5L1013.5 405C1013.5 405 1032.5 408 1035.5 408C1038.5 408 1035.5 392 1035.5 392Z" fill="#3F3D56"/>
<path d="M1074.36 418.702C1074 419.986 1073.38 421.179 1072.52 422.202C1071.67 423.224 1070.6 424.051 1069.4 424.629C1068.2 425.206 1066.89 425.52 1065.55 425.549C1064.22 425.578 1062.9 425.322 1061.67 424.798L1016.43 405.456L1024.64 387.378L1069.23 407.687C1071.25 408.61 1072.88 410.227 1073.83 412.247C1074.77 414.266 1074.96 416.555 1074.36 418.702Z" fill="#36334A"/>
<path d="M799.5 647C799.5 647 727.5 639 707.5 708C687.5 777 689.5 830 672.5 826C655.5 822 619.5 808 619.5 808L622.5 829C622.5 829 685.5 861 695.5 827C705.5 793 711.5 668 768.5 671C825.5 674 835.5 668 835.5 668L799.5 647Z" fill="#3F3D56"/>
<path d="M662.5 614C662.5 614 606.5 621 584.5 662C562.5 703 551.5 777 551.5 777H572.5C572.5 777 584.5 630 647.5 638L662.5 614Z" fill="#3F3D56"/>
<path d="M624.5 843L535.5 788C535.5 788 530.5 768 587.5 760C587.5 760 695.267 797.69 684.883 811.845C674.5 826 639.5 848 624.5 843Z" fill="#36334A"/>
<path d="M762.5 664V781H775.5V662L762.5 664Z" fill="#3F3D56"/>
<path d="M781.5 736C781.5 736 806.5 834 790.5 848C790.5 848 769.5 786 753.5 794L758.5 736H781.5Z" fill="#36334A"/>
<path d="M878.5 328C900.039 328 917.5 310.539 917.5 289C917.5 267.461 900.039 250 878.5 250C856.961 250 839.5 267.461 839.5 289C839.5 310.539 856.961 328 878.5 328Z" fill="#FBBEBE"/>
<path d="M871.124 348.11C887.028 350.813 900.774 332.321 916.695 334.922C920.158 335.631 923.472 336.934 926.489 338.775C938.217 345.41 948.437 354.413 956.498 365.21C964.56 376.008 970.287 388.364 973.317 401.494C975.116 409.515 975.811 418.212 972.424 425.702C970.623 429.683 967.774 433.083 964.925 436.397C954.332 448.716 942.706 460.994 927.591 466.955C926.115 472.068 927.533 477.605 929.303 482.625C936.694 503.583 924.941 526.17 924.341 548.385C924.239 552.185 924.353 556.349 921.977 559.316C919.339 562.61 914.63 563.195 910.417 563.432C871.801 565.608 833.239 559.684 795.016 553.778C794.016 553.709 793.05 553.382 792.213 552.829C790.956 551.825 790.766 550.031 790.498 548.445C789.081 540.051 796.534 533.245 793 525.5C786.924 512.186 800.177 497.626 804 483.5C807.823 469.374 809.328 466.889 812 452.5C812.999 447.12 810.121 430.901 811 425.5C813.87 407.858 811.7 387.763 821 372.5C826.588 363.329 825.138 356.199 835.109 352.211C845.63 348.004 859.869 349.421 871.124 348.11Z" fill="#D7E5F2"/>
<path d="M694.995 580.692C683.352 582.937 670.991 585.079 662.031 592.845C656.559 597.589 652.881 604.018 649.309 610.317L612.858 674.583C601.742 694.183 590.619 713.794 580.54 733.947C579.659 735.413 579.143 737.068 579.033 738.775C579.073 741.18 580.69 743.248 582.345 744.993C588.095 750.955 595.159 755.49 602.973 758.237C610.786 760.984 619.134 761.868 627.349 760.817C629.857 747.835 642.197 739.255 648.245 727.498C651.568 721.037 652.904 713.773 655.049 706.831C663.051 680.941 682.046 660.152 700.487 640.297C709.202 630.913 718.124 621.366 729.354 615.208C742.528 607.984 757.814 605.986 772.537 602.986C787.259 599.985 802.503 595.436 812.92 584.61C817.342 579.946 820.672 574.358 822.668 568.249C824.665 562.141 825.279 555.665 824.466 549.291C815.034 548.631 804.538 547.404 795.44 550.438C784.874 553.961 774.654 558.775 764.072 562.374C741.492 570.053 718.412 576.174 694.995 580.692Z" fill="#696880"/>
<path opacity="0.1" d="M694.995 580.692C683.352 582.937 670.991 585.079 662.031 592.845C656.559 597.589 652.881 604.018 649.309 610.317L612.858 674.583C601.742 694.183 590.619 713.794 580.54 733.947C579.659 735.413 579.143 737.068 579.033 738.775C579.073 741.18 580.69 743.248 582.345 744.993C588.095 750.955 595.159 755.49 602.973 758.237C610.786 760.984 619.134 761.868 627.349 760.817C629.857 747.835 642.197 739.255 648.245 727.498C651.568 721.037 652.904 713.773 655.049 706.831C663.051 680.941 682.046 660.152 700.487 640.297C709.202 630.913 718.124 621.366 729.354 615.208C742.528 607.984 757.814 605.986 772.537 602.986C787.259 599.985 802.503 595.436 812.92 584.61C817.342 579.946 820.672 574.358 822.668 568.249C824.665 562.141 825.279 555.665 824.466 549.291C815.034 548.631 804.538 547.404 795.44 550.438C784.874 553.961 774.654 558.775 764.072 562.374C741.492 570.053 718.412 576.174 694.995 580.692Z" fill="black"/>
<path d="M537.847 784.479C536.549 785.409 535.551 786.697 534.976 788.187C533.652 792.697 539.296 795.874 543.813 797.174C553.961 800.095 564.788 803.021 574.91 800.012C581.118 798.166 586.519 794.211 592.687 792.236C601.839 789.303 611.752 790.968 621.213 792.658C623.327 780.764 621.905 768.51 617.123 757.416C614.087 750.414 601.937 747.006 594.703 746.699C586.795 746.363 584.048 752.198 579.484 757.568C568.366 770.648 550.655 773.68 537.847 784.479Z" fill="#3F3D56"/>
<path d="M702.424 599.848C696.83 602.074 691.092 604.39 686.704 608.512C682.07 612.864 679.358 618.835 676.885 624.691C669.576 642.001 663.353 659.75 658.254 677.834C655.677 686.972 653.381 696.215 649.91 705.052C642.982 722.688 631.226 739.579 632.331 758.495C632.324 760.793 632.943 763.05 634.12 765.024C635.689 767.301 638.359 768.509 640.895 769.611L654.192 775.384C661.328 778.482 670.034 781.461 676.409 777.003C680.675 774.02 682.379 768.609 683.666 763.565C688.314 745.349 691.186 726.427 699.513 709.571C708.925 690.521 724.839 675.126 733.259 655.617C734.451 652.856 735.581 649.893 737.925 648.009C739.86 646.452 742.37 645.845 744.792 645.294C794.733 633.922 845.801 627.702 895.342 614.699C902.386 612.851 909.754 610.656 914.779 605.386C921.746 598.078 922.367 586.97 922.59 576.876C922.729 570.551 922.699 563.679 918.846 558.662C914.501 553.004 906.708 551.51 899.612 550.763C872.399 547.901 847.299 552.41 820.496 555.713C795.973 558.735 771.273 572.577 748.395 581.621C733.065 587.68 717.742 593.756 702.424 599.848Z" fill="#696880"/>
<path d="M640.89 780.631C637.15 789.512 633.114 798.788 625.529 804.73C622.36 807.213 618.261 809.698 618.134 813.722C618 817.979 622.471 820.789 626.478 822.234C636.681 825.915 648.293 826.702 658.249 822.395C665.058 819.448 670.674 814.357 676.154 809.355C677.804 807.848 679.513 806.258 680.286 804.162C680.814 802.395 680.972 800.539 680.751 798.708C680.094 787.599 678.113 776.608 674.849 765.968C674.596 765.132 653.079 762.45 651.171 762.948C645.164 764.517 643.207 775.13 640.89 780.631Z" fill="#3F3D56"/>
<path d="M975.5 523L845.5 527C845.5 527 730.5 639 825.5 673C825.5 673 942.5 692 970.5 670C970.5 670 1005.5 532 975.5 523ZM969.5 560L830.5 569C830.5 569 840.5 535 880.5 535C920.5 535 965.5 526 969.5 547C973.5 568 969.5 560 969.5 560Z" fill="#3F3D56"/>
<path d="M946 882C1018.07 882 1076.5 815.738 1076.5 734C1076.5 652.262 1018.07 586 946 586C873.927 586 815.5 652.262 815.5 734C815.5 815.738 873.927 882 946 882Z" fill="#36334A"/>
<path d="M952 844C1006.4 844 1050.5 794.751 1050.5 734C1050.5 673.249 1006.4 624 952 624C897.6 624 853.5 673.249 853.5 734C853.5 794.751 897.6 844 952 844Z" fill="#3F3D56"/>
<path d="M977.5 732.5C977.497 730.581 977.306 728.667 976.929 726.785L1050.5 690L1045.5 679L971.182 715.206C970.432 714.435 969.605 713.744 968.713 713.143L968.77 713.155L990.5 605L971.278 604.563L958.5 711L959.725 711.257C958.732 711.461 957.769 711.79 956.859 712.236L892.584 646.26L883.5 659L949.538 719.755C947.882 722.936 946.887 726.419 946.614 729.994L853.5 768L851.5 784L948.56 743.18C949.465 745.426 950.748 747.499 952.354 749.311L922.5 851H933.5L958.559 753.45C959.671 753.808 960.832 753.994 962 754C964.256 753.979 966.46 753.319 968.356 752.095L1020.5 821L1036.5 810L975.403 743.264C976.806 739.849 977.518 736.191 977.5 732.5Z" fill="#36334A"/>
<path d="M833.178 264.309C834.94 259.885 840.621 258.055 842.482 253.672C844.483 248.958 841.346 242.96 844.069 238.623C846.813 234.253 853.207 234.765 858.297 235.61C864.306 236.606 870.697 237.277 876.302 234.892C878.795 233.832 881.007 232.212 883.422 230.983C887.26 229.037 891.533 228.108 895.832 228.286C896.802 228.263 897.762 228.492 898.617 228.95C899.431 229.537 900.058 230.347 900.423 231.282C902.177 235.079 902.427 239.819 905.601 242.543C907.126 243.852 909.105 244.468 910.931 245.306C915.184 247.359 918.705 250.667 921.018 254.784C923.331 258.901 924.326 263.628 923.867 268.328C923.449 270.505 923.186 272.708 923.081 274.922C923.205 279.785 926.383 284.642 924.76 289.227C923.553 292.636 920.022 294.653 916.563 295.704C915.579 296.104 914.488 296.159 913.469 295.86C911.694 295.141 911.34 292.861 910.773 291.032C909.972 288.637 908.427 286.561 906.363 285.106C904.299 283.652 901.824 282.895 899.299 282.946C895.265 283.117 891.184 285.383 887.378 284.035C885.507 283.372 884.044 281.927 882.549 280.622C879.109 277.62 875.039 275.123 870.518 274.484C865.997 273.845 860.989 275.369 858.326 279.079C857.251 280.577 856.6 282.34 855.574 283.873C846.357 297.642 829.373 273.863 833.178 264.309Z" fill="#36334A"/>
<path d="M838 530.5H769V607.5H838V530.5Z" fill="#278AB0"/>
<path d="M853.957 501.987C852.246 501.764 850.506 501.963 848.888 502.565C847.271 503.167 845.825 504.155 844.675 505.442C835.925 513.415 826.65 522.401 825.064 534.132C824.821 535.201 824.949 536.322 825.427 537.308C826.27 538.688 828.122 538.993 829.738 539.02C833.827 539.061 837.877 538.228 841.618 536.576C845.358 534.924 848.702 532.492 851.426 529.442C852.927 527.739 854.304 525.79 856.362 524.831C858.243 524.131 860.261 523.881 862.256 524.1C867.746 524.28 880.281 527.09 885.067 524.367C890.1 521.503 888.716 512.527 886.366 508.199C880.781 497.911 863.464 501.884 853.957 501.987Z" fill="#FBBEBE"/>
<path d="M976.099 415.59C979.461 426.406 977.492 438.59 982.256 448.866C985.419 455.688 991.365 461.186 993.207 468.476C994.947 475.365 992.616 482.788 988.527 488.598C984.438 494.408 978.744 498.871 973.035 503.099C966.782 507.729 960.29 512.248 952.923 514.751C945.575 517.249 937.702 517.626 929.949 517.981L878.567 520.337L869.103 491.966L902.583 478.852C905.934 477.54 909.348 476.212 912.937 475.947C919.134 475.489 926.692 477.763 930.672 472.992C931.936 471.238 932.74 469.195 933.01 467.05C936.257 450.383 933.432 432.748 938.43 416.52C940.903 408.487 948.041 392.375 957.776 390.957C968.093 389.455 973.766 408.084 976.099 415.59Z" fill="#D7E5F2"/>
</g>
<defs>
<clipPath id="clip0">
<rect width="812.217" height="684" fill="white" transform="translate(314 198)"/>
</clipPath>
</defs>
</svg>
