<svg id="Layer_1" data-name="Layer 1" xmlns="http://www.w3.org/2000/svg" viewBox="0 0 1440 1080"><defs><style>.cls-1{fill:#ff6584;}.cls-2{fill:#f2f2f2;}.cls-3{fill:#3f3d56;}.cls-4{fill:#2f2e41;}.cls-5{fill:#fff;}.cls-6{fill:#278ab0;}</style></defs><title>warsound</title><circle class="cls-1" cx="372.59" cy="254" r="64"/><path class="cls-2" d="M684,494.12c0,151-89.78,203.74-200.52,203.74S283,645.13,283,494.12,483.46,151,483.46,151,684,343.11,684,494.12Z"/><polygon class="cls-3" points="476.16 674.76 478.21 548.38 563.67 392.02 478.53 528.55 479.45 471.73 538.36 358.61 479.7 456.69 479.7 456.69 481.36 354.48 544.43 264.42 481.62 338.41 482.66 151 476.14 399.1 476.67 388.86 412.55 290.7 475.65 408.51 469.67 522.65 469.49 519.63 395.56 416.33 469.27 530.33 468.52 544.6 468.39 544.82 468.45 545.99 453.29 835.59 473.54 835.59 475.97 686 549.5 572.28 476.16 674.76"/><path class="cls-2" d="M1280.59,556c0,123.61-73.48,166.77-164.13,166.77S952.33,679.58,952.33,556s164.13-280.86,164.13-280.86S1280.59,432.36,1280.59,556Z"/><polygon class="cls-3" points="1110.48 703.83 1112.16 600.38 1182.12 472.4 1112.43 584.15 1113.18 537.64 1161.4 445.04 1113.38 525.33 1113.38 525.33 1114.74 441.67 1166.37 367.95 1114.95 428.51 1115.8 275.11 1110.47 478.19 1110.91 469.81 1058.41 389.46 1110.06 485.89 1105.17 579.33 1105.03 576.85 1044.51 492.29 1104.84 585.61 1104.23 597.29 1104.12 597.47 1104.17 598.43 1091.76 835.48 1108.34 835.48 1110.33 713.04 1170.51 619.95 1110.48 703.83"/><ellipse class="cls-3" cx="714.59" cy="831.48" rx="554.59" ry="28.03"/><ellipse class="cls-3" cx="1052.44" cy="877.8" rx="94.99" ry="4.8"/><ellipse class="cls-3" cx="708.72" cy="924.11" rx="94.99" ry="4.8"/><ellipse class="cls-3" cx="447.94" cy="885.28" rx="217.01" ry="10.97"/><circle class="cls-4" cx="257.08" cy="717.27" r="79"/><rect class="cls-4" x="210.6" y="788.48" width="43" height="24" transform="translate(-571.06 1023.14) rotate(-89.32)"/><rect class="cls-4" x="258.6" y="789.05" width="43" height="24" transform="translate(-524.19 1071.69) rotate(-89.32)"/><ellipse class="cls-4" cx="239.84" cy="822.57" rx="7.5" ry="20" transform="translate(-585.5 1052.71) rotate(-89.32)"/><ellipse class="cls-4" cx="287.85" cy="822.14" rx="7.5" ry="20" transform="translate(-537.62 1100.28) rotate(-89.32)"/><circle class="cls-5" cx="259.32" cy="697.29" r="27"/><circle class="cls-3" cx="259.32" cy="697.29" r="9"/><path class="cls-6" d="M181.32,642.9c-6-28.64,14.69-57.26,46.3-63.93s62.14,11.14,68.18,39.78-15,38.93-46.59,45.6S187.36,671.55,181.32,642.9Z"/><path class="cls-6" d="M377.59,761.34c0,55.08-32.74,74.31-73.13,74.31-.93,0-1.87,0-2.8,0-1.87,0-3.73-.13-5.56-.26-36.45-2.58-64.77-22.8-64.77-74,0-53,67.74-119.89,72.83-124.84h0l.29-.29S377.59,706.27,377.59,761.34Z"/><path class="cls-3" d="M301.8,827.22l26.74-37.37-26.81,41.48-.07,4.29c-1.87,0-3.73-.13-5.56-.26l2.89-55.1,0-.43.05-.08.27-5.2L272.4,733l27,37.68.06,1.1,2.18-41.63-23-43,23.29,35.66,2.27-86.31v0l-.38,68.06,22.91-27-23,32.84-.61,37.28,21.39-35.77L303,753.17l-.34,20.73,31.06-49.79-31.17,57Z"/><circle class="cls-4" cx="872.49" cy="716.42" r="79"/><rect class="cls-4" x="862.07" y="781.78" width="24" height="43" transform="matrix(0.96, -0.29, 0.29, 0.96, -197.41, 292.21)"/><rect class="cls-4" x="907.95" y="767.69" width="24" height="43" transform="translate(-191.24 305.06) rotate(-17.08)"/><ellipse class="cls-4" cx="888.18" cy="821.96" rx="20" ry="7.5" transform="matrix(0.96, -0.29, 0.29, 0.96, -202.27, 297.18)"/><ellipse class="cls-4" cx="933.77" cy="806.9" rx="20" ry="7.5" transform="matrix(0.96, -0.29, 0.29, 0.96, -195.84, 309.91)"/><circle class="cls-5" cx="868.52" cy="696.71" r="27"/><circle class="cls-3" cx="868.52" cy="696.71" r="9"/><path class="cls-6" d="M777.65,668.7c-14.49-25.43-3.48-59,24.6-75s62.57-8.34,77.06,17.09-2.39,41.65-30.46,57.64S792.14,694.13,777.65,668.7Z"/><path class="cls-6" d="M731.59,751.26c0,50.55-30.05,68.21-67.13,68.21-.86,0-1.71,0-2.57,0q-2.58-.06-5.1-.24c-33.46-2.36-59.46-20.92-59.46-67.94,0-48.66,62.18-110.06,66.85-114.61h0l.27-.27S731.59,700.7,731.59,751.26Z"/><path class="cls-3" d="M662,811.73l24.55-34.31L662,815.5l-.07,3.94q-2.58-.06-5.1-.24l2.65-50.58,0-.39,0-.07.25-4.78L635,725.21l24.76,34.59.05,1,2-38.22-21.12-39.44,21.38,32.74,2.08-79.24v0l-.35,62.47,21-24.76-21.12,30.15-.56,34.21,19.64-32.83-19.72,37.87-.31,19,28.51-45.7L662.7,769.42Z"/><path class="cls-6" d="M995.59,772.34c0,55.08-32.74,74.31-73.13,74.31-.93,0-1.87,0-2.8,0-1.87,0-3.73-.13-5.56-.26-36.45-2.58-64.77-22.8-64.77-74,0-53,67.74-119.89,72.83-124.84h0l.29-.29S995.59,717.27,995.59,772.34Z"/><path class="cls-3" d="M919.8,838.22l26.74-37.37-26.81,41.48-.07,4.29c-1.87,0-3.73-.13-5.56-.26l2.89-55.1,0-.43,0-.08.27-5.2L890.4,744l27,37.68.06,1.1,2.18-41.63-23-43,23.29,35.66,2.27-86.31v0l-.38,68.06,22.91-27-23,32.84-.61,37.28,21.39-35.77L921,764.17l-.34,20.73,31.06-49.79-31.17,57Z"/><ellipse class="cls-4" cx="841.81" cy="746.78" rx="12.4" ry="39.5" transform="translate(-193.67 1187.36) rotate(-64.63)"/><ellipse class="cls-4" cx="232.81" cy="741.78" rx="12.4" ry="39.5" transform="translate(-542.34 681.91) rotate(-68.16)"/></svg>