<svg width="1440" height="1080" viewBox="0 0 1440 1080" fill="none" xmlns="http://www.w3.org/2000/svg">
<g clip-path="url(#clip0)">
<path d="M372.592 318C407.939 318 436.592 289.346 436.592 254C436.592 218.654 407.939 190 372.592 190C337.246 190 308.592 218.654 308.592 254C308.592 289.346 337.246 318 372.592 318Z" fill="#FF6584"/>
<path d="M683.976 494.122C683.976 645.133 594.202 697.861 483.461 697.861C372.719 697.861 282.945 645.133 282.945 494.122C282.945 343.11 483.461 151 483.461 151C483.461 151 683.976 343.11 683.976 494.122Z" fill="#F2F2F2"/>
<path d="M476.156 674.761L478.21 548.378L563.674 392.024L478.532 528.552L479.455 471.725L538.357 358.605L479.699 456.687L481.359 354.481L544.433 264.423L481.621 338.409L482.658 151L476.138 399.096L476.674 388.861L412.547 290.704L475.646 408.508L469.671 522.654L469.493 519.625L395.565 416.329L469.269 530.328L468.522 544.603L468.388 544.818L468.449 545.99L453.29 835.589H473.544L475.974 686.005L549.496 572.285L476.156 674.761Z" fill="#3F3D56"/>
<path d="M1280.59 555.972C1280.59 679.582 1207.11 722.742 1116.46 722.742C1025.81 722.742 952.329 679.582 952.329 555.972C952.329 432.362 1116.46 275.11 1116.46 275.11C1116.46 275.11 1280.59 432.362 1280.59 555.972Z" fill="#F2F2F2"/>
<path d="M1110.48 703.833L1112.16 600.383L1182.12 472.4L1112.43 584.154L1113.18 537.639L1161.4 445.044L1113.38 525.329L1114.74 441.669L1166.37 367.952L1114.95 428.514L1115.8 275.11L1110.47 478.188L1110.91 469.811L1058.41 389.464L1110.06 485.893L1105.17 579.327L1105.03 576.847L1044.51 492.294L1104.84 585.608L1104.23 597.293L1104.12 597.469L1104.17 598.428L1091.76 835.478H1108.34L1110.33 713.037L1170.51 619.952L1110.48 703.833Z" fill="#3F3D56"/>
<path d="M714.592 859.513C1020.89 859.513 1269.18 846.962 1269.18 831.479C1269.18 815.996 1020.89 803.445 714.592 803.445C408.299 803.445 160 815.996 160 831.479C160 846.962 408.299 859.513 714.592 859.513Z" fill="#3F3D56"/>
<path d="M1052.44 882.598C1104.91 882.598 1147.43 880.449 1147.43 877.797C1147.43 875.145 1104.91 872.995 1052.44 872.995C999.984 872.995 957.456 875.145 957.456 877.797C957.456 880.449 999.984 882.598 1052.44 882.598Z" fill="#3F3D56"/>
<path d="M708.72 928.916C761.18 928.916 803.708 926.766 803.708 924.114C803.708 921.462 761.18 919.312 708.72 919.312C656.259 919.312 613.731 921.462 613.731 924.114C613.731 926.766 656.259 928.916 708.72 928.916Z" fill="#3F3D56"/>
<path d="M447.944 896.249C567.798 896.249 664.959 891.337 664.959 885.279C664.959 879.22 567.798 874.309 447.944 874.309C328.091 874.309 230.93 879.22 230.93 885.279C230.93 891.337 328.091 896.249 447.944 896.249Z" fill="#3F3D56"/>
<path d="M257.084 796.27C300.714 796.27 336.084 760.9 336.084 717.27C336.084 673.639 300.714 638.27 257.084 638.27C213.453 638.27 178.084 673.639 178.084 717.27C178.084 760.9 213.453 796.27 257.084 796.27Z" fill="#2F2E41"/>
<path d="M244.354 779.124L220.356 778.841L219.849 821.838L243.847 822.121L244.354 779.124Z" fill="#2F2E41"/>
<path d="M292.351 779.69L268.352 779.407L267.846 822.404L291.844 822.687L292.351 779.69Z" fill="#2F2E41"/>
<path d="M259.84 822.81C259.889 818.668 250.975 815.205 239.93 815.075C228.885 814.944 219.892 818.197 219.843 822.338C219.794 826.48 228.709 829.943 239.753 830.074C250.798 830.204 259.792 826.952 259.84 822.81Z" fill="#2F2E41"/>
<path d="M307.849 822.375C307.898 818.233 298.984 814.77 287.939 814.64C276.894 814.51 267.9 817.762 267.852 821.904C267.803 826.046 276.717 829.509 287.762 829.639C298.807 829.769 307.8 826.517 307.849 822.375Z" fill="#2F2E41"/>
<path d="M259.319 724.295C274.231 724.295 286.319 712.207 286.319 697.295C286.319 682.383 274.231 670.295 259.319 670.295C244.408 670.295 232.319 682.383 232.319 697.295C232.319 712.207 244.408 724.295 259.319 724.295Z" fill="white"/>
<path d="M259.319 706.295C264.29 706.295 268.319 702.265 268.319 697.295C268.319 692.324 264.29 688.295 259.319 688.295C254.349 688.295 250.319 692.324 250.319 697.295C250.319 702.265 254.349 706.295 259.319 706.295Z" fill="#3F3D56"/>
<path d="M181.322 642.904C175.28 614.264 196.01 585.64 227.622 578.971C259.235 572.302 289.761 590.114 295.802 618.754C301.844 647.395 280.824 657.684 249.211 664.353C217.598 671.022 187.364 671.545 181.322 642.904Z" fill="#278AB0"/>
<path d="M377.592 761.342C377.592 816.418 344.852 835.648 304.462 835.648C303.527 835.648 302.592 835.638 301.66 835.617C299.788 835.577 297.935 835.488 296.104 835.363C259.652 832.783 231.332 812.564 231.332 761.342C231.332 708.334 299.071 641.446 304.159 636.496L304.168 636.487C304.364 636.295 304.462 636.202 304.462 636.202C304.462 636.202 377.592 706.266 377.592 761.342Z" fill="#278AB0"/>
<path d="M301.798 827.223L328.545 789.849L301.731 831.326L301.66 835.617C299.788 835.577 297.935 835.488 296.104 835.363L298.986 780.26L298.964 779.833L299.013 779.753L299.285 774.548L272.404 732.969L299.369 770.645L299.432 771.75L301.611 730.117L278.597 687.152L301.891 722.81L304.159 636.496L304.168 636.202V636.487L303.789 704.551L326.7 677.568L303.696 710.414L303.09 747.69L324.481 711.916L303.001 753.175L302.662 773.898L333.718 724.106L302.546 781.129L301.798 827.223Z" fill="#3F3D56"/>
<path d="M872.485 795.415C916.116 795.415 951.485 760.046 951.485 716.415C951.485 672.785 916.116 637.415 872.485 637.415C828.855 637.415 793.485 672.785 793.485 716.415C793.485 760.046 828.855 795.415 872.485 795.415Z" fill="#2F2E41"/>
<path d="M879.228 779.205L856.287 786.255L868.919 827.358L891.86 820.308L879.228 779.205Z" fill="#2F2E41"/>
<path d="M925.109 765.109L902.168 772.159L914.799 813.262L937.741 806.212L925.109 765.109Z" fill="#2F2E41"/>
<path d="M890.386 829.13C900.945 825.885 908.517 820.045 907.301 816.085C906.084 812.126 896.538 811.547 885.98 814.791C875.422 818.036 867.849 823.876 869.066 827.836C870.282 831.795 879.828 832.374 890.386 829.13Z" fill="#2F2E41"/>
<path d="M935.975 814.073C946.533 810.828 954.106 804.988 952.889 801.029C951.672 797.069 942.127 796.49 931.568 799.735C921.01 802.98 913.437 808.82 914.654 812.779C915.871 816.739 925.416 817.318 935.975 814.073Z" fill="#2F2E41"/>
<path d="M868.521 723.71C883.433 723.71 895.521 711.622 895.521 696.71C895.521 681.799 883.433 669.71 868.521 669.71C853.61 669.71 841.521 681.799 841.521 696.71C841.521 711.622 853.61 723.71 868.521 723.71Z" fill="white"/>
<path d="M868.521 705.71C873.492 705.71 877.521 701.681 877.521 696.71C877.521 691.74 873.492 687.71 868.521 687.71C863.551 687.71 859.521 691.74 859.521 696.71C859.521 701.681 863.551 705.71 868.521 705.71Z" fill="#3F3D56"/>
<path d="M777.651 668.701C763.162 643.268 774.173 609.685 802.246 593.692C830.318 577.699 864.821 585.351 879.311 610.784C893.801 636.218 876.92 652.428 848.848 668.421C820.775 684.414 792.141 694.134 777.651 668.701Z" fill="#278AB0"/>
<path d="M731.592 751.257C731.592 801.814 701.539 819.466 664.462 819.466C663.603 819.466 662.746 819.457 661.89 819.438C660.172 819.401 658.47 819.319 656.789 819.205C623.329 816.837 597.332 798.276 597.332 751.257C597.332 702.597 659.513 641.198 664.184 636.654L664.192 636.645C664.372 636.469 664.462 636.384 664.462 636.384C664.462 636.384 731.592 700.7 731.592 751.257Z" fill="#278AB0"/>
<path d="M662.016 811.732L686.569 777.425L661.955 815.499L661.89 819.438C660.172 819.401 658.47 819.319 656.789 819.205L659.436 768.623L659.415 768.23L659.46 768.157L659.71 763.38L635.034 725.211L659.787 759.797L659.845 760.811L661.845 722.594L640.72 683.153L662.102 715.886L664.184 636.654L664.192 636.384V636.645L663.845 699.125L684.876 674.356L663.759 704.507L663.203 738.725L682.839 705.886L663.121 743.76L662.81 762.782L691.318 717.076L662.704 769.421L662.016 811.732Z" fill="#3F3D56"/>
<path d="M995.592 772.342C995.592 827.418 962.852 846.648 922.462 846.648C921.527 846.648 920.592 846.638 919.66 846.617C917.788 846.577 915.935 846.488 914.104 846.363C877.652 843.783 849.332 823.564 849.332 772.342C849.332 719.334 917.071 652.446 922.159 647.496L922.168 647.487C922.364 647.295 922.462 647.202 922.462 647.202C922.462 647.202 995.592 717.266 995.592 772.342Z" fill="#278AB0"/>
<path d="M919.798 838.223L946.545 800.849L919.731 842.326L919.66 846.617C917.788 846.577 915.935 846.488 914.103 846.363L916.986 791.26L916.964 790.833L917.013 790.753L917.285 785.548L890.404 743.969L917.369 781.645L917.432 782.75L919.611 741.117L896.597 698.152L919.891 733.81L922.159 647.496L922.168 647.202V647.487L921.789 715.551L944.7 688.568L921.696 721.414L921.09 758.69L942.481 722.916L921.001 764.175L920.662 784.898L951.718 735.106L920.546 792.129L919.798 838.223Z" fill="#3F3D56"/>
<path d="M877.502 763.707C880.437 757.519 866.838 744.925 847.127 735.576C827.416 726.228 809.058 723.665 806.124 729.853C803.189 736.041 816.788 748.636 836.499 757.984C856.21 767.333 874.568 769.895 877.502 763.707Z" fill="#2F2E41"/>
<path d="M269.478 756.476C272.026 750.119 257.676 738.386 237.427 730.27C217.177 722.154 198.697 720.728 196.149 727.084C193.601 733.441 207.95 745.174 228.2 753.29C248.449 761.406 266.93 762.833 269.478 756.476Z" fill="#2F2E41"/>
</g>
<defs>
<clipPath id="clip0">
<rect width="1120.59" height="777.916" fill="white" transform="translate(160 151)"/>
</clipPath>
</defs>
</svg>
